<?xml version="1.0" encoding="utf-8" standalone="no"?>
<!DOCTYPE svg PUBLIC "-//W3C//DTD SVG 1.1//EN"
  "http://www.w3.org/Graphics/SVG/1.1/DTD/svg11.dtd">
<svg xmlns:xlink="http://www.w3.org/1999/xlink" width="287.7575pt" height="219.44375pt" viewBox="0 0 287.7575 219.44375" xmlns="http://www.w3.org/2000/svg" version="1.1">
 <metadata>
  <rdf:RDF xmlns:dc="http://purl.org/dc/elements/1.1/" xmlns:cc="http://creativecommons.org/ns#" xmlns:rdf="http://www.w3.org/1999/02/22-rdf-syntax-ns#">
   <cc:Work>
    <dc:type rdf:resource="http://purl.org/dc/dcmitype/StillImage"/>
    <dc:date>2023-02-15T17:54:44.425240</dc:date>
    <dc:format>image/svg+xml</dc:format>
    <dc:creator>
     <cc:Agent>
      <dc:title>Matplotlib v3.5.1, https://matplotlib.org/</dc:title>
     </cc:Agent>
    </dc:creator>
   </cc:Work>
  </rdf:RDF>
 </metadata>
 <defs>
  <style type="text/css">*{stroke-linejoin: round; stroke-linecap: butt}</style>
 </defs>
 <g id="figure_1">
  <g id="patch_1">
   <path d="M 0 219.44375 
L 287.7575 219.44375 
L 287.7575 0 
L 0 0 
L 0 219.44375 
z
" style="fill: none"/>
  </g>
  <g id="axes_1">
   <g id="patch_2">
    <path d="M 43.281875 178.869375 
L 210.681875 178.869375 
L 210.681875 15.789375 
L 43.281875 15.789375 
z
" style="fill: #ffffff"/>
   </g>
   <g id="matplotlib.axis_1">
    <g id="xtick_1">
     <g id="line2d_1">
      <defs>
       <path id="mc796fe9c20" d="M 0 0 
L 0 3.5 
" style="stroke: #000000; stroke-width: 0.8"/>
      </defs>
      <g>
       <use xlink:href="#mc796fe9c20" x="50.585992" y="178.869375" style="stroke: #000000; stroke-width: 0.8"/>
      </g>
     </g>
     <g id="text_1">
      <!-- 0 -->
      <g transform="translate(47.24943 194.45875)scale(0.12 -0.12)">
       <defs>
        <path id="ArialMT-30" d="M 266 2259 
Q 266 3072 433 3567 
Q 600 4063 929 4331 
Q 1259 4600 1759 4600 
Q 2128 4600 2406 4451 
Q 2684 4303 2865 4023 
Q 3047 3744 3150 3342 
Q 3253 2941 3253 2259 
Q 3253 1453 3087 958 
Q 2922 463 2592 192 
Q 2263 -78 1759 -78 
Q 1097 -78 719 397 
Q 266 969 266 2259 
z
M 844 2259 
Q 844 1131 1108 757 
Q 1372 384 1759 384 
Q 2147 384 2411 759 
Q 2675 1134 2675 2259 
Q 2675 3391 2411 3762 
Q 2147 4134 1753 4134 
Q 1366 4134 1134 3806 
Q 844 3388 844 2259 
z
" transform="scale(0.015625)"/>
       </defs>
       <use xlink:href="#ArialMT-30"/>
      </g>
     </g>
    </g>
    <g id="xtick_2">
     <g id="line2d_2">
      <g>
       <use xlink:href="#mc796fe9c20" x="126.829388" y="178.869375" style="stroke: #000000; stroke-width: 0.8"/>
      </g>
     </g>
     <g id="text_2">
      <!-- 5 -->
      <g transform="translate(123.492826 194.45875)scale(0.12 -0.12)">
       <defs>
        <path id="ArialMT-35" d="M 266 1200 
L 856 1250 
Q 922 819 1161 601 
Q 1400 384 1738 384 
Q 2144 384 2425 690 
Q 2706 997 2706 1503 
Q 2706 1984 2436 2262 
Q 2166 2541 1728 2541 
Q 1456 2541 1237 2417 
Q 1019 2294 894 2097 
L 366 2166 
L 809 4519 
L 3088 4519 
L 3088 3981 
L 1259 3981 
L 1013 2750 
Q 1425 3038 1878 3038 
Q 2478 3038 2890 2622 
Q 3303 2206 3303 1553 
Q 3303 931 2941 478 
Q 2500 -78 1738 -78 
Q 1113 -78 717 272 
Q 322 622 266 1200 
z
" transform="scale(0.015625)"/>
       </defs>
       <use xlink:href="#ArialMT-35"/>
      </g>
     </g>
    </g>
    <g id="xtick_3">
     <g id="line2d_3">
      <g>
       <use xlink:href="#mc796fe9c20" x="203.072784" y="178.869375" style="stroke: #000000; stroke-width: 0.8"/>
      </g>
     </g>
     <g id="text_3">
      <!-- 10 -->
      <g transform="translate(196.399659 194.45875)scale(0.12 -0.12)">
       <defs>
        <path id="ArialMT-31" d="M 2384 0 
L 1822 0 
L 1822 3584 
Q 1619 3391 1289 3197 
Q 959 3003 697 2906 
L 697 3450 
Q 1169 3672 1522 3987 
Q 1875 4303 2022 4600 
L 2384 4600 
L 2384 0 
z
" transform="scale(0.015625)"/>
       </defs>
       <use xlink:href="#ArialMT-31"/>
       <use xlink:href="#ArialMT-30" x="55.615234"/>
      </g>
     </g>
    </g>
    <g id="text_4">
     <!-- Time($t$) -->
     <g transform="translate(107.241875 209.60375)scale(0.12 -0.12)">
      <defs>
       <path id="ArialMT-54" d="M 1659 0 
L 1659 4041 
L 150 4041 
L 150 4581 
L 3781 4581 
L 3781 4041 
L 2266 4041 
L 2266 0 
L 1659 0 
z
" transform="scale(0.015625)"/>
       <path id="ArialMT-69" d="M 425 3934 
L 425 4581 
L 988 4581 
L 988 3934 
L 425 3934 
z
M 425 0 
L 425 3319 
L 988 3319 
L 988 0 
L 425 0 
z
" transform="scale(0.015625)"/>
       <path id="ArialMT-6d" d="M 422 0 
L 422 3319 
L 925 3319 
L 925 2853 
Q 1081 3097 1340 3245 
Q 1600 3394 1931 3394 
Q 2300 3394 2536 3241 
Q 2772 3088 2869 2813 
Q 3263 3394 3894 3394 
Q 4388 3394 4653 3120 
Q 4919 2847 4919 2278 
L 4919 0 
L 4359 0 
L 4359 2091 
Q 4359 2428 4304 2576 
Q 4250 2725 4106 2815 
Q 3963 2906 3769 2906 
Q 3419 2906 3187 2673 
Q 2956 2441 2956 1928 
L 2956 0 
L 2394 0 
L 2394 2156 
Q 2394 2531 2256 2718 
Q 2119 2906 1806 2906 
Q 1569 2906 1367 2781 
Q 1166 2656 1075 2415 
Q 984 2175 984 1722 
L 984 0 
L 422 0 
z
" transform="scale(0.015625)"/>
       <path id="ArialMT-65" d="M 2694 1069 
L 3275 997 
Q 3138 488 2766 206 
Q 2394 -75 1816 -75 
Q 1088 -75 661 373 
Q 234 822 234 1631 
Q 234 2469 665 2931 
Q 1097 3394 1784 3394 
Q 2450 3394 2872 2941 
Q 3294 2488 3294 1666 
Q 3294 1616 3291 1516 
L 816 1516 
Q 847 969 1125 678 
Q 1403 388 1819 388 
Q 2128 388 2347 550 
Q 2566 713 2694 1069 
z
M 847 1978 
L 2700 1978 
Q 2663 2397 2488 2606 
Q 2219 2931 1791 2931 
Q 1403 2931 1139 2672 
Q 875 2413 847 1978 
z
" transform="scale(0.015625)"/>
       <path id="ArialMT-28" d="M 1497 -1347 
Q 1031 -759 709 28 
Q 388 816 388 1659 
Q 388 2403 628 3084 
Q 909 3875 1497 4659 
L 1900 4659 
Q 1522 4009 1400 3731 
Q 1209 3300 1100 2831 
Q 966 2247 966 1656 
Q 966 153 1900 -1347 
L 1497 -1347 
z
" transform="scale(0.015625)"/>
       <path id="DejaVuSans-Oblique-74" d="M 2706 3500 
L 2619 3053 
L 1472 3053 
L 1100 1153 
Q 1081 1047 1072 975 
Q 1063 903 1063 863 
Q 1063 663 1183 572 
Q 1303 481 1569 481 
L 2150 481 
L 2053 0 
L 1503 0 
Q 991 0 739 200 
Q 488 400 488 806 
Q 488 878 497 964 
Q 506 1050 525 1153 
L 897 3053 
L 409 3053 
L 500 3500 
L 978 3500 
L 1172 4494 
L 1747 4494 
L 1556 3500 
L 2706 3500 
z
" transform="scale(0.015625)"/>
       <path id="ArialMT-29" d="M 791 -1347 
L 388 -1347 
Q 1322 153 1322 1656 
Q 1322 2244 1188 2822 
Q 1081 3291 891 3722 
Q 769 4003 388 4659 
L 791 4659 
Q 1378 3875 1659 3084 
Q 1900 2403 1900 1659 
Q 1900 816 1576 28 
Q 1253 -759 791 -1347 
z
" transform="scale(0.015625)"/>
      </defs>
      <use xlink:href="#ArialMT-54" transform="translate(0 0.203125)"/>
      <use xlink:href="#ArialMT-69" transform="translate(61.083984 0.203125)"/>
      <use xlink:href="#ArialMT-6d" transform="translate(83.300781 0.203125)"/>
      <use xlink:href="#ArialMT-65" transform="translate(166.601562 0.203125)"/>
      <use xlink:href="#ArialMT-28" transform="translate(222.216797 0.203125)"/>
      <use xlink:href="#DejaVuSans-Oblique-74" transform="translate(255.517578 0.203125)"/>
      <use xlink:href="#ArialMT-29" transform="translate(294.726562 0.203125)"/>
     </g>
    </g>
   </g>
   <g id="matplotlib.axis_2">
    <g id="ytick_1">
     <g id="line2d_4">
      <defs>
       <path id="mcfe8551fb4" d="M 0 0 
L -3.5 0 
" style="stroke: #000000; stroke-width: 0.8"/>
      </defs>
      <g>
       <use xlink:href="#mcfe8551fb4" x="43.281875" y="140.029135" style="stroke: #000000; stroke-width: 0.8"/>
      </g>
     </g>
     <g id="text_5">
      <!-- −2 -->
      <g transform="translate(22.6 144.323822)scale(0.12 -0.12)">
       <defs>
        <path id="ArialMT-2212" d="M 3381 1997 
L 356 1997 
L 356 2522 
L 3381 2522 
L 3381 1997 
z
" transform="scale(0.015625)"/>
        <path id="ArialMT-32" d="M 3222 541 
L 3222 0 
L 194 0 
Q 188 203 259 391 
Q 375 700 629 1000 
Q 884 1300 1366 1694 
Q 2113 2306 2375 2664 
Q 2638 3022 2638 3341 
Q 2638 3675 2398 3904 
Q 2159 4134 1775 4134 
Q 1369 4134 1125 3890 
Q 881 3647 878 3216 
L 300 3275 
Q 359 3922 746 4261 
Q 1134 4600 1788 4600 
Q 2447 4600 2831 4234 
Q 3216 3869 3216 3328 
Q 3216 3053 3103 2787 
Q 2991 2522 2730 2228 
Q 2469 1934 1863 1422 
Q 1356 997 1212 845 
Q 1069 694 975 541 
L 3222 541 
z
" transform="scale(0.015625)"/>
       </defs>
       <use xlink:href="#ArialMT-2212"/>
       <use xlink:href="#ArialMT-32" x="58.398438"/>
      </g>
     </g>
    </g>
    <g id="ytick_2">
     <g id="line2d_5">
      <g>
       <use xlink:href="#mcfe8551fb4" x="43.281875" y="97.023064" style="stroke: #000000; stroke-width: 0.8"/>
      </g>
     </g>
     <g id="text_6">
      <!-- 0 -->
      <g transform="translate(29.60875 101.317751)scale(0.12 -0.12)">
       <use xlink:href="#ArialMT-30"/>
      </g>
     </g>
    </g>
    <g id="ytick_3">
     <g id="line2d_6">
      <g>
       <use xlink:href="#mcfe8551fb4" x="43.281875" y="54.016993" style="stroke: #000000; stroke-width: 0.8"/>
      </g>
     </g>
     <g id="text_7">
      <!-- 2 -->
      <g transform="translate(29.60875 58.311681)scale(0.12 -0.12)">
       <use xlink:href="#ArialMT-32"/>
      </g>
     </g>
    </g>
    <g id="text_8">
     <!-- Evidence($x$) -->
     <g transform="translate(15.96 129.609375)rotate(-90)scale(0.12 -0.12)">
      <defs>
       <path id="ArialMT-45" d="M 506 0 
L 506 4581 
L 3819 4581 
L 3819 4041 
L 1113 4041 
L 1113 2638 
L 3647 2638 
L 3647 2100 
L 1113 2100 
L 1113 541 
L 3925 541 
L 3925 0 
L 506 0 
z
" transform="scale(0.015625)"/>
       <path id="ArialMT-76" d="M 1344 0 
L 81 3319 
L 675 3319 
L 1388 1331 
Q 1503 1009 1600 663 
Q 1675 925 1809 1294 
L 2547 3319 
L 3125 3319 
L 1869 0 
L 1344 0 
z
" transform="scale(0.015625)"/>
       <path id="ArialMT-64" d="M 2575 0 
L 2575 419 
Q 2259 -75 1647 -75 
Q 1250 -75 917 144 
Q 584 363 401 755 
Q 219 1147 219 1656 
Q 219 2153 384 2558 
Q 550 2963 881 3178 
Q 1213 3394 1622 3394 
Q 1922 3394 2156 3267 
Q 2391 3141 2538 2938 
L 2538 4581 
L 3097 4581 
L 3097 0 
L 2575 0 
z
M 797 1656 
Q 797 1019 1065 703 
Q 1334 388 1700 388 
Q 2069 388 2326 689 
Q 2584 991 2584 1609 
Q 2584 2291 2321 2609 
Q 2059 2928 1675 2928 
Q 1300 2928 1048 2622 
Q 797 2316 797 1656 
z
" transform="scale(0.015625)"/>
       <path id="ArialMT-6e" d="M 422 0 
L 422 3319 
L 928 3319 
L 928 2847 
Q 1294 3394 1984 3394 
Q 2284 3394 2536 3286 
Q 2788 3178 2913 3003 
Q 3038 2828 3088 2588 
Q 3119 2431 3119 2041 
L 3119 0 
L 2556 0 
L 2556 2019 
Q 2556 2363 2490 2533 
Q 2425 2703 2258 2804 
Q 2091 2906 1866 2906 
Q 1506 2906 1245 2678 
Q 984 2450 984 1813 
L 984 0 
L 422 0 
z
" transform="scale(0.015625)"/>
       <path id="ArialMT-63" d="M 2588 1216 
L 3141 1144 
Q 3050 572 2676 248 
Q 2303 -75 1759 -75 
Q 1078 -75 664 370 
Q 250 816 250 1647 
Q 250 2184 428 2587 
Q 606 2991 970 3192 
Q 1334 3394 1763 3394 
Q 2303 3394 2647 3120 
Q 2991 2847 3088 2344 
L 2541 2259 
Q 2463 2594 2264 2762 
Q 2066 2931 1784 2931 
Q 1359 2931 1093 2626 
Q 828 2322 828 1663 
Q 828 994 1084 691 
Q 1341 388 1753 388 
Q 2084 388 2306 591 
Q 2528 794 2588 1216 
z
" transform="scale(0.015625)"/>
       <path id="DejaVuSans-Oblique-78" d="M 3841 3500 
L 2234 1784 
L 3219 0 
L 2559 0 
L 1819 1388 
L 531 0 
L -166 0 
L 1556 1844 
L 641 3500 
L 1300 3500 
L 1972 2234 
L 3144 3500 
L 3841 3500 
z
" transform="scale(0.015625)"/>
      </defs>
      <use xlink:href="#ArialMT-45" transform="translate(0 0.203125)"/>
      <use xlink:href="#ArialMT-76" transform="translate(66.699219 0.203125)"/>
      <use xlink:href="#ArialMT-69" transform="translate(116.699219 0.203125)"/>
      <use xlink:href="#ArialMT-64" transform="translate(138.916016 0.203125)"/>
      <use xlink:href="#ArialMT-65" transform="translate(194.53125 0.203125)"/>
      <use xlink:href="#ArialMT-6e" transform="translate(250.146484 0.203125)"/>
      <use xlink:href="#ArialMT-63" transform="translate(305.761719 0.203125)"/>
      <use xlink:href="#ArialMT-65" transform="translate(355.761719 0.203125)"/>
      <use xlink:href="#ArialMT-28" transform="translate(411.376953 0.203125)"/>
      <use xlink:href="#DejaVuSans-Oblique-78" transform="translate(444.677734 0.203125)"/>
      <use xlink:href="#ArialMT-29" transform="translate(503.857422 0.203125)"/>
     </g>
    </g>
   </g>
   <g id="line2d_7">
    <path d="M 50.890966 77.725468 
L 53.940702 77.725468 
L 54.245675 77.112846 
L 70.104302 77.112846 
L 70.409275 76.500224 
L 77.423668 76.500224 
L 77.728641 75.887602 
L 83.828113 75.887602 
L 84.133087 75.27498 
L 89.927585 75.27498 
L 90.232558 74.662358 
L 95.417109 74.662358 
L 95.722083 74.049736 
L 100.906634 74.049736 
L 101.211607 73.437114 
L 106.091185 73.437114 
L 106.396158 72.824491 
L 110.970762 72.824491 
L 111.275735 72.211869 
L 116.155313 72.211869 
L 116.460286 71.599247 
L 120.729917 71.599247 
L 121.03489 70.986625 
L 125.609494 70.986625 
L 125.914467 70.374003 
L 130.489071 70.374003 
L 130.794045 69.761381 
L 135.063675 69.761381 
L 135.368649 69.148759 
L 139.943252 69.148759 
L 140.248226 68.536137 
L 144.517856 68.536137 
L 144.82283 67.923515 
L 149.09246 67.923515 
L 149.397433 67.310893 
L 153.972037 67.310893 
L 154.277011 66.698271 
L 158.546641 66.698271 
L 158.851614 66.085648 
L 163.121245 66.085648 
L 163.426218 65.473026 
L 168.000822 65.473026 
L 168.305796 64.860404 
L 172.575426 64.860404 
L 172.880399 64.247782 
L 177.150029 64.247782 
L 177.455003 63.63516 
L 182.029607 63.63516 
L 182.33458 63.022538 
L 186.604211 63.022538 
L 186.909184 62.409916 
L 191.178814 62.409916 
L 191.483788 61.797294 
L 196.058392 61.797294 
L 196.363365 61.184672 
L 200.632995 61.184672 
L 200.937969 60.57205 
L 202.157863 60.57205 
L 202.462837 61.184672 
L 203.072784 61.184672 
L 203.072784 61.184672 
" clip-path="url(#p0ec1186e53)" style="fill: none; stroke-dasharray: 5.55,2.4; stroke-dashoffset: 0; stroke: #440154; stroke-width: 1.5"/>
   </g>
   <g id="line2d_8">
    <path d="M 50.890966 116.933282 
L 53.940702 116.933282 
L 54.245675 117.545904 
L 70.104302 117.545904 
L 70.409275 118.158526 
L 77.423668 118.158526 
L 77.728641 118.771148 
L 83.828113 118.771148 
L 84.133087 119.38377 
L 89.927585 119.38377 
L 90.232558 119.996392 
L 95.417109 119.996392 
L 95.722083 120.609014 
L 100.906634 120.609014 
L 101.211607 121.221636 
L 106.091185 121.221636 
L 106.396158 121.834259 
L 110.970762 121.834259 
L 111.275735 122.446881 
L 116.155313 122.446881 
L 116.460286 123.059503 
L 120.729917 123.059503 
L 121.03489 123.672125 
L 125.609494 123.672125 
L 125.914467 124.284747 
L 130.489071 124.284747 
L 130.794045 124.897369 
L 135.063675 124.897369 
L 135.368649 125.509991 
L 139.943252 125.509991 
L 140.248226 126.122613 
L 144.517856 126.122613 
L 144.82283 126.735235 
L 149.09246 126.735235 
L 149.397433 127.347857 
L 153.972037 127.347857 
L 154.277011 127.960479 
L 158.546641 127.960479 
L 158.851614 128.573102 
L 163.121245 128.573102 
L 163.426218 129.185724 
L 168.000822 129.185724 
L 168.305796 129.798346 
L 172.575426 129.798346 
L 172.880399 130.410968 
L 177.150029 130.410968 
L 177.455003 131.02359 
L 182.029607 131.02359 
L 182.33458 131.636212 
L 186.604211 131.636212 
L 186.909184 132.248834 
L 191.178814 132.248834 
L 191.483788 132.861456 
L 196.058392 132.861456 
L 196.363365 133.474078 
L 200.632995 133.474078 
L 200.937969 134.0867 
L 202.157863 134.0867 
L 202.462837 133.474078 
L 203.072784 133.474078 
L 203.072784 133.474078 
" clip-path="url(#p0ec1186e53)" style="fill: none; stroke-dasharray: 5.55,2.4; stroke-dashoffset: 0; stroke: #440154; stroke-width: 1.5"/>
   </g>
   <g id="line2d_9">
    <path d="M 69.494355 97.329375 
L 69.799328 97.941997 
L 70.104302 97.941997 
L 70.409275 98.554619 
L 71.019222 98.554619 
L 71.324196 99.167241 
L 72.239117 99.167241 
L 72.54409 99.779863 
L 73.763985 99.779863 
L 74.068958 100.392485 
L 75.288853 100.392485 
L 75.593826 101.005108 
L 77.118694 101.005108 
L 77.423668 101.61773 
L 78.948536 101.61773 
L 79.253509 102.230352 
L 80.778377 102.230352 
L 81.083351 102.842974 
L 82.913192 102.842974 
L 83.218166 103.455596 
L 84.743034 103.455596 
L 85.048007 104.068218 
L 86.877849 104.068218 
L 87.182822 104.68084 
L 88.70769 104.68084 
L 89.012664 105.293462 
L 90.842505 105.293462 
L 91.147479 105.906084 
L 92.97732 105.906084 
L 93.282294 106.518706 
L 95.112136 106.518706 
L 95.417109 107.131328 
L 97.551924 107.131328 
L 97.856898 107.743951 
L 99.686739 107.743951 
L 99.991713 108.356573 
L 102.126528 108.356573 
L 102.431502 108.969195 
L 104.261343 108.969195 
L 104.566317 109.581817 
L 106.701132 109.581817 
L 107.006105 110.194439 
L 109.14092 110.194439 
L 109.445894 110.807061 
L 111.580709 110.807061 
L 111.885683 111.419683 
L 114.325471 111.419683 
L 114.630445 112.032305 
L 116.76526 112.032305 
L 117.070234 112.644927 
L 119.510022 112.644927 
L 119.814996 113.257549 
L 122.254784 113.257549 
L 122.559758 113.870171 
L 124.999547 113.870171 
L 125.30452 114.482793 
L 127.744309 114.482793 
L 128.049283 115.095416 
L 130.489071 115.095416 
L 130.794045 115.708038 
L 133.538807 115.708038 
L 133.843781 116.32066 
L 136.283569 116.32066 
L 136.588543 116.933282 
L 139.333305 116.933282 
L 139.638279 117.545904 
L 142.383041 117.545904 
L 142.688015 118.158526 
L 145.432777 118.158526 
L 145.73775 118.771148 
L 148.482513 118.771148 
L 148.787486 119.38377 
L 151.532248 119.38377 
L 151.837222 119.996392 
L 154.886958 119.996392 
L 155.191931 120.609014 
L 158.241667 120.609014 
L 158.546641 121.221636 
L 161.291403 121.221636 
L 161.596377 121.834259 
L 164.646113 121.834259 
L 164.951086 122.446881 
L 168.000822 122.446881 
L 168.305796 123.059503 
L 171.355531 123.059503 
L 171.660505 123.672125 
L 175.015214 123.672125 
L 175.320188 124.284747 
L 178.369924 124.284747 
L 178.674897 124.897369 
L 182.029607 124.897369 
L 182.33458 125.509991 
L 185.384316 125.509991 
L 185.68929 126.122613 
L 189.043999 126.122613 
L 189.348973 126.735235 
L 192.703682 126.735235 
L 193.008656 127.347857 
L 196.363365 127.347857 
L 196.668339 127.960479 
L 200.023048 127.960479 
L 200.328022 128.573102 
L 202.157863 128.573102 
L 202.462837 129.185724 
L 203.072784 129.185724 
L 203.072784 129.185724 
" clip-path="url(#p0ec1186e53)" style="fill: none; stroke: #440154; stroke-width: 1.5; stroke-linecap: square"/>
   </g>
   <g id="line2d_10">
    <path d="M 69.494355 97.329375 
L 69.799328 96.716753 
L 70.104302 96.716753 
L 70.409275 96.104131 
L 71.019222 96.104131 
L 71.324196 95.491509 
L 72.239117 95.491509 
L 72.54409 94.878887 
L 73.763985 94.878887 
L 74.068958 94.266265 
L 75.288853 94.266265 
L 75.593826 93.653642 
L 77.118694 93.653642 
L 77.423668 93.04102 
L 78.948536 93.04102 
L 79.253509 92.428398 
L 80.778377 92.428398 
L 81.083351 91.815776 
L 82.913192 91.815776 
L 83.218166 91.203154 
L 84.743034 91.203154 
L 85.048007 90.590532 
L 86.877849 90.590532 
L 87.182822 89.97791 
L 88.70769 89.97791 
L 89.012664 89.365288 
L 90.842505 89.365288 
L 91.147479 88.752666 
L 92.97732 88.752666 
L 93.282294 88.140044 
L 95.112136 88.140044 
L 95.417109 87.527422 
L 97.551924 87.527422 
L 97.856898 86.914799 
L 99.686739 86.914799 
L 99.991713 86.302177 
L 102.126528 86.302177 
L 102.431502 85.689555 
L 104.261343 85.689555 
L 104.566317 85.076933 
L 106.701132 85.076933 
L 107.006105 84.464311 
L 109.14092 84.464311 
L 109.445894 83.851689 
L 111.580709 83.851689 
L 111.885683 83.239067 
L 114.325471 83.239067 
L 114.630445 82.626445 
L 116.76526 82.626445 
L 117.070234 82.013823 
L 119.510022 82.013823 
L 119.814996 81.401201 
L 122.254784 81.401201 
L 122.559758 80.788579 
L 124.999547 80.788579 
L 125.30452 80.175957 
L 127.744309 80.175957 
L 128.049283 79.563334 
L 130.489071 79.563334 
L 130.794045 78.950712 
L 133.538807 78.950712 
L 133.843781 78.33809 
L 136.283569 78.33809 
L 136.588543 77.725468 
L 139.333305 77.725468 
L 139.638279 77.112846 
L 142.383041 77.112846 
L 142.688015 76.500224 
L 145.432777 76.500224 
L 145.73775 75.887602 
L 148.482513 75.887602 
L 148.787486 75.27498 
L 151.532248 75.27498 
L 151.837222 74.662358 
L 154.886958 74.662358 
L 155.191931 74.049736 
L 158.241667 74.049736 
L 158.546641 73.437114 
L 161.291403 73.437114 
L 161.596377 72.824491 
L 164.646113 72.824491 
L 164.951086 72.211869 
L 168.000822 72.211869 
L 168.305796 71.599247 
L 171.355531 71.599247 
L 171.660505 70.986625 
L 175.015214 70.986625 
L 175.320188 70.374003 
L 178.369924 70.374003 
L 178.674897 69.761381 
L 182.029607 69.761381 
L 182.33458 69.148759 
L 185.384316 69.148759 
L 185.68929 68.536137 
L 189.043999 68.536137 
L 189.348973 67.923515 
L 192.703682 67.923515 
L 193.008656 67.310893 
L 196.363365 67.310893 
L 196.668339 66.698271 
L 200.023048 66.698271 
L 200.328022 66.085648 
L 202.157863 66.085648 
L 202.462837 65.473026 
L 203.072784 65.473026 
L 203.072784 65.473026 
" clip-path="url(#p0ec1186e53)" style="fill: none; stroke: #440154; stroke-width: 1.5; stroke-linecap: square"/>
   </g>
   <g id="line2d_11">
    <path d="M 50.890966 75.887602 
L 52.11086 75.887602 
L 52.415834 75.27498 
L 53.940702 75.27498 
L 54.245675 74.662358 
L 56.075517 74.662358 
L 56.38049 74.049736 
L 58.820279 74.049736 
L 59.125253 73.437114 
L 61.565041 73.437114 
L 61.870015 72.824491 
L 64.919751 72.824491 
L 65.224724 72.211869 
L 68.579434 72.211869 
L 68.884407 71.599247 
L 72.54409 71.599247 
L 72.849064 70.986625 
L 76.203773 70.986625 
L 76.508747 70.374003 
L 79.863456 70.374003 
L 80.16843 69.761381 
L 83.523139 69.761381 
L 83.828113 69.148759 
L 87.182822 69.148759 
L 87.487796 68.536137 
L 90.537532 68.536137 
L 90.842505 67.923515 
L 93.892241 67.923515 
L 94.197215 67.310893 
L 97.246951 67.310893 
L 97.551924 66.698271 
L 100.60166 66.698271 
L 100.906634 66.085648 
L 103.956369 66.085648 
L 104.261343 65.473026 
L 107.311079 65.473026 
L 107.616052 64.860404 
L 110.665788 64.860404 
L 110.970762 64.247782 
L 114.020498 64.247782 
L 114.325471 63.63516 
L 117.070234 63.63516 
L 117.375207 63.022538 
L 120.424943 63.022538 
L 120.729917 62.409916 
L 123.779652 62.409916 
L 124.084626 61.797294 
L 126.829388 61.797294 
L 127.134362 61.184672 
L 130.184098 61.184672 
L 130.489071 60.57205 
L 133.538807 60.57205 
L 133.843781 59.959428 
L 136.588543 59.959428 
L 136.893516 59.346806 
L 139.943252 59.346806 
L 140.248226 58.734183 
L 143.297962 58.734183 
L 143.602935 58.121561 
L 146.347698 58.121561 
L 146.652671 57.508939 
L 149.702407 57.508939 
L 150.007381 56.896317 
L 153.057116 56.896317 
L 153.36209 56.283695 
L 156.411826 56.283695 
L 156.716799 55.671073 
L 159.461562 55.671073 
L 159.766535 55.058451 
L 162.816271 55.058451 
L 163.121245 54.445829 
L 166.17098 54.445829 
L 166.475954 53.833207 
L 169.52569 53.833207 
L 169.830663 53.220585 
L 172.880399 53.220585 
L 173.185373 52.607963 
L 176.235109 52.607963 
L 176.540082 51.99534 
L 179.589818 51.99534 
L 179.894792 51.382718 
L 182.944528 51.382718 
L 183.249501 50.770096 
L 186.299237 50.770096 
L 186.604211 50.157474 
L 189.653946 50.157474 
L 189.95892 49.544852 
L 193.008656 49.544852 
L 193.313629 48.93223 
L 196.363365 48.93223 
L 196.668339 48.319608 
L 199.718075 48.319608 
L 200.023048 47.706986 
L 202.157863 47.706986 
L 202.462837 48.319608 
L 203.072784 48.319608 
L 203.072784 48.319608 
" clip-path="url(#p0ec1186e53)" style="fill: none; stroke-dasharray: 5.55,2.4; stroke-dashoffset: 0; stroke: #31688e; stroke-width: 1.5"/>
   </g>
   <g id="line2d_12">
    <path d="M 50.890966 118.771148 
L 52.11086 118.771148 
L 52.415834 119.38377 
L 53.940702 119.38377 
L 54.245675 119.996392 
L 56.075517 119.996392 
L 56.38049 120.609014 
L 58.820279 120.609014 
L 59.125253 121.221636 
L 61.565041 121.221636 
L 61.870015 121.834259 
L 64.919751 121.834259 
L 65.224724 122.446881 
L 68.579434 122.446881 
L 68.884407 123.059503 
L 72.54409 123.059503 
L 72.849064 123.672125 
L 76.203773 123.672125 
L 76.508747 124.284747 
L 79.863456 124.284747 
L 80.16843 124.897369 
L 83.523139 124.897369 
L 83.828113 125.509991 
L 87.182822 125.509991 
L 87.487796 126.122613 
L 90.537532 126.122613 
L 90.842505 126.735235 
L 93.892241 126.735235 
L 94.197215 127.347857 
L 97.246951 127.347857 
L 97.551924 127.960479 
L 100.60166 127.960479 
L 100.906634 128.573102 
L 103.956369 128.573102 
L 104.261343 129.185724 
L 107.311079 129.185724 
L 107.616052 129.798346 
L 110.665788 129.798346 
L 110.970762 130.410968 
L 114.020498 130.410968 
L 114.325471 131.02359 
L 117.070234 131.02359 
L 117.375207 131.636212 
L 120.424943 131.636212 
L 120.729917 132.248834 
L 123.779652 132.248834 
L 124.084626 132.861456 
L 126.829388 132.861456 
L 127.134362 133.474078 
L 130.184098 133.474078 
L 130.489071 134.0867 
L 133.538807 134.0867 
L 133.843781 134.699322 
L 136.588543 134.699322 
L 136.893516 135.311944 
L 139.943252 135.311944 
L 140.248226 135.924567 
L 143.297962 135.924567 
L 143.602935 136.537189 
L 146.347698 136.537189 
L 146.652671 137.149811 
L 149.702407 137.149811 
L 150.007381 137.762433 
L 153.057116 137.762433 
L 153.36209 138.375055 
L 156.411826 138.375055 
L 156.716799 138.987677 
L 159.461562 138.987677 
L 159.766535 139.600299 
L 162.816271 139.600299 
L 163.121245 140.212921 
L 166.17098 140.212921 
L 166.475954 140.825543 
L 169.52569 140.825543 
L 169.830663 141.438165 
L 172.880399 141.438165 
L 173.185373 142.050787 
L 176.235109 142.050787 
L 176.540082 142.66341 
L 179.589818 142.66341 
L 179.894792 143.276032 
L 182.944528 143.276032 
L 183.249501 143.888654 
L 186.299237 143.888654 
L 186.604211 144.501276 
L 189.653946 144.501276 
L 189.95892 145.113898 
L 193.008656 145.113898 
L 193.313629 145.72652 
L 196.363365 145.72652 
L 196.668339 146.339142 
L 199.718075 146.339142 
L 200.023048 146.951764 
L 202.157863 146.951764 
L 202.462837 146.339142 
L 203.072784 146.339142 
L 203.072784 146.339142 
" clip-path="url(#p0ec1186e53)" style="fill: none; stroke-dasharray: 5.55,2.4; stroke-dashoffset: 0; stroke: #31688e; stroke-width: 1.5"/>
   </g>
   <g id="line2d_13">
    <path d="M 63.089909 97.941997 
L 63.394883 97.941997 
L 63.699856 98.554619 
L 64.00483 98.554619 
L 64.309804 99.167241 
L 64.919751 99.167241 
L 65.224724 99.779863 
L 65.834672 99.779863 
L 66.139645 100.392485 
L 67.054566 100.392485 
L 67.359539 101.005108 
L 68.579434 101.005108 
L 68.884407 101.61773 
L 69.799328 101.61773 
L 70.104302 102.230352 
L 71.019222 102.230352 
L 71.324196 102.842974 
L 72.54409 102.842974 
L 72.849064 103.455596 
L 73.763985 103.455596 
L 74.068958 104.068218 
L 75.288853 104.068218 
L 75.593826 104.68084 
L 76.813721 104.68084 
L 77.118694 105.293462 
L 78.033615 105.293462 
L 78.338588 105.906084 
L 79.558483 105.906084 
L 79.863456 106.518706 
L 81.083351 106.518706 
L 81.388324 107.131328 
L 82.608219 107.131328 
L 82.913192 107.743951 
L 84.133087 107.743951 
L 84.43806 108.356573 
L 85.657954 108.356573 
L 85.962928 108.969195 
L 87.487796 108.969195 
L 87.79277 109.581817 
L 89.012664 109.581817 
L 89.317637 110.194439 
L 90.537532 110.194439 
L 90.842505 110.807061 
L 92.367373 110.807061 
L 92.672347 111.419683 
L 93.892241 111.419683 
L 94.197215 112.032305 
L 95.722083 112.032305 
L 96.027056 112.644927 
L 97.551924 112.644927 
L 97.856898 113.257549 
L 99.381766 113.257549 
L 99.686739 113.870171 
L 101.211607 113.870171 
L 101.516581 114.482793 
L 103.041449 114.482793 
L 103.346422 115.095416 
L 104.87129 115.095416 
L 105.176264 115.708038 
L 106.701132 115.708038 
L 107.006105 116.32066 
L 108.530973 116.32066 
L 108.835947 116.933282 
L 110.360815 116.933282 
L 110.665788 117.545904 
L 112.49563 117.545904 
L 112.800603 118.158526 
L 114.325471 118.158526 
L 114.630445 118.771148 
L 116.460286 118.771148 
L 116.76526 119.38377 
L 118.290128 119.38377 
L 118.595101 119.996392 
L 120.424943 119.996392 
L 120.729917 120.609014 
L 122.559758 120.609014 
L 122.864732 121.221636 
L 124.694573 121.221636 
L 124.999547 121.834259 
L 126.829388 121.834259 
L 127.134362 122.446881 
L 128.964203 122.446881 
L 129.269177 123.059503 
L 131.099018 123.059503 
L 131.403992 123.672125 
L 133.233833 123.672125 
L 133.538807 124.284747 
L 135.673622 124.284747 
L 135.978596 124.897369 
L 137.808437 124.897369 
L 138.113411 125.509991 
L 140.248226 125.509991 
L 140.553199 126.122613 
L 142.383041 126.122613 
L 142.688015 126.735235 
L 144.82283 126.735235 
L 145.127803 127.347857 
L 147.262618 127.347857 
L 147.567592 127.960479 
L 149.397433 127.960479 
L 149.702407 128.573102 
L 151.837222 128.573102 
L 152.142196 129.185724 
L 154.277011 129.185724 
L 154.581984 129.798346 
L 156.716799 129.798346 
L 157.021773 130.410968 
L 159.156588 130.410968 
L 159.461562 131.02359 
L 161.596377 131.02359 
L 161.90135 131.636212 
L 164.341139 131.636212 
L 164.646113 132.248834 
L 166.780928 132.248834 
L 167.085901 132.861456 
L 169.220716 132.861456 
L 169.52569 133.474078 
L 171.965479 133.474078 
L 172.270452 134.0867 
L 174.405267 134.0867 
L 174.710241 134.699322 
L 177.150029 134.699322 
L 177.455003 135.311944 
L 179.894792 135.311944 
L 180.199765 135.924567 
L 182.33458 135.924567 
L 182.639554 136.537189 
L 185.079343 136.537189 
L 185.384316 137.149811 
L 187.824105 137.149811 
L 188.129078 137.762433 
L 190.568867 137.762433 
L 190.873841 138.375055 
L 193.313629 138.375055 
L 193.618603 138.987677 
L 196.058392 138.987677 
L 196.363365 139.600299 
L 198.803154 139.600299 
L 199.108128 140.212921 
L 201.242943 140.212921 
L 201.547916 140.825543 
L 202.157863 140.825543 
L 202.462837 141.438165 
L 203.072784 141.438165 
L 203.072784 141.438165 
" clip-path="url(#p0ec1186e53)" style="fill: none; stroke: #31688e; stroke-width: 1.5; stroke-linecap: square"/>
   </g>
   <g id="line2d_14">
    <path d="M 63.089909 96.716753 
L 63.394883 96.716753 
L 63.699856 96.104131 
L 64.00483 96.104131 
L 64.309804 95.491509 
L 64.919751 95.491509 
L 65.224724 94.878887 
L 65.834672 94.878887 
L 66.139645 94.266265 
L 67.054566 94.266265 
L 67.359539 93.653642 
L 68.579434 93.653642 
L 68.884407 93.04102 
L 69.799328 93.04102 
L 70.104302 92.428398 
L 71.019222 92.428398 
L 71.324196 91.815776 
L 72.54409 91.815776 
L 72.849064 91.203154 
L 73.763985 91.203154 
L 74.068958 90.590532 
L 75.288853 90.590532 
L 75.593826 89.97791 
L 76.813721 89.97791 
L 77.118694 89.365288 
L 78.033615 89.365288 
L 78.338588 88.752666 
L 79.558483 88.752666 
L 79.863456 88.140044 
L 81.083351 88.140044 
L 81.388324 87.527422 
L 82.608219 87.527422 
L 82.913192 86.914799 
L 84.133087 86.914799 
L 84.43806 86.302177 
L 85.657954 86.302177 
L 85.962928 85.689555 
L 87.487796 85.689555 
L 87.79277 85.076933 
L 89.012664 85.076933 
L 89.317637 84.464311 
L 90.537532 84.464311 
L 90.842505 83.851689 
L 92.367373 83.851689 
L 92.672347 83.239067 
L 93.892241 83.239067 
L 94.197215 82.626445 
L 95.722083 82.626445 
L 96.027056 82.013823 
L 97.551924 82.013823 
L 97.856898 81.401201 
L 99.381766 81.401201 
L 99.686739 80.788579 
L 101.211607 80.788579 
L 101.516581 80.175957 
L 103.041449 80.175957 
L 103.346422 79.563334 
L 104.87129 79.563334 
L 105.176264 78.950712 
L 106.701132 78.950712 
L 107.006105 78.33809 
L 108.530973 78.33809 
L 108.835947 77.725468 
L 110.360815 77.725468 
L 110.665788 77.112846 
L 112.49563 77.112846 
L 112.800603 76.500224 
L 114.325471 76.500224 
L 114.630445 75.887602 
L 116.460286 75.887602 
L 116.76526 75.27498 
L 118.290128 75.27498 
L 118.595101 74.662358 
L 120.424943 74.662358 
L 120.729917 74.049736 
L 122.559758 74.049736 
L 122.864732 73.437114 
L 124.694573 73.437114 
L 124.999547 72.824491 
L 126.829388 72.824491 
L 127.134362 72.211869 
L 128.964203 72.211869 
L 129.269177 71.599247 
L 131.099018 71.599247 
L 131.403992 70.986625 
L 133.233833 70.986625 
L 133.538807 70.374003 
L 135.673622 70.374003 
L 135.978596 69.761381 
L 137.808437 69.761381 
L 138.113411 69.148759 
L 140.248226 69.148759 
L 140.553199 68.536137 
L 142.383041 68.536137 
L 142.688015 67.923515 
L 144.82283 67.923515 
L 145.127803 67.310893 
L 147.262618 67.310893 
L 147.567592 66.698271 
L 149.397433 66.698271 
L 149.702407 66.085648 
L 151.837222 66.085648 
L 152.142196 65.473026 
L 154.277011 65.473026 
L 154.581984 64.860404 
L 156.716799 64.860404 
L 157.021773 64.247782 
L 159.156588 64.247782 
L 159.461562 63.63516 
L 161.596377 63.63516 
L 161.90135 63.022538 
L 164.341139 63.022538 
L 164.646113 62.409916 
L 166.780928 62.409916 
L 167.085901 61.797294 
L 169.220716 61.797294 
L 169.52569 61.184672 
L 171.965479 61.184672 
L 172.270452 60.57205 
L 174.405267 60.57205 
L 174.710241 59.959428 
L 177.150029 59.959428 
L 177.455003 59.346806 
L 179.894792 59.346806 
L 180.199765 58.734183 
L 182.33458 58.734183 
L 182.639554 58.121561 
L 185.079343 58.121561 
L 185.384316 57.508939 
L 187.824105 57.508939 
L 188.129078 56.896317 
L 190.568867 56.896317 
L 190.873841 56.283695 
L 193.313629 56.283695 
L 193.618603 55.671073 
L 196.058392 55.671073 
L 196.363365 55.058451 
L 198.803154 55.058451 
L 199.108128 54.445829 
L 201.242943 54.445829 
L 201.547916 53.833207 
L 202.157863 53.833207 
L 202.462837 53.220585 
L 203.072784 53.220585 
L 203.072784 53.220585 
" clip-path="url(#p0ec1186e53)" style="fill: none; stroke: #31688e; stroke-width: 1.5; stroke-linecap: square"/>
   </g>
   <g id="line2d_15">
    <path d="M 50.890966 74.049736 
L 51.805887 74.049736 
L 52.11086 73.437114 
L 52.720807 73.437114 
L 53.025781 72.824491 
L 54.245675 72.824491 
L 54.550649 72.211869 
L 55.46557 72.211869 
L 55.770543 71.599247 
L 56.990438 71.599247 
L 57.295411 70.986625 
L 58.515305 70.986625 
L 58.820279 70.374003 
L 60.650121 70.374003 
L 60.955094 69.761381 
L 62.784936 69.761381 
L 63.089909 69.148759 
L 64.919751 69.148759 
L 65.224724 68.536137 
L 67.664513 68.536137 
L 67.969487 67.923515 
L 70.104302 67.923515 
L 70.409275 67.310893 
L 72.849064 67.310893 
L 73.154038 66.698271 
L 75.593826 66.698271 
L 75.8988 66.085648 
L 78.338588 66.085648 
L 78.643562 65.473026 
L 80.778377 65.473026 
L 81.083351 64.860404 
L 83.523139 64.860404 
L 83.828113 64.247782 
L 86.267902 64.247782 
L 86.572875 63.63516 
L 89.012664 63.63516 
L 89.317637 63.022538 
L 91.452453 63.022538 
L 91.757426 62.409916 
L 94.197215 62.409916 
L 94.502188 61.797294 
L 96.637003 61.797294 
L 96.941977 61.184672 
L 99.381766 61.184672 
L 99.686739 60.57205 
L 102.126528 60.57205 
L 102.431502 59.959428 
L 104.566317 59.959428 
L 104.87129 59.346806 
L 107.311079 59.346806 
L 107.616052 58.734183 
L 109.750868 58.734183 
L 110.055841 58.121561 
L 112.49563 58.121561 
L 112.800603 57.508939 
L 114.935418 57.508939 
L 115.240392 56.896317 
L 117.680181 56.896317 
L 117.985154 56.283695 
L 120.119969 56.283695 
L 120.424943 55.671073 
L 122.864732 55.671073 
L 123.169705 55.058451 
L 125.609494 55.058451 
L 125.914467 54.445829 
L 128.049283 54.445829 
L 128.354256 53.833207 
L 130.794045 53.833207 
L 131.099018 53.220585 
L 133.233833 53.220585 
L 133.538807 52.607963 
L 135.978596 52.607963 
L 136.283569 51.99534 
L 138.723358 51.99534 
L 139.028332 51.382718 
L 141.163147 51.382718 
L 141.46812 50.770096 
L 143.907909 50.770096 
L 144.212882 50.157474 
L 146.652671 50.157474 
L 146.957645 49.544852 
L 149.09246 49.544852 
L 149.397433 48.93223 
L 151.837222 48.93223 
L 152.142196 48.319608 
L 154.581984 48.319608 
L 154.886958 47.706986 
L 157.326747 47.706986 
L 157.63172 47.094364 
L 160.071509 47.094364 
L 160.376482 46.481742 
L 162.511297 46.481742 
L 162.816271 45.86912 
L 165.25606 45.86912 
L 165.561033 45.256497 
L 168.000822 45.256497 
L 168.305796 44.643875 
L 170.745584 44.643875 
L 171.050558 44.031253 
L 173.490346 44.031253 
L 173.79532 43.418631 
L 176.235109 43.418631 
L 176.540082 42.806009 
L 178.979871 42.806009 
L 179.284845 42.193387 
L 181.724633 42.193387 
L 182.029607 41.580765 
L 184.469395 41.580765 
L 184.774369 40.968143 
L 187.214158 40.968143 
L 187.519131 40.355521 
L 189.95892 40.355521 
L 190.263894 39.742899 
L 192.703682 39.742899 
L 193.008656 39.130277 
L 195.753418 39.130277 
L 196.058392 38.517654 
L 198.49818 38.517654 
L 198.803154 37.905032 
L 202.462837 37.905032 
L 202.767811 38.517654 
L 203.072784 38.517654 
L 203.072784 38.517654 
" clip-path="url(#p0ec1186e53)" style="fill: none; stroke-dasharray: 5.55,2.4; stroke-dashoffset: 0; stroke: #21918c; stroke-width: 1.5"/>
   </g>
   <g id="line2d_16">
    <path d="M 50.890966 120.609014 
L 51.805887 120.609014 
L 52.11086 121.221636 
L 52.720807 121.221636 
L 53.025781 121.834259 
L 54.245675 121.834259 
L 54.550649 122.446881 
L 55.46557 122.446881 
L 55.770543 123.059503 
L 56.990438 123.059503 
L 57.295411 123.672125 
L 58.515305 123.672125 
L 58.820279 124.284747 
L 60.650121 124.284747 
L 60.955094 124.897369 
L 62.784936 124.897369 
L 63.089909 125.509991 
L 64.919751 125.509991 
L 65.224724 126.122613 
L 67.664513 126.122613 
L 67.969487 126.735235 
L 70.104302 126.735235 
L 70.409275 127.347857 
L 72.849064 127.347857 
L 73.154038 127.960479 
L 75.593826 127.960479 
L 75.8988 128.573102 
L 78.338588 128.573102 
L 78.643562 129.185724 
L 80.778377 129.185724 
L 81.083351 129.798346 
L 83.523139 129.798346 
L 83.828113 130.410968 
L 86.267902 130.410968 
L 86.572875 131.02359 
L 89.012664 131.02359 
L 89.317637 131.636212 
L 91.452453 131.636212 
L 91.757426 132.248834 
L 94.197215 132.248834 
L 94.502188 132.861456 
L 96.637003 132.861456 
L 96.941977 133.474078 
L 99.381766 133.474078 
L 99.686739 134.0867 
L 102.126528 134.0867 
L 102.431502 134.699322 
L 104.566317 134.699322 
L 104.87129 135.311944 
L 107.311079 135.311944 
L 107.616052 135.924567 
L 109.750868 135.924567 
L 110.055841 136.537189 
L 112.49563 136.537189 
L 112.800603 137.149811 
L 114.935418 137.149811 
L 115.240392 137.762433 
L 117.680181 137.762433 
L 117.985154 138.375055 
L 120.119969 138.375055 
L 120.424943 138.987677 
L 122.864732 138.987677 
L 123.169705 139.600299 
L 125.609494 139.600299 
L 125.914467 140.212921 
L 128.049283 140.212921 
L 128.354256 140.825543 
L 130.794045 140.825543 
L 131.099018 141.438165 
L 133.233833 141.438165 
L 133.538807 142.050787 
L 135.978596 142.050787 
L 136.283569 142.66341 
L 138.723358 142.66341 
L 139.028332 143.276032 
L 141.163147 143.276032 
L 141.46812 143.888654 
L 143.907909 143.888654 
L 144.212882 144.501276 
L 146.652671 144.501276 
L 146.957645 145.113898 
L 149.09246 145.113898 
L 149.397433 145.72652 
L 151.837222 145.72652 
L 152.142196 146.339142 
L 154.581984 146.339142 
L 154.886958 146.951764 
L 157.326747 146.951764 
L 157.63172 147.564386 
L 160.071509 147.564386 
L 160.376482 148.177008 
L 162.511297 148.177008 
L 162.816271 148.78963 
L 165.25606 148.78963 
L 165.561033 149.402253 
L 168.000822 149.402253 
L 168.305796 150.014875 
L 170.745584 150.014875 
L 171.050558 150.627497 
L 173.490346 150.627497 
L 173.79532 151.240119 
L 176.235109 151.240119 
L 176.540082 151.852741 
L 178.979871 151.852741 
L 179.284845 152.465363 
L 181.724633 152.465363 
L 182.029607 153.077985 
L 184.469395 153.077985 
L 184.774369 153.690607 
L 187.214158 153.690607 
L 187.519131 154.303229 
L 189.95892 154.303229 
L 190.263894 154.915851 
L 192.703682 154.915851 
L 193.008656 155.528473 
L 195.753418 155.528473 
L 196.058392 156.141096 
L 198.49818 156.141096 
L 198.803154 156.753718 
L 202.462837 156.753718 
L 202.767811 156.141096 
L 203.072784 156.141096 
L 203.072784 156.141096 
" clip-path="url(#p0ec1186e53)" style="fill: none; stroke-dasharray: 5.55,2.4; stroke-dashoffset: 0; stroke: #21918c; stroke-width: 1.5"/>
   </g>
   <g id="line2d_17">
    <path d="M 59.7352 97.329375 
L 60.345147 98.554619 
L 60.650121 98.554619 
L 60.955094 99.167241 
L 61.260068 99.167241 
L 61.565041 99.779863 
L 62.174988 99.779863 
L 62.479962 100.392485 
L 63.089909 100.392485 
L 63.394883 101.005108 
L 64.00483 101.005108 
L 64.309804 101.61773 
L 65.224724 101.61773 
L 65.529698 102.230352 
L 66.139645 102.230352 
L 66.444619 102.842974 
L 67.359539 102.842974 
L 67.664513 103.455596 
L 68.579434 103.455596 
L 68.884407 104.068218 
L 69.494355 104.068218 
L 69.799328 104.68084 
L 70.714249 104.68084 
L 71.019222 105.293462 
L 71.934143 105.293462 
L 72.239117 105.906084 
L 73.154038 105.906084 
L 73.459011 106.518706 
L 74.373932 106.518706 
L 74.678905 107.131328 
L 75.593826 107.131328 
L 75.8988 107.743951 
L 76.813721 107.743951 
L 77.118694 108.356573 
L 78.033615 108.356573 
L 78.338588 108.969195 
L 79.253509 108.969195 
L 79.558483 109.581817 
L 80.778377 109.581817 
L 81.083351 110.194439 
L 81.998271 110.194439 
L 82.303245 110.807061 
L 83.218166 110.807061 
L 83.523139 111.419683 
L 84.743034 111.419683 
L 85.048007 112.032305 
L 85.962928 112.032305 
L 86.267902 112.644927 
L 87.487796 112.644927 
L 87.79277 113.257549 
L 88.70769 113.257549 
L 89.012664 113.870171 
L 90.232558 113.870171 
L 90.537532 114.482793 
L 91.757426 114.482793 
L 92.0624 115.095416 
L 92.97732 115.095416 
L 93.282294 115.708038 
L 94.502188 115.708038 
L 94.807162 116.32066 
L 96.027056 116.32066 
L 96.33203 116.933282 
L 97.551924 116.933282 
L 97.856898 117.545904 
L 99.076792 117.545904 
L 99.381766 118.158526 
L 100.60166 118.158526 
L 100.906634 118.771148 
L 102.126528 118.771148 
L 102.431502 119.38377 
L 103.651396 119.38377 
L 103.956369 119.996392 
L 105.481237 119.996392 
L 105.786211 120.609014 
L 107.006105 120.609014 
L 107.311079 121.221636 
L 108.530973 121.221636 
L 108.835947 121.834259 
L 110.360815 121.834259 
L 110.665788 122.446881 
L 111.885683 122.446881 
L 112.190656 123.059503 
L 113.715524 123.059503 
L 114.020498 123.672125 
L 115.240392 123.672125 
L 115.545366 124.284747 
L 117.070234 124.284747 
L 117.375207 124.897369 
L 118.595101 124.897369 
L 118.900075 125.509991 
L 120.424943 125.509991 
L 120.729917 126.122613 
L 122.254784 126.122613 
L 122.559758 126.735235 
L 124.084626 126.735235 
L 124.3896 127.347857 
L 125.914467 127.347857 
L 126.219441 127.960479 
L 127.744309 127.960479 
L 128.049283 128.573102 
L 129.57415 128.573102 
L 129.879124 129.185724 
L 131.403992 129.185724 
L 131.708966 129.798346 
L 133.233833 129.798346 
L 133.538807 130.410968 
L 135.063675 130.410968 
L 135.368649 131.02359 
L 136.893516 131.02359 
L 137.19849 131.636212 
L 139.028332 131.636212 
L 139.333305 132.248834 
L 140.858173 132.248834 
L 141.163147 132.861456 
L 142.992988 132.861456 
L 143.297962 133.474078 
L 144.82283 133.474078 
L 145.127803 134.0867 
L 146.957645 134.0867 
L 147.262618 134.699322 
L 148.787486 134.699322 
L 149.09246 135.311944 
L 150.922301 135.311944 
L 151.227275 135.924567 
L 153.057116 135.924567 
L 153.36209 136.537189 
L 154.886958 136.537189 
L 155.191931 137.149811 
L 157.021773 137.149811 
L 157.326747 137.762433 
L 159.156588 137.762433 
L 159.461562 138.375055 
L 161.291403 138.375055 
L 161.596377 138.987677 
L 163.426218 138.987677 
L 163.731192 139.600299 
L 165.561033 139.600299 
L 165.866007 140.212921 
L 167.695848 140.212921 
L 168.000822 140.825543 
L 169.830663 140.825543 
L 170.135637 141.438165 
L 171.965479 141.438165 
L 172.270452 142.050787 
L 174.100294 142.050787 
L 174.405267 142.66341 
L 176.540082 142.66341 
L 176.845056 143.276032 
L 178.674897 143.276032 
L 178.979871 143.888654 
L 180.809712 143.888654 
L 181.114686 144.501276 
L 183.249501 144.501276 
L 183.554475 145.113898 
L 185.384316 145.113898 
L 185.68929 145.72652 
L 187.824105 145.72652 
L 188.129078 146.339142 
L 189.95892 146.339142 
L 190.263894 146.951764 
L 192.398709 146.951764 
L 192.703682 147.564386 
L 194.838497 147.564386 
L 195.143471 148.177008 
L 196.973312 148.177008 
L 197.278286 148.78963 
L 199.413101 148.78963 
L 199.718075 149.402253 
L 201.242943 149.402253 
L 201.547916 150.014875 
L 202.157863 150.014875 
L 202.767811 151.240119 
L 203.072784 151.240119 
L 203.072784 151.240119 
" clip-path="url(#p0ec1186e53)" style="fill: none; stroke: #21918c; stroke-width: 1.5; stroke-linecap: square"/>
   </g>
   <g id="line2d_18">
    <path d="M 59.7352 97.329375 
L 60.345147 96.104131 
L 60.650121 96.104131 
L 60.955094 95.491509 
L 61.260068 95.491509 
L 61.565041 94.878887 
L 62.174988 94.878887 
L 62.479962 94.266265 
L 63.089909 94.266265 
L 63.394883 93.653642 
L 64.00483 93.653642 
L 64.309804 93.04102 
L 65.224724 93.04102 
L 65.529698 92.428398 
L 66.139645 92.428398 
L 66.444619 91.815776 
L 67.359539 91.815776 
L 67.664513 91.203154 
L 68.579434 91.203154 
L 68.884407 90.590532 
L 69.494355 90.590532 
L 69.799328 89.97791 
L 70.714249 89.97791 
L 71.019222 89.365288 
L 71.934143 89.365288 
L 72.239117 88.752666 
L 73.154038 88.752666 
L 73.459011 88.140044 
L 74.373932 88.140044 
L 74.678905 87.527422 
L 75.593826 87.527422 
L 75.8988 86.914799 
L 76.813721 86.914799 
L 77.118694 86.302177 
L 78.033615 86.302177 
L 78.338588 85.689555 
L 79.253509 85.689555 
L 79.558483 85.076933 
L 80.778377 85.076933 
L 81.083351 84.464311 
L 81.998271 84.464311 
L 82.303245 83.851689 
L 83.218166 83.851689 
L 83.523139 83.239067 
L 84.743034 83.239067 
L 85.048007 82.626445 
L 85.962928 82.626445 
L 86.267902 82.013823 
L 87.487796 82.013823 
L 87.79277 81.401201 
L 88.70769 81.401201 
L 89.012664 80.788579 
L 90.232558 80.788579 
L 90.537532 80.175957 
L 91.757426 80.175957 
L 92.0624 79.563334 
L 92.97732 79.563334 
L 93.282294 78.950712 
L 94.502188 78.950712 
L 94.807162 78.33809 
L 96.027056 78.33809 
L 96.33203 77.725468 
L 97.551924 77.725468 
L 97.856898 77.112846 
L 99.076792 77.112846 
L 99.381766 76.500224 
L 100.60166 76.500224 
L 100.906634 75.887602 
L 102.126528 75.887602 
L 102.431502 75.27498 
L 103.651396 75.27498 
L 103.956369 74.662358 
L 105.481237 74.662358 
L 105.786211 74.049736 
L 107.006105 74.049736 
L 107.311079 73.437114 
L 108.530973 73.437114 
L 108.835947 72.824491 
L 110.360815 72.824491 
L 110.665788 72.211869 
L 111.885683 72.211869 
L 112.190656 71.599247 
L 113.715524 71.599247 
L 114.020498 70.986625 
L 115.240392 70.986625 
L 115.545366 70.374003 
L 117.070234 70.374003 
L 117.375207 69.761381 
L 118.595101 69.761381 
L 118.900075 69.148759 
L 120.424943 69.148759 
L 120.729917 68.536137 
L 122.254784 68.536137 
L 122.559758 67.923515 
L 124.084626 67.923515 
L 124.3896 67.310893 
L 125.914467 67.310893 
L 126.219441 66.698271 
L 127.744309 66.698271 
L 128.049283 66.085648 
L 129.57415 66.085648 
L 129.879124 65.473026 
L 131.403992 65.473026 
L 131.708966 64.860404 
L 133.233833 64.860404 
L 133.538807 64.247782 
L 135.063675 64.247782 
L 135.368649 63.63516 
L 136.893516 63.63516 
L 137.19849 63.022538 
L 139.028332 63.022538 
L 139.333305 62.409916 
L 140.858173 62.409916 
L 141.163147 61.797294 
L 142.992988 61.797294 
L 143.297962 61.184672 
L 144.82283 61.184672 
L 145.127803 60.57205 
L 146.957645 60.57205 
L 147.262618 59.959428 
L 148.787486 59.959428 
L 149.09246 59.346806 
L 150.922301 59.346806 
L 151.227275 58.734183 
L 153.057116 58.734183 
L 153.36209 58.121561 
L 154.886958 58.121561 
L 155.191931 57.508939 
L 157.021773 57.508939 
L 157.326747 56.896317 
L 159.156588 56.896317 
L 159.461562 56.283695 
L 161.291403 56.283695 
L 161.596377 55.671073 
L 163.426218 55.671073 
L 163.731192 55.058451 
L 165.561033 55.058451 
L 165.866007 54.445829 
L 167.695848 54.445829 
L 168.000822 53.833207 
L 169.830663 53.833207 
L 170.135637 53.220585 
L 171.965479 53.220585 
L 172.270452 52.607963 
L 174.100294 52.607963 
L 174.405267 51.99534 
L 176.540082 51.99534 
L 176.845056 51.382718 
L 178.674897 51.382718 
L 178.979871 50.770096 
L 180.809712 50.770096 
L 181.114686 50.157474 
L 183.249501 50.157474 
L 183.554475 49.544852 
L 185.384316 49.544852 
L 185.68929 48.93223 
L 187.824105 48.93223 
L 188.129078 48.319608 
L 189.95892 48.319608 
L 190.263894 47.706986 
L 192.398709 47.706986 
L 192.703682 47.094364 
L 194.838497 47.094364 
L 195.143471 46.481742 
L 196.973312 46.481742 
L 197.278286 45.86912 
L 199.413101 45.86912 
L 199.718075 45.256497 
L 201.242943 45.256497 
L 201.547916 44.643875 
L 202.157863 44.643875 
L 202.767811 43.418631 
L 203.072784 43.418631 
L 203.072784 43.418631 
" clip-path="url(#p0ec1186e53)" style="fill: none; stroke: #21918c; stroke-width: 1.5; stroke-linecap: square"/>
   </g>
   <g id="line2d_19">
    <path d="M 50.890966 72.824491 
L 51.195939 72.211869 
L 51.805887 72.211869 
L 52.11086 71.599247 
L 52.720807 71.599247 
L 53.025781 70.986625 
L 53.635728 70.986625 
L 53.940702 70.374003 
L 54.855622 70.374003 
L 55.160596 69.761381 
L 56.075517 69.761381 
L 56.38049 69.148759 
L 57.295411 69.148759 
L 57.600385 68.536137 
L 58.515305 68.536137 
L 58.820279 67.923515 
L 60.040173 67.923515 
L 60.345147 67.310893 
L 61.565041 67.310893 
L 61.870015 66.698271 
L 63.394883 66.698271 
L 63.699856 66.085648 
L 65.224724 66.085648 
L 65.529698 65.473026 
L 67.054566 65.473026 
L 67.359539 64.860404 
L 69.189381 64.860404 
L 69.494355 64.247782 
L 71.324196 64.247782 
L 71.62917 63.63516 
L 73.459011 63.63516 
L 73.763985 63.022538 
L 75.593826 63.022538 
L 75.8988 62.409916 
L 78.033615 62.409916 
L 78.338588 61.797294 
L 80.16843 61.797294 
L 80.473404 61.184672 
L 82.303245 61.184672 
L 82.608219 60.57205 
L 84.43806 60.57205 
L 84.743034 59.959428 
L 86.877849 59.959428 
L 87.182822 59.346806 
L 89.012664 59.346806 
L 89.317637 58.734183 
L 91.147479 58.734183 
L 91.452453 58.121561 
L 93.282294 58.121561 
L 93.587268 57.508939 
L 95.722083 57.508939 
L 96.027056 56.896317 
L 97.856898 56.896317 
L 98.161871 56.283695 
L 99.991713 56.283695 
L 100.296686 55.671073 
L 102.126528 55.671073 
L 102.431502 55.058451 
L 104.566317 55.058451 
L 104.87129 54.445829 
L 106.701132 54.445829 
L 107.006105 53.833207 
L 108.835947 53.833207 
L 109.14092 53.220585 
L 111.275735 53.220585 
L 111.580709 52.607963 
L 113.410551 52.607963 
L 113.715524 51.99534 
L 115.545366 51.99534 
L 115.850339 51.382718 
L 117.985154 51.382718 
L 118.290128 50.770096 
L 120.119969 50.770096 
L 120.424943 50.157474 
L 122.254784 50.157474 
L 122.559758 49.544852 
L 124.694573 49.544852 
L 124.999547 48.93223 
L 126.829388 48.93223 
L 127.134362 48.319608 
L 129.269177 48.319608 
L 129.57415 47.706986 
L 131.403992 47.706986 
L 131.708966 47.094364 
L 133.843781 47.094364 
L 134.148754 46.481742 
L 135.978596 46.481742 
L 136.283569 45.86912 
L 138.418384 45.86912 
L 138.723358 45.256497 
L 140.553199 45.256497 
L 140.858173 44.643875 
L 142.992988 44.643875 
L 143.297962 44.031253 
L 145.127803 44.031253 
L 145.432777 43.418631 
L 147.567592 43.418631 
L 147.872565 42.806009 
L 149.702407 42.806009 
L 150.007381 42.193387 
L 152.142196 42.193387 
L 152.447169 41.580765 
L 154.581984 41.580765 
L 154.886958 40.968143 
L 156.716799 40.968143 
L 157.021773 40.355521 
L 159.156588 40.355521 
L 159.461562 39.742899 
L 161.596377 39.742899 
L 161.90135 39.130277 
L 164.036165 39.130277 
L 164.341139 38.517654 
L 166.17098 38.517654 
L 166.475954 37.905032 
L 168.610769 37.905032 
L 168.915743 37.29241 
L 171.050558 37.29241 
L 171.355531 36.679788 
L 173.490346 36.679788 
L 173.79532 36.067166 
L 175.930135 36.067166 
L 176.235109 35.454544 
L 178.369924 35.454544 
L 178.674897 34.841922 
L 180.809712 34.841922 
L 181.114686 34.2293 
L 183.249501 34.2293 
L 183.554475 33.616678 
L 185.68929 33.616678 
L 185.994263 33.004056 
L 188.129078 33.004056 
L 188.434052 32.391434 
L 190.568867 32.391434 
L 190.873841 31.778812 
L 193.008656 31.778812 
L 193.313629 31.166189 
L 195.448445 31.166189 
L 195.753418 30.553567 
L 197.888233 30.553567 
L 198.193207 29.940945 
L 202.462837 29.940945 
L 202.767811 30.553567 
L 203.072784 30.553567 
L 203.072784 30.553567 
" clip-path="url(#p0ec1186e53)" style="fill: none; stroke-dasharray: 5.55,2.4; stroke-dashoffset: 0; stroke: #35b779; stroke-width: 1.5"/>
   </g>
   <g id="line2d_20">
    <path d="M 50.890966 121.834259 
L 51.195939 122.446881 
L 51.805887 122.446881 
L 52.11086 123.059503 
L 52.720807 123.059503 
L 53.025781 123.672125 
L 53.635728 123.672125 
L 53.940702 124.284747 
L 54.855622 124.284747 
L 55.160596 124.897369 
L 56.075517 124.897369 
L 56.38049 125.509991 
L 57.295411 125.509991 
L 57.600385 126.122613 
L 58.515305 126.122613 
L 58.820279 126.735235 
L 60.040173 126.735235 
L 60.345147 127.347857 
L 61.565041 127.347857 
L 61.870015 127.960479 
L 63.394883 127.960479 
L 63.699856 128.573102 
L 65.224724 128.573102 
L 65.529698 129.185724 
L 67.054566 129.185724 
L 67.359539 129.798346 
L 69.189381 129.798346 
L 69.494355 130.410968 
L 71.324196 130.410968 
L 71.62917 131.02359 
L 73.459011 131.02359 
L 73.763985 131.636212 
L 75.593826 131.636212 
L 75.8988 132.248834 
L 78.033615 132.248834 
L 78.338588 132.861456 
L 80.16843 132.861456 
L 80.473404 133.474078 
L 82.303245 133.474078 
L 82.608219 134.0867 
L 84.43806 134.0867 
L 84.743034 134.699322 
L 86.877849 134.699322 
L 87.182822 135.311944 
L 89.012664 135.311944 
L 89.317637 135.924567 
L 91.147479 135.924567 
L 91.452453 136.537189 
L 93.282294 136.537189 
L 93.587268 137.149811 
L 95.722083 137.149811 
L 96.027056 137.762433 
L 97.856898 137.762433 
L 98.161871 138.375055 
L 99.991713 138.375055 
L 100.296686 138.987677 
L 102.126528 138.987677 
L 102.431502 139.600299 
L 104.566317 139.600299 
L 104.87129 140.212921 
L 106.701132 140.212921 
L 107.006105 140.825543 
L 108.835947 140.825543 
L 109.14092 141.438165 
L 111.275735 141.438165 
L 111.580709 142.050787 
L 113.410551 142.050787 
L 113.715524 142.66341 
L 115.545366 142.66341 
L 115.850339 143.276032 
L 117.985154 143.276032 
L 118.290128 143.888654 
L 120.119969 143.888654 
L 120.424943 144.501276 
L 122.254784 144.501276 
L 122.559758 145.113898 
L 124.694573 145.113898 
L 124.999547 145.72652 
L 126.829388 145.72652 
L 127.134362 146.339142 
L 129.269177 146.339142 
L 129.57415 146.951764 
L 131.403992 146.951764 
L 131.708966 147.564386 
L 133.843781 147.564386 
L 134.148754 148.177008 
L 135.978596 148.177008 
L 136.283569 148.78963 
L 138.418384 148.78963 
L 138.723358 149.402253 
L 140.553199 149.402253 
L 140.858173 150.014875 
L 142.992988 150.014875 
L 143.297962 150.627497 
L 145.127803 150.627497 
L 145.432777 151.240119 
L 147.567592 151.240119 
L 147.872565 151.852741 
L 149.702407 151.852741 
L 150.007381 152.465363 
L 152.142196 152.465363 
L 152.447169 153.077985 
L 154.581984 153.077985 
L 154.886958 153.690607 
L 156.716799 153.690607 
L 157.021773 154.303229 
L 159.156588 154.303229 
L 159.461562 154.915851 
L 161.596377 154.915851 
L 161.90135 155.528473 
L 164.036165 155.528473 
L 164.341139 156.141096 
L 166.17098 156.141096 
L 166.475954 156.753718 
L 168.610769 156.753718 
L 168.915743 157.36634 
L 171.050558 157.36634 
L 171.355531 157.978962 
L 173.490346 157.978962 
L 173.79532 158.591584 
L 175.930135 158.591584 
L 176.235109 159.204206 
L 178.369924 159.204206 
L 178.674897 159.816828 
L 180.809712 159.816828 
L 181.114686 160.42945 
L 183.249501 160.42945 
L 183.554475 161.042072 
L 185.68929 161.042072 
L 185.994263 161.654694 
L 188.129078 161.654694 
L 188.434052 162.267316 
L 190.568867 162.267316 
L 190.873841 162.879938 
L 193.008656 162.879938 
L 193.313629 163.492561 
L 195.448445 163.492561 
L 195.753418 164.105183 
L 197.888233 164.105183 
L 198.193207 164.717805 
L 202.462837 164.717805 
L 202.767811 164.105183 
L 203.072784 164.105183 
L 203.072784 164.105183 
" clip-path="url(#p0ec1186e53)" style="fill: none; stroke-dasharray: 5.55,2.4; stroke-dashoffset: 0; stroke: #35b779; stroke-width: 1.5"/>
   </g>
   <g id="line2d_21">
    <path d="M 57.905358 97.329375 
L 58.820279 99.167241 
L 59.125253 99.167241 
L 59.430226 99.779863 
L 59.7352 99.779863 
L 60.040173 100.392485 
L 60.650121 100.392485 
L 60.955094 101.005108 
L 61.565041 101.005108 
L 61.870015 101.61773 
L 62.479962 101.61773 
L 62.784936 102.230352 
L 63.394883 102.230352 
L 63.699856 102.842974 
L 64.309804 102.842974 
L 64.614777 103.455596 
L 65.224724 103.455596 
L 65.529698 104.068218 
L 66.139645 104.068218 
L 66.444619 104.68084 
L 67.054566 104.68084 
L 67.359539 105.293462 
L 68.27446 105.293462 
L 68.579434 105.906084 
L 69.189381 105.906084 
L 69.494355 106.518706 
L 70.104302 106.518706 
L 70.409275 107.131328 
L 71.324196 107.131328 
L 71.62917 107.743951 
L 72.239117 107.743951 
L 72.54409 108.356573 
L 73.459011 108.356573 
L 73.763985 108.969195 
L 74.678905 108.969195 
L 74.983879 109.581817 
L 75.593826 109.581817 
L 75.8988 110.194439 
L 76.813721 110.194439 
L 77.118694 110.807061 
L 78.033615 110.807061 
L 78.338588 111.419683 
L 78.948536 111.419683 
L 79.253509 112.032305 
L 80.16843 112.032305 
L 80.473404 112.644927 
L 81.388324 112.644927 
L 81.693298 113.257549 
L 82.608219 113.257549 
L 82.913192 113.870171 
L 83.828113 113.870171 
L 84.133087 114.482793 
L 85.048007 114.482793 
L 85.352981 115.095416 
L 86.267902 115.095416 
L 86.572875 115.708038 
L 87.487796 115.708038 
L 87.79277 116.32066 
L 88.70769 116.32066 
L 89.012664 116.933282 
L 90.232558 116.933282 
L 90.537532 117.545904 
L 91.452453 117.545904 
L 91.757426 118.158526 
L 92.672347 118.158526 
L 92.97732 118.771148 
L 93.892241 118.771148 
L 94.197215 119.38377 
L 95.417109 119.38377 
L 95.722083 119.996392 
L 96.637003 119.996392 
L 96.941977 120.609014 
L 98.161871 120.609014 
L 98.466845 121.221636 
L 99.381766 121.221636 
L 99.686739 121.834259 
L 100.906634 121.834259 
L 101.211607 122.446881 
L 102.126528 122.446881 
L 102.431502 123.059503 
L 103.651396 123.059503 
L 103.956369 123.672125 
L 105.176264 123.672125 
L 105.481237 124.284747 
L 106.396158 124.284747 
L 106.701132 124.897369 
L 107.921026 124.897369 
L 108.226 125.509991 
L 109.445894 125.509991 
L 109.750868 126.122613 
L 110.970762 126.122613 
L 111.275735 126.735235 
L 112.49563 126.735235 
L 112.800603 127.347857 
L 114.020498 127.347857 
L 114.325471 127.960479 
L 115.545366 127.960479 
L 115.850339 128.573102 
L 117.070234 128.573102 
L 117.375207 129.185724 
L 118.595101 129.185724 
L 118.900075 129.798346 
L 120.119969 129.798346 
L 120.424943 130.410968 
L 121.644837 130.410968 
L 121.949811 131.02359 
L 123.169705 131.02359 
L 123.474679 131.636212 
L 124.694573 131.636212 
L 124.999547 132.248834 
L 126.524415 132.248834 
L 126.829388 132.861456 
L 128.049283 132.861456 
L 128.354256 133.474078 
L 129.879124 133.474078 
L 130.184098 134.0867 
L 131.403992 134.0867 
L 131.708966 134.699322 
L 132.92886 134.699322 
L 133.233833 135.311944 
L 134.758701 135.311944 
L 135.063675 135.924567 
L 136.588543 135.924567 
L 136.893516 136.537189 
L 138.113411 136.537189 
L 138.418384 137.149811 
L 139.943252 137.149811 
L 140.248226 137.762433 
L 141.773094 137.762433 
L 142.078067 138.375055 
L 143.297962 138.375055 
L 143.602935 138.987677 
L 145.127803 138.987677 
L 145.432777 139.600299 
L 146.957645 139.600299 
L 147.262618 140.212921 
L 148.787486 140.212921 
L 149.09246 140.825543 
L 150.617328 140.825543 
L 150.922301 141.438165 
L 152.447169 141.438165 
L 152.752143 142.050787 
L 154.277011 142.050787 
L 154.581984 142.66341 
L 156.106852 142.66341 
L 156.411826 143.276032 
L 157.936694 143.276032 
L 158.241667 143.888654 
L 159.766535 143.888654 
L 160.071509 144.501276 
L 161.596377 144.501276 
L 161.90135 145.113898 
L 163.426218 145.113898 
L 163.731192 145.72652 
L 165.561033 145.72652 
L 165.866007 146.339142 
L 167.390875 146.339142 
L 167.695848 146.951764 
L 169.220716 146.951764 
L 169.52569 147.564386 
L 171.355531 147.564386 
L 171.660505 148.177008 
L 173.185373 148.177008 
L 173.490346 148.78963 
L 175.320188 148.78963 
L 175.625162 149.402253 
L 177.150029 149.402253 
L 177.455003 150.014875 
L 179.284845 150.014875 
L 179.589818 150.627497 
L 181.114686 150.627497 
L 181.41966 151.240119 
L 183.249501 151.240119 
L 183.554475 151.852741 
L 185.384316 151.852741 
L 185.68929 152.465363 
L 187.214158 152.465363 
L 187.519131 153.077985 
L 189.348973 153.077985 
L 189.653946 153.690607 
L 191.483788 153.690607 
L 191.788762 154.303229 
L 193.618603 154.303229 
L 193.923577 154.915851 
L 195.448445 154.915851 
L 195.753418 155.528473 
L 197.58326 155.528473 
L 197.888233 156.141096 
L 199.718075 156.141096 
L 200.023048 156.753718 
L 201.242943 156.753718 
L 201.547916 157.36634 
L 201.85289 157.36634 
L 202.157863 157.978962 
L 202.462837 157.978962 
L 202.767811 159.204206 
L 203.072784 159.204206 
L 203.072784 159.204206 
" clip-path="url(#p0ec1186e53)" style="fill: none; stroke: #35b779; stroke-width: 1.5; stroke-linecap: square"/>
   </g>
   <g id="line2d_22">
    <path d="M 57.905358 97.329375 
L 58.820279 95.491509 
L 59.125253 95.491509 
L 59.430226 94.878887 
L 59.7352 94.878887 
L 60.040173 94.266265 
L 60.650121 94.266265 
L 60.955094 93.653642 
L 61.565041 93.653642 
L 61.870015 93.04102 
L 62.479962 93.04102 
L 62.784936 92.428398 
L 63.394883 92.428398 
L 63.699856 91.815776 
L 64.309804 91.815776 
L 64.614777 91.203154 
L 65.224724 91.203154 
L 65.529698 90.590532 
L 66.139645 90.590532 
L 66.444619 89.97791 
L 67.054566 89.97791 
L 67.359539 89.365288 
L 68.27446 89.365288 
L 68.579434 88.752666 
L 69.189381 88.752666 
L 69.494355 88.140044 
L 70.104302 88.140044 
L 70.409275 87.527422 
L 71.324196 87.527422 
L 71.62917 86.914799 
L 72.239117 86.914799 
L 72.54409 86.302177 
L 73.459011 86.302177 
L 73.763985 85.689555 
L 74.678905 85.689555 
L 74.983879 85.076933 
L 75.593826 85.076933 
L 75.8988 84.464311 
L 76.813721 84.464311 
L 77.118694 83.851689 
L 78.033615 83.851689 
L 78.338588 83.239067 
L 78.948536 83.239067 
L 79.253509 82.626445 
L 80.16843 82.626445 
L 80.473404 82.013823 
L 81.388324 82.013823 
L 81.693298 81.401201 
L 82.608219 81.401201 
L 82.913192 80.788579 
L 83.828113 80.788579 
L 84.133087 80.175957 
L 85.048007 80.175957 
L 85.352981 79.563334 
L 86.267902 79.563334 
L 86.572875 78.950712 
L 87.487796 78.950712 
L 87.79277 78.33809 
L 88.70769 78.33809 
L 89.012664 77.725468 
L 90.232558 77.725468 
L 90.537532 77.112846 
L 91.452453 77.112846 
L 91.757426 76.500224 
L 92.672347 76.500224 
L 92.97732 75.887602 
L 93.892241 75.887602 
L 94.197215 75.27498 
L 95.417109 75.27498 
L 95.722083 74.662358 
L 96.637003 74.662358 
L 96.941977 74.049736 
L 98.161871 74.049736 
L 98.466845 73.437114 
L 99.381766 73.437114 
L 99.686739 72.824491 
L 100.906634 72.824491 
L 101.211607 72.211869 
L 102.126528 72.211869 
L 102.431502 71.599247 
L 103.651396 71.599247 
L 103.956369 70.986625 
L 105.176264 70.986625 
L 105.481237 70.374003 
L 106.396158 70.374003 
L 106.701132 69.761381 
L 107.921026 69.761381 
L 108.226 69.148759 
L 109.445894 69.148759 
L 109.750868 68.536137 
L 110.970762 68.536137 
L 111.275735 67.923515 
L 112.49563 67.923515 
L 112.800603 67.310893 
L 114.020498 67.310893 
L 114.325471 66.698271 
L 115.545366 66.698271 
L 115.850339 66.085648 
L 117.070234 66.085648 
L 117.375207 65.473026 
L 118.595101 65.473026 
L 118.900075 64.860404 
L 120.119969 64.860404 
L 120.424943 64.247782 
L 121.644837 64.247782 
L 121.949811 63.63516 
L 123.169705 63.63516 
L 123.474679 63.022538 
L 124.694573 63.022538 
L 124.999547 62.409916 
L 126.524415 62.409916 
L 126.829388 61.797294 
L 128.049283 61.797294 
L 128.354256 61.184672 
L 129.879124 61.184672 
L 130.184098 60.57205 
L 131.403992 60.57205 
L 131.708966 59.959428 
L 132.92886 59.959428 
L 133.233833 59.346806 
L 134.758701 59.346806 
L 135.063675 58.734183 
L 136.588543 58.734183 
L 136.893516 58.121561 
L 138.113411 58.121561 
L 138.418384 57.508939 
L 139.943252 57.508939 
L 140.248226 56.896317 
L 141.773094 56.896317 
L 142.078067 56.283695 
L 143.297962 56.283695 
L 143.602935 55.671073 
L 145.127803 55.671073 
L 145.432777 55.058451 
L 146.957645 55.058451 
L 147.262618 54.445829 
L 148.787486 54.445829 
L 149.09246 53.833207 
L 150.617328 53.833207 
L 150.922301 53.220585 
L 152.447169 53.220585 
L 152.752143 52.607963 
L 154.277011 52.607963 
L 154.581984 51.99534 
L 156.106852 51.99534 
L 156.411826 51.382718 
L 157.936694 51.382718 
L 158.241667 50.770096 
L 159.766535 50.770096 
L 160.071509 50.157474 
L 161.596377 50.157474 
L 161.90135 49.544852 
L 163.426218 49.544852 
L 163.731192 48.93223 
L 165.561033 48.93223 
L 165.866007 48.319608 
L 167.390875 48.319608 
L 167.695848 47.706986 
L 169.220716 47.706986 
L 169.52569 47.094364 
L 171.355531 47.094364 
L 171.660505 46.481742 
L 173.185373 46.481742 
L 173.490346 45.86912 
L 175.320188 45.86912 
L 175.625162 45.256497 
L 177.150029 45.256497 
L 177.455003 44.643875 
L 179.284845 44.643875 
L 179.589818 44.031253 
L 181.114686 44.031253 
L 181.41966 43.418631 
L 183.249501 43.418631 
L 183.554475 42.806009 
L 185.384316 42.806009 
L 185.68929 42.193387 
L 187.214158 42.193387 
L 187.519131 41.580765 
L 189.348973 41.580765 
L 189.653946 40.968143 
L 191.483788 40.968143 
L 191.788762 40.355521 
L 193.618603 40.355521 
L 193.923577 39.742899 
L 195.448445 39.742899 
L 195.753418 39.130277 
L 197.58326 39.130277 
L 197.888233 38.517654 
L 199.718075 38.517654 
L 200.023048 37.905032 
L 201.242943 37.905032 
L 201.547916 37.29241 
L 201.85289 37.29241 
L 202.157863 36.679788 
L 202.462837 36.679788 
L 202.767811 35.454544 
L 203.072784 35.454544 
L 203.072784 35.454544 
" clip-path="url(#p0ec1186e53)" style="fill: none; stroke: #35b779; stroke-width: 1.5; stroke-linecap: square"/>
   </g>
   <g id="line2d_23">
    <path d="M 50.890966 70.986625 
L 51.500913 70.986625 
L 51.805887 70.374003 
L 52.415834 70.374003 
L 52.720807 69.761381 
L 53.025781 69.761381 
L 53.330755 69.148759 
L 53.940702 69.148759 
L 54.245675 68.536137 
L 54.855622 68.536137 
L 55.160596 67.923515 
L 55.770543 67.923515 
L 56.075517 67.310893 
L 56.990438 67.310893 
L 57.295411 66.698271 
L 57.905358 66.698271 
L 58.210332 66.085648 
L 59.125253 66.085648 
L 59.430226 65.473026 
L 60.345147 65.473026 
L 60.650121 64.860404 
L 61.870015 64.860404 
L 62.174988 64.247782 
L 63.394883 64.247782 
L 63.699856 63.63516 
L 64.919751 63.63516 
L 65.224724 63.022538 
L 66.444619 63.022538 
L 66.749592 62.409916 
L 68.27446 62.409916 
L 68.579434 61.797294 
L 70.104302 61.797294 
L 70.409275 61.184672 
L 71.934143 61.184672 
L 72.239117 60.57205 
L 73.763985 60.57205 
L 74.068958 59.959428 
L 75.593826 59.959428 
L 75.8988 59.346806 
L 77.728641 59.346806 
L 78.033615 58.734183 
L 79.558483 58.734183 
L 79.863456 58.121561 
L 81.388324 58.121561 
L 81.693298 57.508939 
L 83.523139 57.508939 
L 83.828113 56.896317 
L 85.352981 56.896317 
L 85.657954 56.283695 
L 87.182822 56.283695 
L 87.487796 55.671073 
L 89.317637 55.671073 
L 89.622611 55.058451 
L 91.147479 55.058451 
L 91.452453 54.445829 
L 92.97732 54.445829 
L 93.282294 53.833207 
L 95.112136 53.833207 
L 95.417109 53.220585 
L 96.941977 53.220585 
L 97.246951 52.607963 
L 99.076792 52.607963 
L 99.381766 51.99534 
L 100.906634 51.99534 
L 101.211607 51.382718 
L 103.041449 51.382718 
L 103.346422 50.770096 
L 104.87129 50.770096 
L 105.176264 50.157474 
L 107.006105 50.157474 
L 107.311079 49.544852 
L 108.835947 49.544852 
L 109.14092 48.93223 
L 110.970762 48.93223 
L 111.275735 48.319608 
L 112.800603 48.319608 
L 113.105577 47.706986 
L 114.935418 47.706986 
L 115.240392 47.094364 
L 116.76526 47.094364 
L 117.070234 46.481742 
L 118.900075 46.481742 
L 119.205049 45.86912 
L 121.03489 45.86912 
L 121.339864 45.256497 
L 122.864732 45.256497 
L 123.169705 44.643875 
L 124.999547 44.643875 
L 125.30452 44.031253 
L 127.134362 44.031253 
L 127.439335 43.418631 
L 128.964203 43.418631 
L 129.269177 42.806009 
L 131.099018 42.806009 
L 131.403992 42.193387 
L 133.233833 42.193387 
L 133.538807 41.580765 
L 135.368649 41.580765 
L 135.673622 40.968143 
L 137.19849 40.968143 
L 137.503464 40.355521 
L 139.333305 40.355521 
L 139.638279 39.742899 
L 141.46812 39.742899 
L 141.773094 39.130277 
L 143.602935 39.130277 
L 143.907909 38.517654 
L 145.73775 38.517654 
L 146.042724 37.905032 
L 147.567592 37.905032 
L 147.872565 37.29241 
L 149.702407 37.29241 
L 150.007381 36.679788 
L 151.837222 36.679788 
L 152.142196 36.067166 
L 153.972037 36.067166 
L 154.277011 35.454544 
L 156.106852 35.454544 
L 156.411826 34.841922 
L 158.241667 34.841922 
L 158.546641 34.2293 
L 160.376482 34.2293 
L 160.681456 33.616678 
L 162.511297 33.616678 
L 162.816271 33.004056 
L 164.646113 33.004056 
L 164.951086 32.391434 
L 166.780928 32.391434 
L 167.085901 31.778812 
L 169.220716 31.778812 
L 169.52569 31.166189 
L 171.355531 31.166189 
L 171.660505 30.553567 
L 173.490346 30.553567 
L 173.79532 29.940945 
L 175.625162 29.940945 
L 175.930135 29.328323 
L 177.759977 29.328323 
L 178.06495 28.715701 
L 179.894792 28.715701 
L 180.199765 28.103079 
L 182.33458 28.103079 
L 182.639554 27.490457 
L 184.469395 27.490457 
L 184.774369 26.877835 
L 186.604211 26.877835 
L 186.909184 26.265213 
L 189.043999 26.265213 
L 189.348973 25.652591 
L 191.178814 25.652591 
L 191.483788 25.039969 
L 193.313629 25.039969 
L 193.618603 24.427346 
L 195.753418 24.427346 
L 196.058392 23.814724 
L 197.888233 23.814724 
L 198.193207 23.202102 
L 202.462837 23.202102 
L 202.767811 23.814724 
L 203.072784 23.814724 
L 203.072784 23.814724 
" clip-path="url(#p0ec1186e53)" style="fill: none; stroke-dasharray: 5.55,2.4; stroke-dashoffset: 0; stroke: #fde725; stroke-width: 1.5"/>
   </g>
   <g id="line2d_24">
    <path d="M 50.890966 123.672125 
L 51.500913 123.672125 
L 51.805887 124.284747 
L 52.415834 124.284747 
L 52.720807 124.897369 
L 53.025781 124.897369 
L 53.330755 125.509991 
L 53.940702 125.509991 
L 54.245675 126.122613 
L 54.855622 126.122613 
L 55.160596 126.735235 
L 55.770543 126.735235 
L 56.075517 127.347857 
L 56.990438 127.347857 
L 57.295411 127.960479 
L 57.905358 127.960479 
L 58.210332 128.573102 
L 59.125253 128.573102 
L 59.430226 129.185724 
L 60.345147 129.185724 
L 60.650121 129.798346 
L 61.870015 129.798346 
L 62.174988 130.410968 
L 63.394883 130.410968 
L 63.699856 131.02359 
L 64.919751 131.02359 
L 65.224724 131.636212 
L 66.444619 131.636212 
L 66.749592 132.248834 
L 68.27446 132.248834 
L 68.579434 132.861456 
L 70.104302 132.861456 
L 70.409275 133.474078 
L 71.934143 133.474078 
L 72.239117 134.0867 
L 73.763985 134.0867 
L 74.068958 134.699322 
L 75.593826 134.699322 
L 75.8988 135.311944 
L 77.728641 135.311944 
L 78.033615 135.924567 
L 79.558483 135.924567 
L 79.863456 136.537189 
L 81.388324 136.537189 
L 81.693298 137.149811 
L 83.523139 137.149811 
L 83.828113 137.762433 
L 85.352981 137.762433 
L 85.657954 138.375055 
L 87.182822 138.375055 
L 87.487796 138.987677 
L 89.317637 138.987677 
L 89.622611 139.600299 
L 91.147479 139.600299 
L 91.452453 140.212921 
L 92.97732 140.212921 
L 93.282294 140.825543 
L 95.112136 140.825543 
L 95.417109 141.438165 
L 96.941977 141.438165 
L 97.246951 142.050787 
L 99.076792 142.050787 
L 99.381766 142.66341 
L 100.906634 142.66341 
L 101.211607 143.276032 
L 103.041449 143.276032 
L 103.346422 143.888654 
L 104.87129 143.888654 
L 105.176264 144.501276 
L 107.006105 144.501276 
L 107.311079 145.113898 
L 108.835947 145.113898 
L 109.14092 145.72652 
L 110.970762 145.72652 
L 111.275735 146.339142 
L 112.800603 146.339142 
L 113.105577 146.951764 
L 114.935418 146.951764 
L 115.240392 147.564386 
L 116.76526 147.564386 
L 117.070234 148.177008 
L 118.900075 148.177008 
L 119.205049 148.78963 
L 121.03489 148.78963 
L 121.339864 149.402253 
L 122.864732 149.402253 
L 123.169705 150.014875 
L 124.999547 150.014875 
L 125.30452 150.627497 
L 127.134362 150.627497 
L 127.439335 151.240119 
L 128.964203 151.240119 
L 129.269177 151.852741 
L 131.099018 151.852741 
L 131.403992 152.465363 
L 133.233833 152.465363 
L 133.538807 153.077985 
L 135.368649 153.077985 
L 135.673622 153.690607 
L 137.19849 153.690607 
L 137.503464 154.303229 
L 139.333305 154.303229 
L 139.638279 154.915851 
L 141.46812 154.915851 
L 141.773094 155.528473 
L 143.602935 155.528473 
L 143.907909 156.141096 
L 145.73775 156.141096 
L 146.042724 156.753718 
L 147.567592 156.753718 
L 147.872565 157.36634 
L 149.702407 157.36634 
L 150.007381 157.978962 
L 151.837222 157.978962 
L 152.142196 158.591584 
L 153.972037 158.591584 
L 154.277011 159.204206 
L 156.106852 159.204206 
L 156.411826 159.816828 
L 158.241667 159.816828 
L 158.546641 160.42945 
L 160.376482 160.42945 
L 160.681456 161.042072 
L 162.511297 161.042072 
L 162.816271 161.654694 
L 164.646113 161.654694 
L 164.951086 162.267316 
L 166.780928 162.267316 
L 167.085901 162.879938 
L 169.220716 162.879938 
L 169.52569 163.492561 
L 171.355531 163.492561 
L 171.660505 164.105183 
L 173.490346 164.105183 
L 173.79532 164.717805 
L 175.625162 164.717805 
L 175.930135 165.330427 
L 177.759977 165.330427 
L 178.06495 165.943049 
L 179.894792 165.943049 
L 180.199765 166.555671 
L 182.33458 166.555671 
L 182.639554 167.168293 
L 184.469395 167.168293 
L 184.774369 167.780915 
L 186.604211 167.780915 
L 186.909184 168.393537 
L 189.043999 168.393537 
L 189.348973 169.006159 
L 191.178814 169.006159 
L 191.483788 169.618781 
L 193.313629 169.618781 
L 193.618603 170.231404 
L 195.753418 170.231404 
L 196.058392 170.844026 
L 197.888233 170.844026 
L 198.193207 171.456648 
L 202.462837 171.456648 
L 202.767811 170.844026 
L 203.072784 170.844026 
L 203.072784 170.844026 
" clip-path="url(#p0ec1186e53)" style="fill: none; stroke-dasharray: 5.55,2.4; stroke-dashoffset: 0; stroke: #fde725; stroke-width: 1.5"/>
   </g>
   <g id="line2d_25">
    <path d="M 56.685464 97.329375 
L 56.990438 98.554619 
L 57.295411 98.554619 
L 57.600385 99.167241 
L 57.905358 99.167241 
L 58.210332 99.779863 
L 58.515305 99.779863 
L 58.820279 100.392485 
L 59.125253 100.392485 
L 59.430226 101.005108 
L 59.7352 101.005108 
L 60.040173 101.61773 
L 60.650121 101.61773 
L 60.955094 102.230352 
L 61.260068 102.230352 
L 61.565041 102.842974 
L 62.174988 102.842974 
L 62.479962 103.455596 
L 63.089909 103.455596 
L 63.394883 104.068218 
L 64.00483 104.068218 
L 64.309804 104.68084 
L 64.614777 104.68084 
L 64.919751 105.293462 
L 65.529698 105.293462 
L 65.834672 105.906084 
L 66.444619 105.906084 
L 66.749592 106.518706 
L 67.359539 106.518706 
L 67.664513 107.131328 
L 68.27446 107.131328 
L 68.579434 107.743951 
L 69.494355 107.743951 
L 69.799328 108.356573 
L 70.409275 108.356573 
L 70.714249 108.969195 
L 71.324196 108.969195 
L 71.62917 109.581817 
L 72.239117 109.581817 
L 72.54409 110.194439 
L 73.154038 110.194439 
L 73.459011 110.807061 
L 74.373932 110.807061 
L 74.678905 111.419683 
L 75.288853 111.419683 
L 75.593826 112.032305 
L 76.508747 112.032305 
L 76.813721 112.644927 
L 77.423668 112.644927 
L 77.728641 113.257549 
L 78.643562 113.257549 
L 78.948536 113.870171 
L 79.558483 113.870171 
L 79.863456 114.482793 
L 80.778377 114.482793 
L 81.083351 115.095416 
L 81.693298 115.095416 
L 81.998271 115.708038 
L 82.913192 115.708038 
L 83.218166 116.32066 
L 84.133087 116.32066 
L 84.43806 116.933282 
L 85.048007 116.933282 
L 85.352981 117.545904 
L 86.267902 117.545904 
L 86.572875 118.158526 
L 87.487796 118.158526 
L 87.79277 118.771148 
L 88.70769 118.771148 
L 89.012664 119.38377 
L 89.927585 119.38377 
L 90.232558 119.996392 
L 90.842505 119.996392 
L 91.147479 120.609014 
L 92.0624 120.609014 
L 92.367373 121.221636 
L 93.282294 121.221636 
L 93.587268 121.834259 
L 94.502188 121.834259 
L 94.807162 122.446881 
L 95.722083 122.446881 
L 96.027056 123.059503 
L 97.246951 123.059503 
L 97.551924 123.672125 
L 98.466845 123.672125 
L 98.771819 124.284747 
L 99.686739 124.284747 
L 99.991713 124.897369 
L 100.906634 124.897369 
L 101.211607 125.509991 
L 102.126528 125.509991 
L 102.431502 126.122613 
L 103.651396 126.122613 
L 103.956369 126.735235 
L 104.87129 126.735235 
L 105.176264 127.347857 
L 106.091185 127.347857 
L 106.396158 127.960479 
L 107.616052 127.960479 
L 107.921026 128.573102 
L 108.835947 128.573102 
L 109.14092 129.185724 
L 110.055841 129.185724 
L 110.360815 129.798346 
L 111.580709 129.798346 
L 111.885683 130.410968 
L 112.800603 130.410968 
L 113.105577 131.02359 
L 114.325471 131.02359 
L 114.630445 131.636212 
L 115.850339 131.636212 
L 116.155313 132.248834 
L 117.070234 132.248834 
L 117.375207 132.861456 
L 118.595101 132.861456 
L 118.900075 133.474078 
L 120.119969 133.474078 
L 120.424943 134.0867 
L 121.339864 134.0867 
L 121.644837 134.699322 
L 122.864732 134.699322 
L 123.169705 135.311944 
L 124.3896 135.311944 
L 124.694573 135.924567 
L 125.914467 135.924567 
L 126.219441 136.537189 
L 127.439335 136.537189 
L 127.744309 137.149811 
L 128.964203 137.149811 
L 129.269177 137.762433 
L 130.489071 137.762433 
L 130.794045 138.375055 
L 132.013939 138.375055 
L 132.318913 138.987677 
L 133.538807 138.987677 
L 133.843781 139.600299 
L 135.063675 139.600299 
L 135.368649 140.212921 
L 136.588543 140.212921 
L 136.893516 140.825543 
L 138.113411 140.825543 
L 138.418384 141.438165 
L 139.943252 141.438165 
L 140.248226 142.050787 
L 141.46812 142.050787 
L 141.773094 142.66341 
L 142.992988 142.66341 
L 143.297962 143.276032 
L 144.517856 143.276032 
L 144.82283 143.888654 
L 146.347698 143.888654 
L 146.652671 144.501276 
L 147.872565 144.501276 
L 148.177539 145.113898 
L 149.702407 145.113898 
L 150.007381 145.72652 
L 151.227275 145.72652 
L 151.532248 146.339142 
L 152.752143 146.339142 
L 153.057116 146.951764 
L 154.581984 146.951764 
L 154.886958 147.564386 
L 156.411826 147.564386 
L 156.716799 148.177008 
L 157.936694 148.177008 
L 158.241667 148.78963 
L 159.766535 148.78963 
L 160.071509 149.402253 
L 161.291403 149.402253 
L 161.596377 150.014875 
L 163.121245 150.014875 
L 163.426218 150.627497 
L 164.951086 150.627497 
L 165.25606 151.240119 
L 166.780928 151.240119 
L 167.085901 151.852741 
L 168.610769 151.852741 
L 168.915743 152.465363 
L 170.135637 152.465363 
L 170.440611 153.077985 
L 171.965479 153.077985 
L 172.270452 153.690607 
L 173.79532 153.690607 
L 174.100294 154.303229 
L 175.625162 154.303229 
L 175.930135 154.915851 
L 177.455003 154.915851 
L 177.759977 155.528473 
L 179.284845 155.528473 
L 179.589818 156.141096 
L 181.114686 156.141096 
L 181.41966 156.753718 
L 182.944528 156.753718 
L 183.249501 157.36634 
L 184.774369 157.36634 
L 185.079343 157.978962 
L 186.909184 157.978962 
L 187.214158 158.591584 
L 188.739026 158.591584 
L 189.043999 159.204206 
L 190.568867 159.204206 
L 190.873841 159.816828 
L 192.398709 159.816828 
L 192.703682 160.42945 
L 194.22855 160.42945 
L 194.533524 161.042072 
L 196.363365 161.042072 
L 196.668339 161.654694 
L 198.193207 161.654694 
L 198.49818 162.267316 
L 200.023048 162.267316 
L 200.328022 162.879938 
L 201.242943 162.879938 
L 201.547916 163.492561 
L 201.85289 163.492561 
L 202.767811 165.330427 
L 203.072784 165.330427 
L 203.072784 165.330427 
" clip-path="url(#p0ec1186e53)" style="fill: none; stroke: #fde725; stroke-width: 1.5; stroke-linecap: square"/>
   </g>
   <g id="line2d_26">
    <path d="M 56.685464 97.329375 
L 56.990438 96.104131 
L 57.295411 96.104131 
L 57.600385 95.491509 
L 57.905358 95.491509 
L 58.210332 94.878887 
L 58.515305 94.878887 
L 58.820279 94.266265 
L 59.125253 94.266265 
L 59.430226 93.653642 
L 59.7352 93.653642 
L 60.040173 93.04102 
L 60.650121 93.04102 
L 60.955094 92.428398 
L 61.260068 92.428398 
L 61.565041 91.815776 
L 62.174988 91.815776 
L 62.479962 91.203154 
L 63.089909 91.203154 
L 63.394883 90.590532 
L 64.00483 90.590532 
L 64.309804 89.97791 
L 64.614777 89.97791 
L 64.919751 89.365288 
L 65.529698 89.365288 
L 65.834672 88.752666 
L 66.444619 88.752666 
L 66.749592 88.140044 
L 67.359539 88.140044 
L 67.664513 87.527422 
L 68.27446 87.527422 
L 68.579434 86.914799 
L 69.494355 86.914799 
L 69.799328 86.302177 
L 70.409275 86.302177 
L 70.714249 85.689555 
L 71.324196 85.689555 
L 71.62917 85.076933 
L 72.239117 85.076933 
L 72.54409 84.464311 
L 73.154038 84.464311 
L 73.459011 83.851689 
L 74.373932 83.851689 
L 74.678905 83.239067 
L 75.288853 83.239067 
L 75.593826 82.626445 
L 76.508747 82.626445 
L 76.813721 82.013823 
L 77.423668 82.013823 
L 77.728641 81.401201 
L 78.643562 81.401201 
L 78.948536 80.788579 
L 79.558483 80.788579 
L 79.863456 80.175957 
L 80.778377 80.175957 
L 81.083351 79.563334 
L 81.693298 79.563334 
L 81.998271 78.950712 
L 82.913192 78.950712 
L 83.218166 78.33809 
L 84.133087 78.33809 
L 84.43806 77.725468 
L 85.048007 77.725468 
L 85.352981 77.112846 
L 86.267902 77.112846 
L 86.572875 76.500224 
L 87.487796 76.500224 
L 87.79277 75.887602 
L 88.70769 75.887602 
L 89.012664 75.27498 
L 89.927585 75.27498 
L 90.232558 74.662358 
L 90.842505 74.662358 
L 91.147479 74.049736 
L 92.0624 74.049736 
L 92.367373 73.437114 
L 93.282294 73.437114 
L 93.587268 72.824491 
L 94.502188 72.824491 
L 94.807162 72.211869 
L 95.722083 72.211869 
L 96.027056 71.599247 
L 97.246951 71.599247 
L 97.551924 70.986625 
L 98.466845 70.986625 
L 98.771819 70.374003 
L 99.686739 70.374003 
L 99.991713 69.761381 
L 100.906634 69.761381 
L 101.211607 69.148759 
L 102.126528 69.148759 
L 102.431502 68.536137 
L 103.651396 68.536137 
L 103.956369 67.923515 
L 104.87129 67.923515 
L 105.176264 67.310893 
L 106.091185 67.310893 
L 106.396158 66.698271 
L 107.616052 66.698271 
L 107.921026 66.085648 
L 108.835947 66.085648 
L 109.14092 65.473026 
L 110.055841 65.473026 
L 110.360815 64.860404 
L 111.580709 64.860404 
L 111.885683 64.247782 
L 112.800603 64.247782 
L 113.105577 63.63516 
L 114.325471 63.63516 
L 114.630445 63.022538 
L 115.850339 63.022538 
L 116.155313 62.409916 
L 117.070234 62.409916 
L 117.375207 61.797294 
L 118.595101 61.797294 
L 118.900075 61.184672 
L 120.119969 61.184672 
L 120.424943 60.57205 
L 121.339864 60.57205 
L 121.644837 59.959428 
L 122.864732 59.959428 
L 123.169705 59.346806 
L 124.3896 59.346806 
L 124.694573 58.734183 
L 125.914467 58.734183 
L 126.219441 58.121561 
L 127.439335 58.121561 
L 127.744309 57.508939 
L 128.964203 57.508939 
L 129.269177 56.896317 
L 130.489071 56.896317 
L 130.794045 56.283695 
L 132.013939 56.283695 
L 132.318913 55.671073 
L 133.538807 55.671073 
L 133.843781 55.058451 
L 135.063675 55.058451 
L 135.368649 54.445829 
L 136.588543 54.445829 
L 136.893516 53.833207 
L 138.113411 53.833207 
L 138.418384 53.220585 
L 139.943252 53.220585 
L 140.248226 52.607963 
L 141.46812 52.607963 
L 141.773094 51.99534 
L 142.992988 51.99534 
L 143.297962 51.382718 
L 144.517856 51.382718 
L 144.82283 50.770096 
L 146.347698 50.770096 
L 146.652671 50.157474 
L 147.872565 50.157474 
L 148.177539 49.544852 
L 149.702407 49.544852 
L 150.007381 48.93223 
L 151.227275 48.93223 
L 151.532248 48.319608 
L 152.752143 48.319608 
L 153.057116 47.706986 
L 154.581984 47.706986 
L 154.886958 47.094364 
L 156.411826 47.094364 
L 156.716799 46.481742 
L 157.936694 46.481742 
L 158.241667 45.86912 
L 159.766535 45.86912 
L 160.071509 45.256497 
L 161.291403 45.256497 
L 161.596377 44.643875 
L 163.121245 44.643875 
L 163.426218 44.031253 
L 164.951086 44.031253 
L 165.25606 43.418631 
L 166.780928 43.418631 
L 167.085901 42.806009 
L 168.610769 42.806009 
L 168.915743 42.193387 
L 170.135637 42.193387 
L 170.440611 41.580765 
L 171.965479 41.580765 
L 172.270452 40.968143 
L 173.79532 40.968143 
L 174.100294 40.355521 
L 175.625162 40.355521 
L 175.930135 39.742899 
L 177.455003 39.742899 
L 177.759977 39.130277 
L 179.284845 39.130277 
L 179.589818 38.517654 
L 181.114686 38.517654 
L 181.41966 37.905032 
L 182.944528 37.905032 
L 183.249501 37.29241 
L 184.774369 37.29241 
L 185.079343 36.679788 
L 186.909184 36.679788 
L 187.214158 36.067166 
L 188.739026 36.067166 
L 189.043999 35.454544 
L 190.568867 35.454544 
L 190.873841 34.841922 
L 192.398709 34.841922 
L 192.703682 34.2293 
L 194.22855 34.2293 
L 194.533524 33.616678 
L 196.363365 33.616678 
L 196.668339 33.004056 
L 198.193207 33.004056 
L 198.49818 32.391434 
L 200.023048 32.391434 
L 200.328022 31.778812 
L 201.242943 31.778812 
L 201.547916 31.166189 
L 201.85289 31.166189 
L 202.767811 29.328323 
L 203.072784 29.328323 
L 203.072784 29.328323 
" clip-path="url(#p0ec1186e53)" style="fill: none; stroke: #fde725; stroke-width: 1.5; stroke-linecap: square"/>
   </g>
   <g id="patch_3">
    <path d="M 43.281875 178.869375 
L 43.281875 15.789375 
" style="fill: none; stroke: #000000; stroke-width: 0.8; stroke-linejoin: miter; stroke-linecap: square"/>
   </g>
   <g id="patch_4">
    <path d="M 43.281875 178.869375 
L 210.681875 178.869375 
" style="fill: none; stroke: #000000; stroke-width: 0.8; stroke-linejoin: miter; stroke-linecap: square"/>
   </g>
   <g id="text_9">
    <!-- D -->
    <g transform="translate(18.171875 15.789375)scale(0.12 -0.12)">
     <defs>
      <path id="Arial-BoldMT-44" d="M 463 4581 
L 2153 4581 
Q 2725 4581 3025 4494 
Q 3428 4375 3715 4072 
Q 4003 3769 4153 3330 
Q 4303 2891 4303 2247 
Q 4303 1681 4163 1272 
Q 3991 772 3672 463 
Q 3431 228 3022 97 
Q 2716 0 2203 0 
L 463 0 
L 463 4581 
z
M 1388 3806 
L 1388 772 
L 2078 772 
Q 2466 772 2638 816 
Q 2863 872 3011 1006 
Q 3159 1141 3253 1448 
Q 3347 1756 3347 2288 
Q 3347 2819 3253 3103 
Q 3159 3388 2990 3547 
Q 2822 3706 2563 3763 
Q 2369 3806 1803 3806 
L 1388 3806 
z
" transform="scale(0.015625)"/>
     </defs>
     <use xlink:href="#Arial-BoldMT-44"/>
    </g>
   </g>
   <g id="legend_1">
    <g id="text_10">
     <!-- $\Delta R$ -->
     <g transform="translate(240.339688 35.17875)scale(0.12 -0.12)">
      <defs>
       <path id="DejaVuSans-394" d="M 2188 4044 
L 906 525 
L 3472 525 
L 2188 4044 
z
M 50 0 
L 1831 4666 
L 2547 4666 
L 4325 0 
L 50 0 
z
" transform="scale(0.015625)"/>
       <path id="DejaVuSans-Oblique-52" d="M 1613 4147 
L 1294 2491 
L 2106 2491 
Q 2584 2491 2879 2755 
Q 3175 3019 3175 3444 
Q 3175 3784 2976 3965 
Q 2778 4147 2406 4147 
L 1613 4147 
z
M 2772 2241 
Q 2972 2194 3105 2009 
Q 3238 1825 3413 1275 
L 3809 0 
L 3144 0 
L 2778 1197 
Q 2638 1659 2453 1815 
Q 2269 1972 1888 1972 
L 1191 1972 
L 806 0 
L 172 0 
L 1081 4666 
L 2503 4666 
Q 3150 4666 3495 4373 
Q 3841 4081 3841 3531 
Q 3841 3044 3547 2687 
Q 3253 2331 2772 2241 
z
" transform="scale(0.015625)"/>
      </defs>
      <use xlink:href="#DejaVuSans-394" transform="translate(0 0.09375)"/>
      <use xlink:href="#DejaVuSans-Oblique-52" transform="translate(68.408203 0.09375)"/>
     </g>
    </g>
    <g id="patch_5">
     <path d="M 221.481875 52.153125 
L 245.481875 52.153125 
L 245.481875 43.753125 
L 221.481875 43.753125 
z
" style="fill: #440154"/>
    </g>
    <g id="text_11">
     <!-- -3.0 -->
     <g transform="translate(255.081875 52.153125)scale(0.12 -0.12)">
      <defs>
       <path id="ArialMT-2d" d="M 203 1375 
L 203 1941 
L 1931 1941 
L 1931 1375 
L 203 1375 
z
" transform="scale(0.015625)"/>
       <path id="ArialMT-33" d="M 269 1209 
L 831 1284 
Q 928 806 1161 595 
Q 1394 384 1728 384 
Q 2125 384 2398 659 
Q 2672 934 2672 1341 
Q 2672 1728 2419 1979 
Q 2166 2231 1775 2231 
Q 1616 2231 1378 2169 
L 1441 2663 
Q 1497 2656 1531 2656 
Q 1891 2656 2178 2843 
Q 2466 3031 2466 3422 
Q 2466 3731 2256 3934 
Q 2047 4138 1716 4138 
Q 1388 4138 1169 3931 
Q 950 3725 888 3313 
L 325 3413 
Q 428 3978 793 4289 
Q 1159 4600 1703 4600 
Q 2078 4600 2393 4439 
Q 2709 4278 2876 4000 
Q 3044 3722 3044 3409 
Q 3044 3113 2884 2869 
Q 2725 2625 2413 2481 
Q 2819 2388 3044 2092 
Q 3269 1797 3269 1353 
Q 3269 753 2831 336 
Q 2394 -81 1725 -81 
Q 1122 -81 723 278 
Q 325 638 269 1209 
z
" transform="scale(0.015625)"/>
       <path id="ArialMT-2e" d="M 581 0 
L 581 641 
L 1222 641 
L 1222 0 
L 581 0 
z
" transform="scale(0.015625)"/>
      </defs>
      <use xlink:href="#ArialMT-2d"/>
      <use xlink:href="#ArialMT-33" x="33.300781"/>
      <use xlink:href="#ArialMT-2e" x="88.916016"/>
      <use xlink:href="#ArialMT-30" x="116.699219"/>
     </g>
    </g>
    <g id="patch_6">
     <path d="M 221.481875 69.1275 
L 245.481875 69.1275 
L 245.481875 60.7275 
L 221.481875 60.7275 
z
" style="fill: #31688e"/>
    </g>
    <g id="text_12">
     <!-- -1.0 -->
     <g transform="translate(255.081875 69.1275)scale(0.12 -0.12)">
      <use xlink:href="#ArialMT-2d"/>
      <use xlink:href="#ArialMT-31" x="33.300781"/>
      <use xlink:href="#ArialMT-2e" x="88.916016"/>
      <use xlink:href="#ArialMT-30" x="116.699219"/>
     </g>
    </g>
    <g id="patch_7">
     <path d="M 221.481875 86.101875 
L 245.481875 86.101875 
L 245.481875 77.701875 
L 221.481875 77.701875 
z
" style="fill: #21918c"/>
    </g>
    <g id="text_13">
     <!-- 0.0 -->
     <g transform="translate(255.081875 86.101875)scale(0.12 -0.12)">
      <use xlink:href="#ArialMT-30"/>
      <use xlink:href="#ArialMT-2e" x="55.615234"/>
      <use xlink:href="#ArialMT-30" x="83.398438"/>
     </g>
    </g>
    <g id="patch_8">
     <path d="M 221.481875 103.07625 
L 245.481875 103.07625 
L 245.481875 94.67625 
L 221.481875 94.67625 
z
" style="fill: #35b779"/>
    </g>
    <g id="text_14">
     <!-- 1.0 -->
     <g transform="translate(255.081875 103.07625)scale(0.12 -0.12)">
      <use xlink:href="#ArialMT-31"/>
      <use xlink:href="#ArialMT-2e" x="55.615234"/>
      <use xlink:href="#ArialMT-30" x="83.398438"/>
     </g>
    </g>
    <g id="patch_9">
     <path d="M 221.481875 120.050625 
L 245.481875 120.050625 
L 245.481875 111.650625 
L 221.481875 111.650625 
z
" style="fill: #fde725"/>
    </g>
    <g id="text_15">
     <!-- 3.0 -->
     <g transform="translate(255.081875 120.050625)scale(0.12 -0.12)">
      <use xlink:href="#ArialMT-33"/>
      <use xlink:href="#ArialMT-2e" x="55.615234"/>
      <use xlink:href="#ArialMT-30" x="83.398438"/>
     </g>
    </g>
   </g>
  </g>
 </g>
 <defs>
  <clipPath id="p0ec1186e53">
   <rect x="43.281875" y="15.789375" width="167.4" height="163.08"/>
  </clipPath>
 </defs>
</svg>
