<?xml version="1.0" encoding="utf-8" standalone="no"?>
<!DOCTYPE svg PUBLIC "-//W3C//DTD SVG 1.1//EN"
  "http://www.w3.org/Graphics/SVG/1.1/DTD/svg11.dtd">
<svg xmlns:xlink="http://www.w3.org/1999/xlink" width="287.7575pt" height="219.44375pt" viewBox="0 0 287.7575 219.44375" xmlns="http://www.w3.org/2000/svg" version="1.1">
 <metadata>
  <rdf:RDF xmlns:dc="http://purl.org/dc/elements/1.1/" xmlns:cc="http://creativecommons.org/ns#" xmlns:rdf="http://www.w3.org/1999/02/22-rdf-syntax-ns#">
   <cc:Work>
    <dc:type rdf:resource="http://purl.org/dc/dcmitype/StillImage"/>
    <dc:date>2023-02-15T17:54:44.170234</dc:date>
    <dc:format>image/svg+xml</dc:format>
    <dc:creator>
     <cc:Agent>
      <dc:title>Matplotlib v3.5.1, https://matplotlib.org/</dc:title>
     </cc:Agent>
    </dc:creator>
   </cc:Work>
  </rdf:RDF>
 </metadata>
 <defs>
  <style type="text/css">*{stroke-linejoin: round; stroke-linecap: butt}</style>
 </defs>
 <g id="figure_1">
  <g id="patch_1">
   <path d="M 0 219.44375 
L 287.7575 219.44375 
L 287.7575 0 
L 0 0 
L 0 219.44375 
z
" style="fill: none"/>
  </g>
  <g id="axes_1">
   <g id="patch_2">
    <path d="M 43.281875 178.869375 
L 210.681875 178.869375 
L 210.681875 15.789375 
L 43.281875 15.789375 
z
" style="fill: #ffffff"/>
   </g>
   <g id="matplotlib.axis_1">
    <g id="xtick_1">
     <g id="line2d_1">
      <defs>
       <path id="m4b8d421c1c" d="M 0 0 
L 0 3.5 
" style="stroke: #000000; stroke-width: 0.8"/>
      </defs>
      <g>
       <use xlink:href="#m4b8d421c1c" x="50.585992" y="178.869375" style="stroke: #000000; stroke-width: 0.8"/>
      </g>
     </g>
     <g id="text_1">
      <!-- 0 -->
      <g transform="translate(47.24943 194.45875)scale(0.12 -0.12)">
       <defs>
        <path id="ArialMT-30" d="M 266 2259 
Q 266 3072 433 3567 
Q 600 4063 929 4331 
Q 1259 4600 1759 4600 
Q 2128 4600 2406 4451 
Q 2684 4303 2865 4023 
Q 3047 3744 3150 3342 
Q 3253 2941 3253 2259 
Q 3253 1453 3087 958 
Q 2922 463 2592 192 
Q 2263 -78 1759 -78 
Q 1097 -78 719 397 
Q 266 969 266 2259 
z
M 844 2259 
Q 844 1131 1108 757 
Q 1372 384 1759 384 
Q 2147 384 2411 759 
Q 2675 1134 2675 2259 
Q 2675 3391 2411 3762 
Q 2147 4134 1753 4134 
Q 1366 4134 1134 3806 
Q 844 3388 844 2259 
z
" transform="scale(0.015625)"/>
       </defs>
       <use xlink:href="#ArialMT-30"/>
      </g>
     </g>
    </g>
    <g id="xtick_2">
     <g id="line2d_2">
      <g>
       <use xlink:href="#m4b8d421c1c" x="126.829388" y="178.869375" style="stroke: #000000; stroke-width: 0.8"/>
      </g>
     </g>
     <g id="text_2">
      <!-- 5 -->
      <g transform="translate(123.492826 194.45875)scale(0.12 -0.12)">
       <defs>
        <path id="ArialMT-35" d="M 266 1200 
L 856 1250 
Q 922 819 1161 601 
Q 1400 384 1738 384 
Q 2144 384 2425 690 
Q 2706 997 2706 1503 
Q 2706 1984 2436 2262 
Q 2166 2541 1728 2541 
Q 1456 2541 1237 2417 
Q 1019 2294 894 2097 
L 366 2166 
L 809 4519 
L 3088 4519 
L 3088 3981 
L 1259 3981 
L 1013 2750 
Q 1425 3038 1878 3038 
Q 2478 3038 2890 2622 
Q 3303 2206 3303 1553 
Q 3303 931 2941 478 
Q 2500 -78 1738 -78 
Q 1113 -78 717 272 
Q 322 622 266 1200 
z
" transform="scale(0.015625)"/>
       </defs>
       <use xlink:href="#ArialMT-35"/>
      </g>
     </g>
    </g>
    <g id="xtick_3">
     <g id="line2d_3">
      <g>
       <use xlink:href="#m4b8d421c1c" x="203.072784" y="178.869375" style="stroke: #000000; stroke-width: 0.8"/>
      </g>
     </g>
     <g id="text_3">
      <!-- 10 -->
      <g transform="translate(196.399659 194.45875)scale(0.12 -0.12)">
       <defs>
        <path id="ArialMT-31" d="M 2384 0 
L 1822 0 
L 1822 3584 
Q 1619 3391 1289 3197 
Q 959 3003 697 2906 
L 697 3450 
Q 1169 3672 1522 3987 
Q 1875 4303 2022 4600 
L 2384 4600 
L 2384 0 
z
" transform="scale(0.015625)"/>
       </defs>
       <use xlink:href="#ArialMT-31"/>
       <use xlink:href="#ArialMT-30" x="55.615234"/>
      </g>
     </g>
    </g>
    <g id="text_4">
     <!-- Time($t$) -->
     <g transform="translate(107.241875 209.60375)scale(0.12 -0.12)">
      <defs>
       <path id="ArialMT-54" d="M 1659 0 
L 1659 4041 
L 150 4041 
L 150 4581 
L 3781 4581 
L 3781 4041 
L 2266 4041 
L 2266 0 
L 1659 0 
z
" transform="scale(0.015625)"/>
       <path id="ArialMT-69" d="M 425 3934 
L 425 4581 
L 988 4581 
L 988 3934 
L 425 3934 
z
M 425 0 
L 425 3319 
L 988 3319 
L 988 0 
L 425 0 
z
" transform="scale(0.015625)"/>
       <path id="ArialMT-6d" d="M 422 0 
L 422 3319 
L 925 3319 
L 925 2853 
Q 1081 3097 1340 3245 
Q 1600 3394 1931 3394 
Q 2300 3394 2536 3241 
Q 2772 3088 2869 2813 
Q 3263 3394 3894 3394 
Q 4388 3394 4653 3120 
Q 4919 2847 4919 2278 
L 4919 0 
L 4359 0 
L 4359 2091 
Q 4359 2428 4304 2576 
Q 4250 2725 4106 2815 
Q 3963 2906 3769 2906 
Q 3419 2906 3187 2673 
Q 2956 2441 2956 1928 
L 2956 0 
L 2394 0 
L 2394 2156 
Q 2394 2531 2256 2718 
Q 2119 2906 1806 2906 
Q 1569 2906 1367 2781 
Q 1166 2656 1075 2415 
Q 984 2175 984 1722 
L 984 0 
L 422 0 
z
" transform="scale(0.015625)"/>
       <path id="ArialMT-65" d="M 2694 1069 
L 3275 997 
Q 3138 488 2766 206 
Q 2394 -75 1816 -75 
Q 1088 -75 661 373 
Q 234 822 234 1631 
Q 234 2469 665 2931 
Q 1097 3394 1784 3394 
Q 2450 3394 2872 2941 
Q 3294 2488 3294 1666 
Q 3294 1616 3291 1516 
L 816 1516 
Q 847 969 1125 678 
Q 1403 388 1819 388 
Q 2128 388 2347 550 
Q 2566 713 2694 1069 
z
M 847 1978 
L 2700 1978 
Q 2663 2397 2488 2606 
Q 2219 2931 1791 2931 
Q 1403 2931 1139 2672 
Q 875 2413 847 1978 
z
" transform="scale(0.015625)"/>
       <path id="ArialMT-28" d="M 1497 -1347 
Q 1031 -759 709 28 
Q 388 816 388 1659 
Q 388 2403 628 3084 
Q 909 3875 1497 4659 
L 1900 4659 
Q 1522 4009 1400 3731 
Q 1209 3300 1100 2831 
Q 966 2247 966 1656 
Q 966 153 1900 -1347 
L 1497 -1347 
z
" transform="scale(0.015625)"/>
       <path id="DejaVuSans-Oblique-74" d="M 2706 3500 
L 2619 3053 
L 1472 3053 
L 1100 1153 
Q 1081 1047 1072 975 
Q 1063 903 1063 863 
Q 1063 663 1183 572 
Q 1303 481 1569 481 
L 2150 481 
L 2053 0 
L 1503 0 
Q 991 0 739 200 
Q 488 400 488 806 
Q 488 878 497 964 
Q 506 1050 525 1153 
L 897 3053 
L 409 3053 
L 500 3500 
L 978 3500 
L 1172 4494 
L 1747 4494 
L 1556 3500 
L 2706 3500 
z
" transform="scale(0.015625)"/>
       <path id="ArialMT-29" d="M 791 -1347 
L 388 -1347 
Q 1322 153 1322 1656 
Q 1322 2244 1188 2822 
Q 1081 3291 891 3722 
Q 769 4003 388 4659 
L 791 4659 
Q 1378 3875 1659 3084 
Q 1900 2403 1900 1659 
Q 1900 816 1576 28 
Q 1253 -759 791 -1347 
z
" transform="scale(0.015625)"/>
      </defs>
      <use xlink:href="#ArialMT-54" transform="translate(0 0.203125)"/>
      <use xlink:href="#ArialMT-69" transform="translate(61.083984 0.203125)"/>
      <use xlink:href="#ArialMT-6d" transform="translate(83.300781 0.203125)"/>
      <use xlink:href="#ArialMT-65" transform="translate(166.601562 0.203125)"/>
      <use xlink:href="#ArialMT-28" transform="translate(222.216797 0.203125)"/>
      <use xlink:href="#DejaVuSans-Oblique-74" transform="translate(255.517578 0.203125)"/>
      <use xlink:href="#ArialMT-29" transform="translate(294.726562 0.203125)"/>
     </g>
    </g>
   </g>
   <g id="matplotlib.axis_2">
    <g id="ytick_1">
     <g id="line2d_4">
      <defs>
       <path id="m45b65686d4" d="M 0 0 
L -3.5 0 
" style="stroke: #000000; stroke-width: 0.8"/>
      </defs>
      <g>
       <use xlink:href="#m45b65686d4" x="43.281875" y="144.299111" style="stroke: #000000; stroke-width: 0.8"/>
      </g>
     </g>
     <g id="text_5">
      <!-- −2 -->
      <g transform="translate(22.6 148.593798)scale(0.12 -0.12)">
       <defs>
        <path id="ArialMT-2212" d="M 3381 1997 
L 356 1997 
L 356 2522 
L 3381 2522 
L 3381 1997 
z
" transform="scale(0.015625)"/>
        <path id="ArialMT-32" d="M 3222 541 
L 3222 0 
L 194 0 
Q 188 203 259 391 
Q 375 700 629 1000 
Q 884 1300 1366 1694 
Q 2113 2306 2375 2664 
Q 2638 3022 2638 3341 
Q 2638 3675 2398 3904 
Q 2159 4134 1775 4134 
Q 1369 4134 1125 3890 
Q 881 3647 878 3216 
L 300 3275 
Q 359 3922 746 4261 
Q 1134 4600 1788 4600 
Q 2447 4600 2831 4234 
Q 3216 3869 3216 3328 
Q 3216 3053 3103 2787 
Q 2991 2522 2730 2228 
Q 2469 1934 1863 1422 
Q 1356 997 1212 845 
Q 1069 694 975 541 
L 3222 541 
z
" transform="scale(0.015625)"/>
       </defs>
       <use xlink:href="#ArialMT-2212"/>
       <use xlink:href="#ArialMT-32" x="58.398438"/>
      </g>
     </g>
    </g>
    <g id="ytick_2">
     <g id="line2d_5">
      <g>
       <use xlink:href="#m45b65686d4" x="43.281875" y="96.992433" style="stroke: #000000; stroke-width: 0.8"/>
      </g>
     </g>
     <g id="text_6">
      <!-- 0 -->
      <g transform="translate(29.60875 101.28712)scale(0.12 -0.12)">
       <use xlink:href="#ArialMT-30"/>
      </g>
     </g>
    </g>
    <g id="ytick_3">
     <g id="line2d_6">
      <g>
       <use xlink:href="#m45b65686d4" x="43.281875" y="49.685755" style="stroke: #000000; stroke-width: 0.8"/>
      </g>
     </g>
     <g id="text_7">
      <!-- 2 -->
      <g transform="translate(29.60875 53.980443)scale(0.12 -0.12)">
       <use xlink:href="#ArialMT-32"/>
      </g>
     </g>
    </g>
    <g id="text_8">
     <!-- Evidence($x$) -->
     <g transform="translate(15.96 129.609375)rotate(-90)scale(0.12 -0.12)">
      <defs>
       <path id="ArialMT-45" d="M 506 0 
L 506 4581 
L 3819 4581 
L 3819 4041 
L 1113 4041 
L 1113 2638 
L 3647 2638 
L 3647 2100 
L 1113 2100 
L 1113 541 
L 3925 541 
L 3925 0 
L 506 0 
z
" transform="scale(0.015625)"/>
       <path id="ArialMT-76" d="M 1344 0 
L 81 3319 
L 675 3319 
L 1388 1331 
Q 1503 1009 1600 663 
Q 1675 925 1809 1294 
L 2547 3319 
L 3125 3319 
L 1869 0 
L 1344 0 
z
" transform="scale(0.015625)"/>
       <path id="ArialMT-64" d="M 2575 0 
L 2575 419 
Q 2259 -75 1647 -75 
Q 1250 -75 917 144 
Q 584 363 401 755 
Q 219 1147 219 1656 
Q 219 2153 384 2558 
Q 550 2963 881 3178 
Q 1213 3394 1622 3394 
Q 1922 3394 2156 3267 
Q 2391 3141 2538 2938 
L 2538 4581 
L 3097 4581 
L 3097 0 
L 2575 0 
z
M 797 1656 
Q 797 1019 1065 703 
Q 1334 388 1700 388 
Q 2069 388 2326 689 
Q 2584 991 2584 1609 
Q 2584 2291 2321 2609 
Q 2059 2928 1675 2928 
Q 1300 2928 1048 2622 
Q 797 2316 797 1656 
z
" transform="scale(0.015625)"/>
       <path id="ArialMT-6e" d="M 422 0 
L 422 3319 
L 928 3319 
L 928 2847 
Q 1294 3394 1984 3394 
Q 2284 3394 2536 3286 
Q 2788 3178 2913 3003 
Q 3038 2828 3088 2588 
Q 3119 2431 3119 2041 
L 3119 0 
L 2556 0 
L 2556 2019 
Q 2556 2363 2490 2533 
Q 2425 2703 2258 2804 
Q 2091 2906 1866 2906 
Q 1506 2906 1245 2678 
Q 984 2450 984 1813 
L 984 0 
L 422 0 
z
" transform="scale(0.015625)"/>
       <path id="ArialMT-63" d="M 2588 1216 
L 3141 1144 
Q 3050 572 2676 248 
Q 2303 -75 1759 -75 
Q 1078 -75 664 370 
Q 250 816 250 1647 
Q 250 2184 428 2587 
Q 606 2991 970 3192 
Q 1334 3394 1763 3394 
Q 2303 3394 2647 3120 
Q 2991 2847 3088 2344 
L 2541 2259 
Q 2463 2594 2264 2762 
Q 2066 2931 1784 2931 
Q 1359 2931 1093 2626 
Q 828 2322 828 1663 
Q 828 994 1084 691 
Q 1341 388 1753 388 
Q 2084 388 2306 591 
Q 2528 794 2588 1216 
z
" transform="scale(0.015625)"/>
       <path id="DejaVuSans-Oblique-78" d="M 3841 3500 
L 2234 1784 
L 3219 0 
L 2559 0 
L 1819 1388 
L 531 0 
L -166 0 
L 1556 1844 
L 641 3500 
L 1300 3500 
L 1972 2234 
L 3144 3500 
L 3841 3500 
z
" transform="scale(0.015625)"/>
      </defs>
      <use xlink:href="#ArialMT-45" transform="translate(0 0.203125)"/>
      <use xlink:href="#ArialMT-76" transform="translate(66.699219 0.203125)"/>
      <use xlink:href="#ArialMT-69" transform="translate(116.699219 0.203125)"/>
      <use xlink:href="#ArialMT-64" transform="translate(138.916016 0.203125)"/>
      <use xlink:href="#ArialMT-65" transform="translate(194.53125 0.203125)"/>
      <use xlink:href="#ArialMT-6e" transform="translate(250.146484 0.203125)"/>
      <use xlink:href="#ArialMT-63" transform="translate(305.761719 0.203125)"/>
      <use xlink:href="#ArialMT-65" transform="translate(355.761719 0.203125)"/>
      <use xlink:href="#ArialMT-28" transform="translate(411.376953 0.203125)"/>
      <use xlink:href="#DejaVuSans-Oblique-78" transform="translate(444.677734 0.203125)"/>
      <use xlink:href="#ArialMT-29" transform="translate(503.857422 0.203125)"/>
     </g>
    </g>
   </g>
   <g id="line2d_7">
    <path d="M 50.890966 69.026235 
L 53.025781 69.026235 
L 53.330755 68.35235 
L 55.770543 68.35235 
L 56.075517 67.678466 
L 58.515305 67.678466 
L 58.820279 67.004582 
L 61.565041 67.004582 
L 61.870015 66.330697 
L 64.614777 66.330697 
L 64.919751 65.656813 
L 68.27446 65.656813 
L 68.579434 64.982929 
L 71.934143 64.982929 
L 72.239117 64.309044 
L 75.8988 64.309044 
L 76.203773 63.63516 
L 79.863456 63.63516 
L 80.16843 62.961276 
L 84.133087 62.961276 
L 84.43806 62.287392 
L 88.402717 62.287392 
L 88.70769 61.613507 
L 92.672347 61.613507 
L 92.97732 60.939623 
L 96.941977 60.939623 
L 97.246951 60.265739 
L 100.906634 60.265739 
L 101.211607 59.591854 
L 105.176264 59.591854 
L 105.481237 58.91797 
L 109.14092 58.91797 
L 109.445894 58.244086 
L 113.410551 58.244086 
L 113.715524 57.570201 
L 117.375207 57.570201 
L 117.680181 56.896317 
L 121.339864 56.896317 
L 121.644837 56.222433 
L 125.30452 56.222433 
L 125.609494 55.548549 
L 129.269177 55.548549 
L 129.57415 54.874664 
L 133.538807 54.874664 
L 133.843781 54.20078 
L 137.503464 54.20078 
L 137.808437 53.526896 
L 141.46812 53.526896 
L 141.773094 52.853011 
L 145.432777 52.853011 
L 145.73775 52.179127 
L 149.09246 52.179127 
L 149.397433 51.505243 
L 153.057116 51.505243 
L 153.36209 50.831358 
L 157.021773 50.831358 
L 157.326747 50.157474 
L 160.98643 50.157474 
L 161.291403 49.48359 
L 164.951086 49.48359 
L 165.25606 48.809706 
L 168.915743 48.809706 
L 169.220716 48.135821 
L 172.880399 48.135821 
L 173.185373 47.461937 
L 176.845056 47.461937 
L 177.150029 46.788053 
L 180.809712 46.788053 
L 181.114686 46.114168 
L 184.774369 46.114168 
L 185.079343 45.440284 
L 188.739026 45.440284 
L 189.043999 44.7664 
L 192.703682 44.7664 
L 193.008656 44.092515 
L 196.668339 44.092515 
L 196.973312 43.418631 
L 202.157863 43.418631 
L 202.767811 44.7664 
L 203.072784 44.7664 
L 203.072784 44.7664 
" clip-path="url(#pb03bdf94c5)" style="fill: none; stroke-dasharray: 5.55,2.4; stroke-dashoffset: 0; stroke: #440154; stroke-width: 1.5"/>
   </g>
   <g id="line2d_8">
    <path d="M 50.890966 125.632515 
L 53.025781 125.632515 
L 53.330755 126.3064 
L 55.770543 126.3064 
L 56.075517 126.980284 
L 58.515305 126.980284 
L 58.820279 127.654168 
L 61.565041 127.654168 
L 61.870015 128.328053 
L 64.614777 128.328053 
L 64.919751 129.001937 
L 68.27446 129.001937 
L 68.579434 129.675821 
L 71.934143 129.675821 
L 72.239117 130.349706 
L 75.8988 130.349706 
L 76.203773 131.02359 
L 79.863456 131.02359 
L 80.16843 131.697474 
L 84.133087 131.697474 
L 84.43806 132.371358 
L 88.402717 132.371358 
L 88.70769 133.045243 
L 92.672347 133.045243 
L 92.97732 133.719127 
L 96.941977 133.719127 
L 97.246951 134.393011 
L 100.906634 134.393011 
L 101.211607 135.066896 
L 105.176264 135.066896 
L 105.481237 135.74078 
L 109.14092 135.74078 
L 109.445894 136.414664 
L 113.410551 136.414664 
L 113.715524 137.088549 
L 117.375207 137.088549 
L 117.680181 137.762433 
L 121.339864 137.762433 
L 121.644837 138.436317 
L 125.30452 138.436317 
L 125.609494 139.110201 
L 129.269177 139.110201 
L 129.57415 139.784086 
L 133.538807 139.784086 
L 133.843781 140.45797 
L 137.503464 140.45797 
L 137.808437 141.131854 
L 141.46812 141.131854 
L 141.773094 141.805739 
L 145.432777 141.805739 
L 145.73775 142.479623 
L 149.09246 142.479623 
L 149.397433 143.153507 
L 153.057116 143.153507 
L 153.36209 143.827392 
L 157.021773 143.827392 
L 157.326747 144.501276 
L 160.98643 144.501276 
L 161.291403 145.17516 
L 164.951086 145.17516 
L 165.25606 145.849044 
L 168.915743 145.849044 
L 169.220716 146.522929 
L 172.880399 146.522929 
L 173.185373 147.196813 
L 176.845056 147.196813 
L 177.150029 147.870697 
L 180.809712 147.870697 
L 181.114686 148.544582 
L 184.774369 148.544582 
L 185.079343 149.218466 
L 188.739026 149.218466 
L 189.043999 149.89235 
L 192.703682 149.89235 
L 193.008656 150.566235 
L 196.668339 150.566235 
L 196.973312 151.240119 
L 202.157863 151.240119 
L 202.767811 149.89235 
L 203.072784 149.89235 
L 203.072784 149.89235 
" clip-path="url(#pb03bdf94c5)" style="fill: none; stroke-dasharray: 5.55,2.4; stroke-dashoffset: 0; stroke: #440154; stroke-width: 1.5"/>
   </g>
   <g id="line2d_9">
    <path d="M 55.770543 97.329375 
L 56.38049 98.677144 
L 56.685464 98.677144 
L 56.990438 99.351028 
L 57.600385 99.351028 
L 57.905358 100.024912 
L 58.515305 100.024912 
L 58.820279 100.698796 
L 59.430226 100.698796 
L 59.7352 101.372681 
L 60.650121 101.372681 
L 60.955094 102.046565 
L 61.870015 102.046565 
L 62.174988 102.720449 
L 63.089909 102.720449 
L 63.394883 103.394334 
L 64.309804 103.394334 
L 64.614777 104.068218 
L 65.529698 104.068218 
L 65.834672 104.742102 
L 67.054566 104.742102 
L 67.359539 105.415987 
L 68.27446 105.415987 
L 68.579434 106.089871 
L 69.799328 106.089871 
L 70.104302 106.763755 
L 71.324196 106.763755 
L 71.62917 107.437639 
L 72.849064 107.437639 
L 73.154038 108.111524 
L 74.678905 108.111524 
L 74.983879 108.785408 
L 76.203773 108.785408 
L 76.508747 109.459292 
L 78.033615 109.459292 
L 78.338588 110.133177 
L 79.558483 110.133177 
L 79.863456 110.807061 
L 81.388324 110.807061 
L 81.693298 111.480945 
L 83.523139 111.480945 
L 83.828113 112.15483 
L 85.352981 112.15483 
L 85.657954 112.828714 
L 87.487796 112.828714 
L 87.79277 113.502598 
L 89.317637 113.502598 
L 89.622611 114.176482 
L 91.452453 114.176482 
L 91.757426 114.850367 
L 93.587268 114.850367 
L 93.892241 115.524251 
L 95.722083 115.524251 
L 96.027056 116.198135 
L 97.856898 116.198135 
L 98.161871 116.87202 
L 99.991713 116.87202 
L 100.296686 117.545904 
L 102.431502 117.545904 
L 102.736475 118.219788 
L 104.566317 118.219788 
L 104.87129 118.893673 
L 107.006105 118.893673 
L 107.311079 119.567557 
L 109.14092 119.567557 
L 109.445894 120.241441 
L 111.580709 120.241441 
L 111.885683 120.915325 
L 114.020498 120.915325 
L 114.325471 121.58921 
L 116.460286 121.58921 
L 116.76526 122.263094 
L 118.900075 122.263094 
L 119.205049 122.936978 
L 121.339864 122.936978 
L 121.644837 123.610863 
L 123.779652 123.610863 
L 124.084626 124.284747 
L 126.219441 124.284747 
L 126.524415 124.958631 
L 128.964203 124.958631 
L 129.269177 125.632515 
L 131.403992 125.632515 
L 131.708966 126.3064 
L 134.148754 126.3064 
L 134.453728 126.980284 
L 136.588543 126.980284 
L 136.893516 127.654168 
L 139.333305 127.654168 
L 139.638279 128.328053 
L 142.078067 128.328053 
L 142.383041 129.001937 
L 144.517856 129.001937 
L 144.82283 129.675821 
L 147.262618 129.675821 
L 147.567592 130.349706 
L 150.007381 130.349706 
L 150.312354 131.02359 
L 152.752143 131.02359 
L 153.057116 131.697474 
L 155.496905 131.697474 
L 155.801879 132.371358 
L 158.546641 132.371358 
L 158.851614 133.045243 
L 161.291403 133.045243 
L 161.596377 133.719127 
L 164.036165 133.719127 
L 164.341139 134.393011 
L 167.085901 134.393011 
L 167.390875 135.066896 
L 169.830663 135.066896 
L 170.135637 135.74078 
L 172.880399 135.74078 
L 173.185373 136.414664 
L 175.930135 136.414664 
L 176.235109 137.088549 
L 178.979871 137.088549 
L 179.284845 137.762433 
L 181.724633 137.762433 
L 182.029607 138.436317 
L 184.774369 138.436317 
L 185.079343 139.110201 
L 187.824105 139.110201 
L 188.129078 139.784086 
L 190.873841 139.784086 
L 191.178814 140.45797 
L 194.22855 140.45797 
L 194.533524 141.131854 
L 197.278286 141.131854 
L 197.58326 141.805739 
L 200.023048 141.805739 
L 200.328022 142.479623 
L 201.547916 142.479623 
L 201.85289 143.153507 
L 202.157863 143.153507 
L 202.767811 144.501276 
L 203.072784 144.501276 
L 203.072784 144.501276 
" clip-path="url(#pb03bdf94c5)" style="fill: none; stroke: #440154; stroke-width: 1.5; stroke-linecap: square"/>
   </g>
   <g id="line2d_10">
    <path d="M 55.770543 97.329375 
L 56.38049 95.981606 
L 56.685464 95.981606 
L 56.990438 95.307722 
L 57.600385 95.307722 
L 57.905358 94.633838 
L 58.515305 94.633838 
L 58.820279 93.959954 
L 59.430226 93.959954 
L 59.7352 93.286069 
L 60.650121 93.286069 
L 60.955094 92.612185 
L 61.870015 92.612185 
L 62.174988 91.938301 
L 63.089909 91.938301 
L 63.394883 91.264416 
L 64.309804 91.264416 
L 64.614777 90.590532 
L 65.529698 90.590532 
L 65.834672 89.916648 
L 67.054566 89.916648 
L 67.359539 89.242763 
L 68.27446 89.242763 
L 68.579434 88.568879 
L 69.799328 88.568879 
L 70.104302 87.894995 
L 71.324196 87.894995 
L 71.62917 87.221111 
L 72.849064 87.221111 
L 73.154038 86.547226 
L 74.678905 86.547226 
L 74.983879 85.873342 
L 76.203773 85.873342 
L 76.508747 85.199458 
L 78.033615 85.199458 
L 78.338588 84.525573 
L 79.558483 84.525573 
L 79.863456 83.851689 
L 81.388324 83.851689 
L 81.693298 83.177805 
L 83.523139 83.177805 
L 83.828113 82.50392 
L 85.352981 82.50392 
L 85.657954 81.830036 
L 87.487796 81.830036 
L 87.79277 81.156152 
L 89.317637 81.156152 
L 89.622611 80.482268 
L 91.452453 80.482268 
L 91.757426 79.808383 
L 93.587268 79.808383 
L 93.892241 79.134499 
L 95.722083 79.134499 
L 96.027056 78.460615 
L 97.856898 78.460615 
L 98.161871 77.78673 
L 99.991713 77.78673 
L 100.296686 77.112846 
L 102.431502 77.112846 
L 102.736475 76.438962 
L 104.566317 76.438962 
L 104.87129 75.765077 
L 107.006105 75.765077 
L 107.311079 75.091193 
L 109.14092 75.091193 
L 109.445894 74.417309 
L 111.580709 74.417309 
L 111.885683 73.743425 
L 114.020498 73.743425 
L 114.325471 73.06954 
L 116.460286 73.06954 
L 116.76526 72.395656 
L 118.900075 72.395656 
L 119.205049 71.721772 
L 121.339864 71.721772 
L 121.644837 71.047887 
L 123.779652 71.047887 
L 124.084626 70.374003 
L 126.219441 70.374003 
L 126.524415 69.700119 
L 128.964203 69.700119 
L 129.269177 69.026235 
L 131.403992 69.026235 
L 131.708966 68.35235 
L 134.148754 68.35235 
L 134.453728 67.678466 
L 136.588543 67.678466 
L 136.893516 67.004582 
L 139.333305 67.004582 
L 139.638279 66.330697 
L 142.078067 66.330697 
L 142.383041 65.656813 
L 144.517856 65.656813 
L 144.82283 64.982929 
L 147.262618 64.982929 
L 147.567592 64.309044 
L 150.007381 64.309044 
L 150.312354 63.63516 
L 152.752143 63.63516 
L 153.057116 62.961276 
L 155.496905 62.961276 
L 155.801879 62.287392 
L 158.546641 62.287392 
L 158.851614 61.613507 
L 161.291403 61.613507 
L 161.596377 60.939623 
L 164.036165 60.939623 
L 164.341139 60.265739 
L 167.085901 60.265739 
L 167.390875 59.591854 
L 169.830663 59.591854 
L 170.135637 58.91797 
L 172.880399 58.91797 
L 173.185373 58.244086 
L 175.930135 58.244086 
L 176.235109 57.570201 
L 178.979871 57.570201 
L 179.284845 56.896317 
L 181.724633 56.896317 
L 182.029607 56.222433 
L 184.774369 56.222433 
L 185.079343 55.548549 
L 187.824105 55.548549 
L 188.129078 54.874664 
L 190.873841 54.874664 
L 191.178814 54.20078 
L 194.22855 54.20078 
L 194.533524 53.526896 
L 197.278286 53.526896 
L 197.58326 52.853011 
L 200.023048 52.853011 
L 200.328022 52.179127 
L 201.547916 52.179127 
L 201.85289 51.505243 
L 202.157863 51.505243 
L 202.767811 50.157474 
L 203.072784 50.157474 
L 203.072784 50.157474 
" clip-path="url(#pb03bdf94c5)" style="fill: none; stroke: #440154; stroke-width: 1.5; stroke-linecap: square"/>
   </g>
   <g id="line2d_11">
    <path d="M 50.890966 70.374003 
L 52.11086 70.374003 
L 52.415834 69.700119 
L 53.635728 69.700119 
L 53.940702 69.026235 
L 55.46557 69.026235 
L 55.770543 68.35235 
L 57.295411 68.35235 
L 57.600385 67.678466 
L 59.430226 67.678466 
L 59.7352 67.004582 
L 61.870015 67.004582 
L 62.174988 66.330697 
L 64.309804 66.330697 
L 64.614777 65.656813 
L 67.359539 65.656813 
L 67.664513 64.982929 
L 70.409275 64.982929 
L 70.714249 64.309044 
L 73.459011 64.309044 
L 73.763985 63.63516 
L 76.813721 63.63516 
L 77.118694 62.961276 
L 80.16843 62.961276 
L 80.473404 62.287392 
L 83.523139 62.287392 
L 83.828113 61.613507 
L 86.572875 61.613507 
L 86.877849 60.939623 
L 89.927585 60.939623 
L 90.232558 60.265739 
L 93.282294 60.265739 
L 93.587268 59.591854 
L 96.33203 59.591854 
L 96.637003 58.91797 
L 99.381766 58.91797 
L 99.686739 58.244086 
L 102.736475 58.244086 
L 103.041449 57.570201 
L 105.786211 57.570201 
L 106.091185 56.896317 
L 108.835947 56.896317 
L 109.14092 56.222433 
L 112.190656 56.222433 
L 112.49563 55.548549 
L 115.240392 55.548549 
L 115.545366 54.874664 
L 118.290128 54.874664 
L 118.595101 54.20078 
L 121.339864 54.20078 
L 121.644837 53.526896 
L 124.3896 53.526896 
L 124.694573 52.853011 
L 127.744309 52.853011 
L 128.049283 52.179127 
L 130.794045 52.179127 
L 131.099018 51.505243 
L 133.843781 51.505243 
L 134.148754 50.831358 
L 136.893516 50.831358 
L 137.19849 50.157474 
L 139.943252 50.157474 
L 140.248226 49.48359 
L 142.992988 49.48359 
L 143.297962 48.809706 
L 146.042724 48.809706 
L 146.347698 48.135821 
L 149.397433 48.135821 
L 149.702407 47.461937 
L 152.447169 47.461937 
L 152.752143 46.788053 
L 155.496905 46.788053 
L 155.801879 46.114168 
L 158.546641 46.114168 
L 158.851614 45.440284 
L 161.90135 45.440284 
L 162.206324 44.7664 
L 164.951086 44.7664 
L 165.25606 44.092515 
L 168.000822 44.092515 
L 168.305796 43.418631 
L 171.050558 43.418631 
L 171.355531 42.744747 
L 174.405267 42.744747 
L 174.710241 42.070863 
L 177.455003 42.070863 
L 177.759977 41.396978 
L 180.809712 41.396978 
L 181.114686 40.723094 
L 183.859448 40.723094 
L 184.164422 40.04921 
L 187.214158 40.04921 
L 187.519131 39.375325 
L 190.263894 39.375325 
L 190.568867 38.701441 
L 193.618603 38.701441 
L 193.923577 38.027557 
L 196.668339 38.027557 
L 196.973312 37.353673 
L 200.328022 37.353673 
L 200.632995 36.679788 
L 201.547916 36.679788 
L 201.85289 37.353673 
L 202.462837 37.353673 
L 202.767811 38.027557 
L 203.072784 38.027557 
L 203.072784 38.027557 
" clip-path="url(#pb03bdf94c5)" style="fill: none; stroke-dasharray: 5.55,2.4; stroke-dashoffset: 0; stroke: #3b528b; stroke-width: 1.5"/>
   </g>
   <g id="line2d_12">
    <path d="M 50.890966 124.284747 
L 52.11086 124.284747 
L 52.415834 124.958631 
L 53.635728 124.958631 
L 53.940702 125.632515 
L 55.46557 125.632515 
L 55.770543 126.3064 
L 57.295411 126.3064 
L 57.600385 126.980284 
L 59.430226 126.980284 
L 59.7352 127.654168 
L 61.870015 127.654168 
L 62.174988 128.328053 
L 64.309804 128.328053 
L 64.614777 129.001937 
L 67.359539 129.001937 
L 67.664513 129.675821 
L 70.409275 129.675821 
L 70.714249 130.349706 
L 73.459011 130.349706 
L 73.763985 131.02359 
L 76.813721 131.02359 
L 77.118694 131.697474 
L 80.16843 131.697474 
L 80.473404 132.371358 
L 83.523139 132.371358 
L 83.828113 133.045243 
L 86.572875 133.045243 
L 86.877849 133.719127 
L 89.927585 133.719127 
L 90.232558 134.393011 
L 93.282294 134.393011 
L 93.587268 135.066896 
L 96.33203 135.066896 
L 96.637003 135.74078 
L 99.381766 135.74078 
L 99.686739 136.414664 
L 102.736475 136.414664 
L 103.041449 137.088549 
L 105.786211 137.088549 
L 106.091185 137.762433 
L 108.835947 137.762433 
L 109.14092 138.436317 
L 112.190656 138.436317 
L 112.49563 139.110201 
L 115.240392 139.110201 
L 115.545366 139.784086 
L 118.290128 139.784086 
L 118.595101 140.45797 
L 121.339864 140.45797 
L 121.644837 141.131854 
L 124.3896 141.131854 
L 124.694573 141.805739 
L 127.744309 141.805739 
L 128.049283 142.479623 
L 130.794045 142.479623 
L 131.099018 143.153507 
L 133.843781 143.153507 
L 134.148754 143.827392 
L 136.893516 143.827392 
L 137.19849 144.501276 
L 139.943252 144.501276 
L 140.248226 145.17516 
L 142.992988 145.17516 
L 143.297962 145.849044 
L 146.042724 145.849044 
L 146.347698 146.522929 
L 149.397433 146.522929 
L 149.702407 147.196813 
L 152.447169 147.196813 
L 152.752143 147.870697 
L 155.496905 147.870697 
L 155.801879 148.544582 
L 158.546641 148.544582 
L 158.851614 149.218466 
L 161.90135 149.218466 
L 162.206324 149.89235 
L 164.951086 149.89235 
L 165.25606 150.566235 
L 168.000822 150.566235 
L 168.305796 151.240119 
L 171.050558 151.240119 
L 171.355531 151.914003 
L 174.405267 151.914003 
L 174.710241 152.587887 
L 177.455003 152.587887 
L 177.759977 153.261772 
L 180.809712 153.261772 
L 181.114686 153.935656 
L 183.859448 153.935656 
L 184.164422 154.60954 
L 187.214158 154.60954 
L 187.519131 155.283425 
L 190.263894 155.283425 
L 190.568867 155.957309 
L 193.618603 155.957309 
L 193.923577 156.631193 
L 196.668339 156.631193 
L 196.973312 157.305077 
L 200.328022 157.305077 
L 200.632995 157.978962 
L 201.547916 157.978962 
L 201.85289 157.305077 
L 202.462837 157.305077 
L 202.767811 156.631193 
L 203.072784 156.631193 
L 203.072784 156.631193 
" clip-path="url(#pb03bdf94c5)" style="fill: none; stroke-dasharray: 5.55,2.4; stroke-dashoffset: 0; stroke: #3b528b; stroke-width: 1.5"/>
   </g>
   <g id="line2d_13">
    <path d="M 58.210332 97.329375 
L 58.820279 98.677144 
L 59.125253 98.677144 
L 59.430226 99.351028 
L 59.7352 99.351028 
L 60.040173 100.024912 
L 60.650121 100.024912 
L 60.955094 100.698796 
L 61.565041 100.698796 
L 61.870015 101.372681 
L 62.784936 101.372681 
L 63.089909 102.046565 
L 63.699856 102.046565 
L 64.00483 102.720449 
L 64.919751 102.720449 
L 65.224724 103.394334 
L 66.139645 103.394334 
L 66.444619 104.068218 
L 67.359539 104.068218 
L 67.664513 104.742102 
L 68.579434 104.742102 
L 68.884407 105.415987 
L 69.799328 105.415987 
L 70.104302 106.089871 
L 71.019222 106.089871 
L 71.324196 106.763755 
L 72.54409 106.763755 
L 72.849064 107.437639 
L 73.763985 107.437639 
L 74.068958 108.111524 
L 75.288853 108.111524 
L 75.593826 108.785408 
L 76.813721 108.785408 
L 77.118694 109.459292 
L 78.338588 109.459292 
L 78.643562 110.133177 
L 79.863456 110.133177 
L 80.16843 110.807061 
L 81.388324 110.807061 
L 81.693298 111.480945 
L 82.913192 111.480945 
L 83.218166 112.15483 
L 84.43806 112.15483 
L 84.743034 112.828714 
L 85.962928 112.828714 
L 86.267902 113.502598 
L 87.79277 113.502598 
L 88.097743 114.176482 
L 89.317637 114.176482 
L 89.622611 114.850367 
L 90.842505 114.850367 
L 91.147479 115.524251 
L 92.672347 115.524251 
L 92.97732 116.198135 
L 94.502188 116.198135 
L 94.807162 116.87202 
L 96.027056 116.87202 
L 96.33203 117.545904 
L 97.856898 117.545904 
L 98.161871 118.219788 
L 99.686739 118.219788 
L 99.991713 118.893673 
L 101.516581 118.893673 
L 101.821554 119.567557 
L 103.346422 119.567557 
L 103.651396 120.241441 
L 105.176264 120.241441 
L 105.481237 120.915325 
L 107.006105 120.915325 
L 107.311079 121.58921 
L 108.835947 121.58921 
L 109.14092 122.263094 
L 110.665788 122.263094 
L 110.970762 122.936978 
L 112.49563 122.936978 
L 112.800603 123.610863 
L 114.630445 123.610863 
L 114.935418 124.284747 
L 116.460286 124.284747 
L 116.76526 124.958631 
L 118.595101 124.958631 
L 118.900075 125.632515 
L 120.424943 125.632515 
L 120.729917 126.3064 
L 122.559758 126.3064 
L 122.864732 126.980284 
L 124.694573 126.980284 
L 124.999547 127.654168 
L 126.524415 127.654168 
L 126.829388 128.328053 
L 128.65923 128.328053 
L 128.964203 129.001937 
L 130.794045 129.001937 
L 131.099018 129.675821 
L 132.92886 129.675821 
L 133.233833 130.349706 
L 135.063675 130.349706 
L 135.368649 131.02359 
L 137.19849 131.02359 
L 137.503464 131.697474 
L 139.333305 131.697474 
L 139.638279 132.371358 
L 141.46812 132.371358 
L 141.773094 133.045243 
L 143.907909 133.045243 
L 144.212882 133.719127 
L 146.042724 133.719127 
L 146.347698 134.393011 
L 148.177539 134.393011 
L 148.482513 135.066896 
L 150.617328 135.066896 
L 150.922301 135.74078 
L 152.752143 135.74078 
L 153.057116 136.414664 
L 155.191931 136.414664 
L 155.496905 137.088549 
L 157.63172 137.088549 
L 157.936694 137.762433 
L 159.766535 137.762433 
L 160.071509 138.436317 
L 162.206324 138.436317 
L 162.511297 139.110201 
L 164.646113 139.110201 
L 164.951086 139.784086 
L 167.085901 139.784086 
L 167.390875 140.45797 
L 169.52569 140.45797 
L 169.830663 141.131854 
L 171.965479 141.131854 
L 172.270452 141.805739 
L 174.405267 141.805739 
L 174.710241 142.479623 
L 176.845056 142.479623 
L 177.150029 143.153507 
L 179.284845 143.153507 
L 179.589818 143.827392 
L 182.029607 143.827392 
L 182.33458 144.501276 
L 184.469395 144.501276 
L 184.774369 145.17516 
L 186.909184 145.17516 
L 187.214158 145.849044 
L 189.653946 145.849044 
L 189.95892 146.522929 
L 192.093735 146.522929 
L 192.398709 147.196813 
L 194.838497 147.196813 
L 195.143471 147.870697 
L 197.58326 147.870697 
L 197.888233 148.544582 
L 200.023048 148.544582 
L 200.328022 149.218466 
L 201.547916 149.218466 
L 201.85289 149.89235 
L 202.157863 149.89235 
L 202.767811 151.240119 
L 203.072784 151.240119 
L 203.072784 151.240119 
" clip-path="url(#pb03bdf94c5)" style="fill: none; stroke: #3b528b; stroke-width: 1.5; stroke-linecap: square"/>
   </g>
   <g id="line2d_14">
    <path d="M 58.210332 97.329375 
L 58.820279 95.981606 
L 59.125253 95.981606 
L 59.430226 95.307722 
L 59.7352 95.307722 
L 60.040173 94.633838 
L 60.650121 94.633838 
L 60.955094 93.959954 
L 61.565041 93.959954 
L 61.870015 93.286069 
L 62.784936 93.286069 
L 63.089909 92.612185 
L 63.699856 92.612185 
L 64.00483 91.938301 
L 64.919751 91.938301 
L 65.224724 91.264416 
L 66.139645 91.264416 
L 66.444619 90.590532 
L 67.359539 90.590532 
L 67.664513 89.916648 
L 68.579434 89.916648 
L 68.884407 89.242763 
L 69.799328 89.242763 
L 70.104302 88.568879 
L 71.019222 88.568879 
L 71.324196 87.894995 
L 72.54409 87.894995 
L 72.849064 87.221111 
L 73.763985 87.221111 
L 74.068958 86.547226 
L 75.288853 86.547226 
L 75.593826 85.873342 
L 76.813721 85.873342 
L 77.118694 85.199458 
L 78.338588 85.199458 
L 78.643562 84.525573 
L 79.863456 84.525573 
L 80.16843 83.851689 
L 81.388324 83.851689 
L 81.693298 83.177805 
L 82.913192 83.177805 
L 83.218166 82.50392 
L 84.43806 82.50392 
L 84.743034 81.830036 
L 85.962928 81.830036 
L 86.267902 81.156152 
L 87.79277 81.156152 
L 88.097743 80.482268 
L 89.317637 80.482268 
L 89.622611 79.808383 
L 90.842505 79.808383 
L 91.147479 79.134499 
L 92.672347 79.134499 
L 92.97732 78.460615 
L 94.502188 78.460615 
L 94.807162 77.78673 
L 96.027056 77.78673 
L 96.33203 77.112846 
L 97.856898 77.112846 
L 98.161871 76.438962 
L 99.686739 76.438962 
L 99.991713 75.765077 
L 101.516581 75.765077 
L 101.821554 75.091193 
L 103.346422 75.091193 
L 103.651396 74.417309 
L 105.176264 74.417309 
L 105.481237 73.743425 
L 107.006105 73.743425 
L 107.311079 73.06954 
L 108.835947 73.06954 
L 109.14092 72.395656 
L 110.665788 72.395656 
L 110.970762 71.721772 
L 112.49563 71.721772 
L 112.800603 71.047887 
L 114.630445 71.047887 
L 114.935418 70.374003 
L 116.460286 70.374003 
L 116.76526 69.700119 
L 118.595101 69.700119 
L 118.900075 69.026235 
L 120.424943 69.026235 
L 120.729917 68.35235 
L 122.559758 68.35235 
L 122.864732 67.678466 
L 124.694573 67.678466 
L 124.999547 67.004582 
L 126.524415 67.004582 
L 126.829388 66.330697 
L 128.65923 66.330697 
L 128.964203 65.656813 
L 130.794045 65.656813 
L 131.099018 64.982929 
L 132.92886 64.982929 
L 133.233833 64.309044 
L 135.063675 64.309044 
L 135.368649 63.63516 
L 137.19849 63.63516 
L 137.503464 62.961276 
L 139.333305 62.961276 
L 139.638279 62.287392 
L 141.46812 62.287392 
L 141.773094 61.613507 
L 143.907909 61.613507 
L 144.212882 60.939623 
L 146.042724 60.939623 
L 146.347698 60.265739 
L 148.177539 60.265739 
L 148.482513 59.591854 
L 150.617328 59.591854 
L 150.922301 58.91797 
L 152.752143 58.91797 
L 153.057116 58.244086 
L 155.191931 58.244086 
L 155.496905 57.570201 
L 157.63172 57.570201 
L 157.936694 56.896317 
L 159.766535 56.896317 
L 160.071509 56.222433 
L 162.206324 56.222433 
L 162.511297 55.548549 
L 164.646113 55.548549 
L 164.951086 54.874664 
L 167.085901 54.874664 
L 167.390875 54.20078 
L 169.52569 54.20078 
L 169.830663 53.526896 
L 171.965479 53.526896 
L 172.270452 52.853011 
L 174.405267 52.853011 
L 174.710241 52.179127 
L 176.845056 52.179127 
L 177.150029 51.505243 
L 179.284845 51.505243 
L 179.589818 50.831358 
L 182.029607 50.831358 
L 182.33458 50.157474 
L 184.469395 50.157474 
L 184.774369 49.48359 
L 186.909184 49.48359 
L 187.214158 48.809706 
L 189.653946 48.809706 
L 189.95892 48.135821 
L 192.093735 48.135821 
L 192.398709 47.461937 
L 194.838497 47.461937 
L 195.143471 46.788053 
L 197.58326 46.788053 
L 197.888233 46.114168 
L 200.023048 46.114168 
L 200.328022 45.440284 
L 201.547916 45.440284 
L 201.85289 44.7664 
L 202.157863 44.7664 
L 202.767811 43.418631 
L 203.072784 43.418631 
L 203.072784 43.418631 
" clip-path="url(#pb03bdf94c5)" style="fill: none; stroke: #3b528b; stroke-width: 1.5; stroke-linecap: square"/>
   </g>
   <g id="line2d_15">
    <path d="M 50.890966 71.721772 
L 51.805887 71.721772 
L 52.11086 71.047887 
L 52.720807 71.047887 
L 53.025781 70.374003 
L 54.245675 70.374003 
L 54.550649 69.700119 
L 55.46557 69.700119 
L 55.770543 69.026235 
L 56.990438 69.026235 
L 57.295411 68.35235 
L 58.515305 68.35235 
L 58.820279 67.678466 
L 60.650121 67.678466 
L 60.955094 67.004582 
L 62.784936 67.004582 
L 63.089909 66.330697 
L 64.919751 66.330697 
L 65.224724 65.656813 
L 67.664513 65.656813 
L 67.969487 64.982929 
L 70.104302 64.982929 
L 70.409275 64.309044 
L 72.849064 64.309044 
L 73.154038 63.63516 
L 75.593826 63.63516 
L 75.8988 62.961276 
L 78.338588 62.961276 
L 78.643562 62.287392 
L 80.778377 62.287392 
L 81.083351 61.613507 
L 83.523139 61.613507 
L 83.828113 60.939623 
L 86.267902 60.939623 
L 86.572875 60.265739 
L 89.012664 60.265739 
L 89.317637 59.591854 
L 91.452453 59.591854 
L 91.757426 58.91797 
L 94.197215 58.91797 
L 94.502188 58.244086 
L 96.637003 58.244086 
L 96.941977 57.570201 
L 99.381766 57.570201 
L 99.686739 56.896317 
L 102.126528 56.896317 
L 102.431502 56.222433 
L 104.566317 56.222433 
L 104.87129 55.548549 
L 107.311079 55.548549 
L 107.616052 54.874664 
L 109.750868 54.874664 
L 110.055841 54.20078 
L 112.49563 54.20078 
L 112.800603 53.526896 
L 114.935418 53.526896 
L 115.240392 52.853011 
L 117.680181 52.853011 
L 117.985154 52.179127 
L 120.119969 52.179127 
L 120.424943 51.505243 
L 122.864732 51.505243 
L 123.169705 50.831358 
L 125.609494 50.831358 
L 125.914467 50.157474 
L 128.049283 50.157474 
L 128.354256 49.48359 
L 130.794045 49.48359 
L 131.099018 48.809706 
L 133.233833 48.809706 
L 133.538807 48.135821 
L 135.978596 48.135821 
L 136.283569 47.461937 
L 138.723358 47.461937 
L 139.028332 46.788053 
L 141.163147 46.788053 
L 141.46812 46.114168 
L 143.907909 46.114168 
L 144.212882 45.440284 
L 146.652671 45.440284 
L 146.957645 44.7664 
L 149.09246 44.7664 
L 149.397433 44.092515 
L 151.837222 44.092515 
L 152.142196 43.418631 
L 154.581984 43.418631 
L 154.886958 42.744747 
L 157.326747 42.744747 
L 157.63172 42.070863 
L 160.071509 42.070863 
L 160.376482 41.396978 
L 162.511297 41.396978 
L 162.816271 40.723094 
L 165.25606 40.723094 
L 165.561033 40.04921 
L 168.000822 40.04921 
L 168.305796 39.375325 
L 170.745584 39.375325 
L 171.050558 38.701441 
L 173.490346 38.701441 
L 173.79532 38.027557 
L 176.235109 38.027557 
L 176.540082 37.353673 
L 178.979871 37.353673 
L 179.284845 36.679788 
L 181.724633 36.679788 
L 182.029607 36.005904 
L 184.469395 36.005904 
L 184.774369 35.33202 
L 187.214158 35.33202 
L 187.519131 34.658135 
L 189.95892 34.658135 
L 190.263894 33.984251 
L 192.703682 33.984251 
L 193.008656 33.310367 
L 195.753418 33.310367 
L 196.058392 32.636482 
L 198.49818 32.636482 
L 198.803154 31.962598 
L 202.462837 31.962598 
L 202.767811 32.636482 
L 203.072784 32.636482 
L 203.072784 32.636482 
" clip-path="url(#pb03bdf94c5)" style="fill: none; stroke-dasharray: 5.55,2.4; stroke-dashoffset: 0; stroke: #21918c; stroke-width: 1.5"/>
   </g>
   <g id="line2d_16">
    <path d="M 50.890966 122.936978 
L 51.805887 122.936978 
L 52.11086 123.610863 
L 52.720807 123.610863 
L 53.025781 124.284747 
L 54.245675 124.284747 
L 54.550649 124.958631 
L 55.46557 124.958631 
L 55.770543 125.632515 
L 56.990438 125.632515 
L 57.295411 126.3064 
L 58.515305 126.3064 
L 58.820279 126.980284 
L 60.650121 126.980284 
L 60.955094 127.654168 
L 62.784936 127.654168 
L 63.089909 128.328053 
L 64.919751 128.328053 
L 65.224724 129.001937 
L 67.664513 129.001937 
L 67.969487 129.675821 
L 70.104302 129.675821 
L 70.409275 130.349706 
L 72.849064 130.349706 
L 73.154038 131.02359 
L 75.593826 131.02359 
L 75.8988 131.697474 
L 78.338588 131.697474 
L 78.643562 132.371358 
L 80.778377 132.371358 
L 81.083351 133.045243 
L 83.523139 133.045243 
L 83.828113 133.719127 
L 86.267902 133.719127 
L 86.572875 134.393011 
L 89.012664 134.393011 
L 89.317637 135.066896 
L 91.452453 135.066896 
L 91.757426 135.74078 
L 94.197215 135.74078 
L 94.502188 136.414664 
L 96.637003 136.414664 
L 96.941977 137.088549 
L 99.381766 137.088549 
L 99.686739 137.762433 
L 102.126528 137.762433 
L 102.431502 138.436317 
L 104.566317 138.436317 
L 104.87129 139.110201 
L 107.311079 139.110201 
L 107.616052 139.784086 
L 109.750868 139.784086 
L 110.055841 140.45797 
L 112.49563 140.45797 
L 112.800603 141.131854 
L 114.935418 141.131854 
L 115.240392 141.805739 
L 117.680181 141.805739 
L 117.985154 142.479623 
L 120.119969 142.479623 
L 120.424943 143.153507 
L 122.864732 143.153507 
L 123.169705 143.827392 
L 125.609494 143.827392 
L 125.914467 144.501276 
L 128.049283 144.501276 
L 128.354256 145.17516 
L 130.794045 145.17516 
L 131.099018 145.849044 
L 133.233833 145.849044 
L 133.538807 146.522929 
L 135.978596 146.522929 
L 136.283569 147.196813 
L 138.723358 147.196813 
L 139.028332 147.870697 
L 141.163147 147.870697 
L 141.46812 148.544582 
L 143.907909 148.544582 
L 144.212882 149.218466 
L 146.652671 149.218466 
L 146.957645 149.89235 
L 149.09246 149.89235 
L 149.397433 150.566235 
L 151.837222 150.566235 
L 152.142196 151.240119 
L 154.581984 151.240119 
L 154.886958 151.914003 
L 157.326747 151.914003 
L 157.63172 152.587887 
L 160.071509 152.587887 
L 160.376482 153.261772 
L 162.511297 153.261772 
L 162.816271 153.935656 
L 165.25606 153.935656 
L 165.561033 154.60954 
L 168.000822 154.60954 
L 168.305796 155.283425 
L 170.745584 155.283425 
L 171.050558 155.957309 
L 173.490346 155.957309 
L 173.79532 156.631193 
L 176.235109 156.631193 
L 176.540082 157.305077 
L 178.979871 157.305077 
L 179.284845 157.978962 
L 181.724633 157.978962 
L 182.029607 158.652846 
L 184.469395 158.652846 
L 184.774369 159.32673 
L 187.214158 159.32673 
L 187.519131 160.000615 
L 189.95892 160.000615 
L 190.263894 160.674499 
L 192.703682 160.674499 
L 193.008656 161.348383 
L 195.753418 161.348383 
L 196.058392 162.022268 
L 198.49818 162.022268 
L 198.803154 162.696152 
L 202.462837 162.696152 
L 202.767811 162.022268 
L 203.072784 162.022268 
L 203.072784 162.022268 
" clip-path="url(#pb03bdf94c5)" style="fill: none; stroke-dasharray: 5.55,2.4; stroke-dashoffset: 0; stroke: #21918c; stroke-width: 1.5"/>
   </g>
   <g id="line2d_17">
    <path d="M 59.7352 97.329375 
L 60.345147 98.677144 
L 60.650121 98.677144 
L 60.955094 99.351028 
L 61.260068 99.351028 
L 61.565041 100.024912 
L 62.174988 100.024912 
L 62.479962 100.698796 
L 63.089909 100.698796 
L 63.394883 101.372681 
L 64.00483 101.372681 
L 64.309804 102.046565 
L 65.224724 102.046565 
L 65.529698 102.720449 
L 66.139645 102.720449 
L 66.444619 103.394334 
L 67.359539 103.394334 
L 67.664513 104.068218 
L 68.579434 104.068218 
L 68.884407 104.742102 
L 69.494355 104.742102 
L 69.799328 105.415987 
L 70.714249 105.415987 
L 71.019222 106.089871 
L 71.934143 106.089871 
L 72.239117 106.763755 
L 73.154038 106.763755 
L 73.459011 107.437639 
L 74.373932 107.437639 
L 74.678905 108.111524 
L 75.593826 108.111524 
L 75.8988 108.785408 
L 76.813721 108.785408 
L 77.118694 109.459292 
L 78.033615 109.459292 
L 78.338588 110.133177 
L 79.253509 110.133177 
L 79.558483 110.807061 
L 80.778377 110.807061 
L 81.083351 111.480945 
L 81.998271 111.480945 
L 82.303245 112.15483 
L 83.218166 112.15483 
L 83.523139 112.828714 
L 84.743034 112.828714 
L 85.048007 113.502598 
L 85.962928 113.502598 
L 86.267902 114.176482 
L 87.487796 114.176482 
L 87.79277 114.850367 
L 88.70769 114.850367 
L 89.012664 115.524251 
L 90.232558 115.524251 
L 90.537532 116.198135 
L 91.757426 116.198135 
L 92.0624 116.87202 
L 92.97732 116.87202 
L 93.282294 117.545904 
L 94.502188 117.545904 
L 94.807162 118.219788 
L 96.027056 118.219788 
L 96.33203 118.893673 
L 97.551924 118.893673 
L 97.856898 119.567557 
L 99.076792 119.567557 
L 99.381766 120.241441 
L 100.60166 120.241441 
L 100.906634 120.915325 
L 102.126528 120.915325 
L 102.431502 121.58921 
L 103.651396 121.58921 
L 103.956369 122.263094 
L 105.481237 122.263094 
L 105.786211 122.936978 
L 107.006105 122.936978 
L 107.311079 123.610863 
L 108.530973 123.610863 
L 108.835947 124.284747 
L 110.360815 124.284747 
L 110.665788 124.958631 
L 111.885683 124.958631 
L 112.190656 125.632515 
L 113.715524 125.632515 
L 114.020498 126.3064 
L 115.240392 126.3064 
L 115.545366 126.980284 
L 117.070234 126.980284 
L 117.375207 127.654168 
L 118.595101 127.654168 
L 118.900075 128.328053 
L 120.424943 128.328053 
L 120.729917 129.001937 
L 122.254784 129.001937 
L 122.559758 129.675821 
L 124.084626 129.675821 
L 124.3896 130.349706 
L 125.914467 130.349706 
L 126.219441 131.02359 
L 127.744309 131.02359 
L 128.049283 131.697474 
L 129.57415 131.697474 
L 129.879124 132.371358 
L 131.403992 132.371358 
L 131.708966 133.045243 
L 133.233833 133.045243 
L 133.538807 133.719127 
L 135.063675 133.719127 
L 135.368649 134.393011 
L 136.893516 134.393011 
L 137.19849 135.066896 
L 139.028332 135.066896 
L 139.333305 135.74078 
L 140.858173 135.74078 
L 141.163147 136.414664 
L 142.992988 136.414664 
L 143.297962 137.088549 
L 144.82283 137.088549 
L 145.127803 137.762433 
L 146.957645 137.762433 
L 147.262618 138.436317 
L 148.787486 138.436317 
L 149.09246 139.110201 
L 150.922301 139.110201 
L 151.227275 139.784086 
L 153.057116 139.784086 
L 153.36209 140.45797 
L 154.886958 140.45797 
L 155.191931 141.131854 
L 157.021773 141.131854 
L 157.326747 141.805739 
L 159.156588 141.805739 
L 159.461562 142.479623 
L 161.291403 142.479623 
L 161.596377 143.153507 
L 163.426218 143.153507 
L 163.731192 143.827392 
L 165.561033 143.827392 
L 165.866007 144.501276 
L 167.695848 144.501276 
L 168.000822 145.17516 
L 169.830663 145.17516 
L 170.135637 145.849044 
L 171.965479 145.849044 
L 172.270452 146.522929 
L 174.100294 146.522929 
L 174.405267 147.196813 
L 176.540082 147.196813 
L 176.845056 147.870697 
L 178.674897 147.870697 
L 178.979871 148.544582 
L 180.809712 148.544582 
L 181.114686 149.218466 
L 183.249501 149.218466 
L 183.554475 149.89235 
L 185.384316 149.89235 
L 185.68929 150.566235 
L 187.824105 150.566235 
L 188.129078 151.240119 
L 189.95892 151.240119 
L 190.263894 151.914003 
L 192.398709 151.914003 
L 192.703682 152.587887 
L 194.838497 152.587887 
L 195.143471 153.261772 
L 196.973312 153.261772 
L 197.278286 153.935656 
L 199.413101 153.935656 
L 199.718075 154.60954 
L 201.242943 154.60954 
L 201.547916 155.283425 
L 202.157863 155.283425 
L 202.767811 156.631193 
L 203.072784 156.631193 
L 203.072784 156.631193 
" clip-path="url(#pb03bdf94c5)" style="fill: none; stroke: #21918c; stroke-width: 1.5; stroke-linecap: square"/>
   </g>
   <g id="line2d_18">
    <path d="M 59.7352 97.329375 
L 60.345147 95.981606 
L 60.650121 95.981606 
L 60.955094 95.307722 
L 61.260068 95.307722 
L 61.565041 94.633838 
L 62.174988 94.633838 
L 62.479962 93.959954 
L 63.089909 93.959954 
L 63.394883 93.286069 
L 64.00483 93.286069 
L 64.309804 92.612185 
L 65.224724 92.612185 
L 65.529698 91.938301 
L 66.139645 91.938301 
L 66.444619 91.264416 
L 67.359539 91.264416 
L 67.664513 90.590532 
L 68.579434 90.590532 
L 68.884407 89.916648 
L 69.494355 89.916648 
L 69.799328 89.242763 
L 70.714249 89.242763 
L 71.019222 88.568879 
L 71.934143 88.568879 
L 72.239117 87.894995 
L 73.154038 87.894995 
L 73.459011 87.221111 
L 74.373932 87.221111 
L 74.678905 86.547226 
L 75.593826 86.547226 
L 75.8988 85.873342 
L 76.813721 85.873342 
L 77.118694 85.199458 
L 78.033615 85.199458 
L 78.338588 84.525573 
L 79.253509 84.525573 
L 79.558483 83.851689 
L 80.778377 83.851689 
L 81.083351 83.177805 
L 81.998271 83.177805 
L 82.303245 82.50392 
L 83.218166 82.50392 
L 83.523139 81.830036 
L 84.743034 81.830036 
L 85.048007 81.156152 
L 85.962928 81.156152 
L 86.267902 80.482268 
L 87.487796 80.482268 
L 87.79277 79.808383 
L 88.70769 79.808383 
L 89.012664 79.134499 
L 90.232558 79.134499 
L 90.537532 78.460615 
L 91.757426 78.460615 
L 92.0624 77.78673 
L 92.97732 77.78673 
L 93.282294 77.112846 
L 94.502188 77.112846 
L 94.807162 76.438962 
L 96.027056 76.438962 
L 96.33203 75.765077 
L 97.551924 75.765077 
L 97.856898 75.091193 
L 99.076792 75.091193 
L 99.381766 74.417309 
L 100.60166 74.417309 
L 100.906634 73.743425 
L 102.126528 73.743425 
L 102.431502 73.06954 
L 103.651396 73.06954 
L 103.956369 72.395656 
L 105.481237 72.395656 
L 105.786211 71.721772 
L 107.006105 71.721772 
L 107.311079 71.047887 
L 108.530973 71.047887 
L 108.835947 70.374003 
L 110.360815 70.374003 
L 110.665788 69.700119 
L 111.885683 69.700119 
L 112.190656 69.026235 
L 113.715524 69.026235 
L 114.020498 68.35235 
L 115.240392 68.35235 
L 115.545366 67.678466 
L 117.070234 67.678466 
L 117.375207 67.004582 
L 118.595101 67.004582 
L 118.900075 66.330697 
L 120.424943 66.330697 
L 120.729917 65.656813 
L 122.254784 65.656813 
L 122.559758 64.982929 
L 124.084626 64.982929 
L 124.3896 64.309044 
L 125.914467 64.309044 
L 126.219441 63.63516 
L 127.744309 63.63516 
L 128.049283 62.961276 
L 129.57415 62.961276 
L 129.879124 62.287392 
L 131.403992 62.287392 
L 131.708966 61.613507 
L 133.233833 61.613507 
L 133.538807 60.939623 
L 135.063675 60.939623 
L 135.368649 60.265739 
L 136.893516 60.265739 
L 137.19849 59.591854 
L 139.028332 59.591854 
L 139.333305 58.91797 
L 140.858173 58.91797 
L 141.163147 58.244086 
L 142.992988 58.244086 
L 143.297962 57.570201 
L 144.82283 57.570201 
L 145.127803 56.896317 
L 146.957645 56.896317 
L 147.262618 56.222433 
L 148.787486 56.222433 
L 149.09246 55.548549 
L 150.922301 55.548549 
L 151.227275 54.874664 
L 153.057116 54.874664 
L 153.36209 54.20078 
L 154.886958 54.20078 
L 155.191931 53.526896 
L 157.021773 53.526896 
L 157.326747 52.853011 
L 159.156588 52.853011 
L 159.461562 52.179127 
L 161.291403 52.179127 
L 161.596377 51.505243 
L 163.426218 51.505243 
L 163.731192 50.831358 
L 165.561033 50.831358 
L 165.866007 50.157474 
L 167.695848 50.157474 
L 168.000822 49.48359 
L 169.830663 49.48359 
L 170.135637 48.809706 
L 171.965479 48.809706 
L 172.270452 48.135821 
L 174.100294 48.135821 
L 174.405267 47.461937 
L 176.540082 47.461937 
L 176.845056 46.788053 
L 178.674897 46.788053 
L 178.979871 46.114168 
L 180.809712 46.114168 
L 181.114686 45.440284 
L 183.249501 45.440284 
L 183.554475 44.7664 
L 185.384316 44.7664 
L 185.68929 44.092515 
L 187.824105 44.092515 
L 188.129078 43.418631 
L 189.95892 43.418631 
L 190.263894 42.744747 
L 192.398709 42.744747 
L 192.703682 42.070863 
L 194.838497 42.070863 
L 195.143471 41.396978 
L 196.973312 41.396978 
L 197.278286 40.723094 
L 199.413101 40.723094 
L 199.718075 40.04921 
L 201.242943 40.04921 
L 201.547916 39.375325 
L 202.157863 39.375325 
L 202.767811 38.027557 
L 203.072784 38.027557 
L 203.072784 38.027557 
" clip-path="url(#pb03bdf94c5)" style="fill: none; stroke: #21918c; stroke-width: 1.5; stroke-linecap: square"/>
   </g>
   <g id="line2d_19">
    <path d="M 50.890966 73.06954 
L 51.500913 73.06954 
L 51.805887 72.395656 
L 52.415834 72.395656 
L 52.720807 71.721772 
L 53.330755 71.721772 
L 53.635728 71.047887 
L 54.245675 71.047887 
L 54.550649 70.374003 
L 55.46557 70.374003 
L 55.770543 69.700119 
L 56.685464 69.700119 
L 56.990438 69.026235 
L 57.905358 69.026235 
L 58.210332 68.35235 
L 59.7352 68.35235 
L 60.040173 67.678466 
L 61.260068 67.678466 
L 61.565041 67.004582 
L 63.394883 67.004582 
L 63.699856 66.330697 
L 65.529698 66.330697 
L 65.834672 65.656813 
L 67.664513 65.656813 
L 67.969487 64.982929 
L 69.799328 64.982929 
L 70.104302 64.309044 
L 72.239117 64.309044 
L 72.54409 63.63516 
L 74.373932 63.63516 
L 74.678905 62.961276 
L 76.813721 62.961276 
L 77.118694 62.287392 
L 78.948536 62.287392 
L 79.253509 61.613507 
L 81.388324 61.613507 
L 81.693298 60.939623 
L 83.523139 60.939623 
L 83.828113 60.265739 
L 85.962928 60.265739 
L 86.267902 59.591854 
L 88.097743 59.591854 
L 88.402717 58.91797 
L 90.537532 58.91797 
L 90.842505 58.244086 
L 92.672347 58.244086 
L 92.97732 57.570201 
L 95.112136 57.570201 
L 95.417109 56.896317 
L 97.246951 56.896317 
L 97.551924 56.222433 
L 99.686739 56.222433 
L 99.991713 55.548549 
L 101.821554 55.548549 
L 102.126528 54.874664 
L 103.956369 54.874664 
L 104.261343 54.20078 
L 106.396158 54.20078 
L 106.701132 53.526896 
L 108.530973 53.526896 
L 108.835947 52.853011 
L 110.970762 52.853011 
L 111.275735 52.179127 
L 113.105577 52.179127 
L 113.410551 51.505243 
L 115.545366 51.505243 
L 115.850339 50.831358 
L 117.680181 50.831358 
L 117.985154 50.157474 
L 120.119969 50.157474 
L 120.424943 49.48359 
L 122.559758 49.48359 
L 122.864732 48.809706 
L 124.694573 48.809706 
L 124.999547 48.135821 
L 127.134362 48.135821 
L 127.439335 47.461937 
L 129.269177 47.461937 
L 129.57415 46.788053 
L 131.708966 46.788053 
L 132.013939 46.114168 
L 134.148754 46.114168 
L 134.453728 45.440284 
L 136.283569 45.440284 
L 136.588543 44.7664 
L 138.723358 44.7664 
L 139.028332 44.092515 
L 141.163147 44.092515 
L 141.46812 43.418631 
L 143.602935 43.418631 
L 143.907909 42.744747 
L 145.73775 42.744747 
L 146.042724 42.070863 
L 148.177539 42.070863 
L 148.482513 41.396978 
L 150.617328 41.396978 
L 150.922301 40.723094 
L 153.057116 40.723094 
L 153.36209 40.04921 
L 155.496905 40.04921 
L 155.801879 39.375325 
L 157.63172 39.375325 
L 157.936694 38.701441 
L 160.071509 38.701441 
L 160.376482 38.027557 
L 162.511297 38.027557 
L 162.816271 37.353673 
L 164.951086 37.353673 
L 165.25606 36.679788 
L 167.390875 36.679788 
L 167.695848 36.005904 
L 169.830663 36.005904 
L 170.135637 35.33202 
L 172.270452 35.33202 
L 172.575426 34.658135 
L 174.710241 34.658135 
L 175.015214 33.984251 
L 177.150029 33.984251 
L 177.455003 33.310367 
L 179.589818 33.310367 
L 179.894792 32.636482 
L 182.029607 32.636482 
L 182.33458 31.962598 
L 184.469395 31.962598 
L 184.774369 31.288714 
L 186.909184 31.288714 
L 187.214158 30.61483 
L 189.348973 30.61483 
L 189.653946 29.940945 
L 192.093735 29.940945 
L 192.398709 29.267061 
L 194.533524 29.267061 
L 194.838497 28.593177 
L 196.973312 28.593177 
L 197.278286 27.919292 
L 199.413101 27.919292 
L 199.718075 27.245408 
L 202.462837 27.245408 
L 202.767811 27.919292 
L 203.072784 27.919292 
L 203.072784 27.919292 
" clip-path="url(#pb03bdf94c5)" style="fill: none; stroke-dasharray: 5.55,2.4; stroke-dashoffset: 0; stroke: #5ec962; stroke-width: 1.5"/>
   </g>
   <g id="line2d_20">
    <path d="M 50.890966 121.58921 
L 51.500913 121.58921 
L 51.805887 122.263094 
L 52.415834 122.263094 
L 52.720807 122.936978 
L 53.330755 122.936978 
L 53.635728 123.610863 
L 54.245675 123.610863 
L 54.550649 124.284747 
L 55.46557 124.284747 
L 55.770543 124.958631 
L 56.685464 124.958631 
L 56.990438 125.632515 
L 57.905358 125.632515 
L 58.210332 126.3064 
L 59.7352 126.3064 
L 60.040173 126.980284 
L 61.260068 126.980284 
L 61.565041 127.654168 
L 63.394883 127.654168 
L 63.699856 128.328053 
L 65.529698 128.328053 
L 65.834672 129.001937 
L 67.664513 129.001937 
L 67.969487 129.675821 
L 69.799328 129.675821 
L 70.104302 130.349706 
L 72.239117 130.349706 
L 72.54409 131.02359 
L 74.373932 131.02359 
L 74.678905 131.697474 
L 76.813721 131.697474 
L 77.118694 132.371358 
L 78.948536 132.371358 
L 79.253509 133.045243 
L 81.388324 133.045243 
L 81.693298 133.719127 
L 83.523139 133.719127 
L 83.828113 134.393011 
L 85.962928 134.393011 
L 86.267902 135.066896 
L 88.097743 135.066896 
L 88.402717 135.74078 
L 90.537532 135.74078 
L 90.842505 136.414664 
L 92.672347 136.414664 
L 92.97732 137.088549 
L 95.112136 137.088549 
L 95.417109 137.762433 
L 97.246951 137.762433 
L 97.551924 138.436317 
L 99.686739 138.436317 
L 99.991713 139.110201 
L 101.821554 139.110201 
L 102.126528 139.784086 
L 103.956369 139.784086 
L 104.261343 140.45797 
L 106.396158 140.45797 
L 106.701132 141.131854 
L 108.530973 141.131854 
L 108.835947 141.805739 
L 110.970762 141.805739 
L 111.275735 142.479623 
L 113.105577 142.479623 
L 113.410551 143.153507 
L 115.545366 143.153507 
L 115.850339 143.827392 
L 117.680181 143.827392 
L 117.985154 144.501276 
L 120.119969 144.501276 
L 120.424943 145.17516 
L 122.559758 145.17516 
L 122.864732 145.849044 
L 124.694573 145.849044 
L 124.999547 146.522929 
L 127.134362 146.522929 
L 127.439335 147.196813 
L 129.269177 147.196813 
L 129.57415 147.870697 
L 131.708966 147.870697 
L 132.013939 148.544582 
L 134.148754 148.544582 
L 134.453728 149.218466 
L 136.283569 149.218466 
L 136.588543 149.89235 
L 138.723358 149.89235 
L 139.028332 150.566235 
L 141.163147 150.566235 
L 141.46812 151.240119 
L 143.602935 151.240119 
L 143.907909 151.914003 
L 145.73775 151.914003 
L 146.042724 152.587887 
L 148.177539 152.587887 
L 148.482513 153.261772 
L 150.617328 153.261772 
L 150.922301 153.935656 
L 153.057116 153.935656 
L 153.36209 154.60954 
L 155.496905 154.60954 
L 155.801879 155.283425 
L 157.63172 155.283425 
L 157.936694 155.957309 
L 160.071509 155.957309 
L 160.376482 156.631193 
L 162.511297 156.631193 
L 162.816271 157.305077 
L 164.951086 157.305077 
L 165.25606 157.978962 
L 167.390875 157.978962 
L 167.695848 158.652846 
L 169.830663 158.652846 
L 170.135637 159.32673 
L 172.270452 159.32673 
L 172.575426 160.000615 
L 174.710241 160.000615 
L 175.015214 160.674499 
L 177.150029 160.674499 
L 177.455003 161.348383 
L 179.589818 161.348383 
L 179.894792 162.022268 
L 182.029607 162.022268 
L 182.33458 162.696152 
L 184.469395 162.696152 
L 184.774369 163.370036 
L 186.909184 163.370036 
L 187.214158 164.04392 
L 189.348973 164.04392 
L 189.653946 164.717805 
L 192.093735 164.717805 
L 192.398709 165.391689 
L 194.533524 165.391689 
L 194.838497 166.065573 
L 196.973312 166.065573 
L 197.278286 166.739458 
L 199.413101 166.739458 
L 199.718075 167.413342 
L 202.462837 167.413342 
L 202.767811 166.739458 
L 203.072784 166.739458 
L 203.072784 166.739458 
" clip-path="url(#pb03bdf94c5)" style="fill: none; stroke-dasharray: 5.55,2.4; stroke-dashoffset: 0; stroke: #5ec962; stroke-width: 1.5"/>
   </g>
   <g id="line2d_21">
    <path d="M 60.955094 98.003259 
L 61.260068 98.677144 
L 61.565041 98.677144 
L 61.870015 99.351028 
L 62.174988 99.351028 
L 62.479962 100.024912 
L 63.089909 100.024912 
L 63.394883 100.698796 
L 64.00483 100.698796 
L 64.309804 101.372681 
L 64.919751 101.372681 
L 65.224724 102.046565 
L 65.834672 102.046565 
L 66.139645 102.720449 
L 66.749592 102.720449 
L 67.054566 103.394334 
L 67.969487 103.394334 
L 68.27446 104.068218 
L 68.884407 104.068218 
L 69.189381 104.742102 
L 69.799328 104.742102 
L 70.104302 105.415987 
L 71.019222 105.415987 
L 71.324196 106.089871 
L 71.934143 106.089871 
L 72.239117 106.763755 
L 73.154038 106.763755 
L 73.459011 107.437639 
L 74.068958 107.437639 
L 74.373932 108.111524 
L 75.288853 108.111524 
L 75.593826 108.785408 
L 76.203773 108.785408 
L 76.508747 109.459292 
L 77.423668 109.459292 
L 77.728641 110.133177 
L 78.338588 110.133177 
L 78.643562 110.807061 
L 79.558483 110.807061 
L 79.863456 111.480945 
L 80.778377 111.480945 
L 81.083351 112.15483 
L 81.998271 112.15483 
L 82.303245 112.828714 
L 83.218166 112.828714 
L 83.523139 113.502598 
L 84.43806 113.502598 
L 84.743034 114.176482 
L 85.657954 114.176482 
L 85.962928 114.850367 
L 86.877849 114.850367 
L 87.182822 115.524251 
L 88.097743 115.524251 
L 88.402717 116.198135 
L 89.317637 116.198135 
L 89.622611 116.87202 
L 90.537532 116.87202 
L 90.842505 117.545904 
L 91.757426 117.545904 
L 92.0624 118.219788 
L 93.282294 118.219788 
L 93.587268 118.893673 
L 94.502188 118.893673 
L 94.807162 119.567557 
L 95.722083 119.567557 
L 96.027056 120.241441 
L 97.246951 120.241441 
L 97.551924 120.915325 
L 98.466845 120.915325 
L 98.771819 121.58921 
L 99.991713 121.58921 
L 100.296686 122.263094 
L 101.211607 122.263094 
L 101.516581 122.936978 
L 102.736475 122.936978 
L 103.041449 123.610863 
L 104.261343 123.610863 
L 104.566317 124.284747 
L 105.481237 124.284747 
L 105.786211 124.958631 
L 107.006105 124.958631 
L 107.311079 125.632515 
L 108.530973 125.632515 
L 108.835947 126.3064 
L 110.055841 126.3064 
L 110.360815 126.980284 
L 111.580709 126.980284 
L 111.885683 127.654168 
L 113.105577 127.654168 
L 113.410551 128.328053 
L 114.630445 128.328053 
L 114.935418 129.001937 
L 116.155313 129.001937 
L 116.460286 129.675821 
L 117.680181 129.675821 
L 117.985154 130.349706 
L 119.205049 130.349706 
L 119.510022 131.02359 
L 121.03489 131.02359 
L 121.339864 131.697474 
L 122.559758 131.697474 
L 122.864732 132.371358 
L 124.084626 132.371358 
L 124.3896 133.045243 
L 125.914467 133.045243 
L 126.219441 133.719127 
L 127.439335 133.719127 
L 127.744309 134.393011 
L 129.269177 134.393011 
L 129.57415 135.066896 
L 130.794045 135.066896 
L 131.099018 135.74078 
L 132.623886 135.74078 
L 132.92886 136.414664 
L 134.453728 136.414664 
L 134.758701 137.088549 
L 135.978596 137.088549 
L 136.283569 137.762433 
L 137.808437 137.762433 
L 138.113411 138.436317 
L 139.638279 138.436317 
L 139.943252 139.110201 
L 141.46812 139.110201 
L 141.773094 139.784086 
L 143.297962 139.784086 
L 143.602935 140.45797 
L 145.127803 140.45797 
L 145.432777 141.131854 
L 146.957645 141.131854 
L 147.262618 141.805739 
L 148.787486 141.805739 
L 149.09246 142.479623 
L 150.617328 142.479623 
L 150.922301 143.153507 
L 152.447169 143.153507 
L 152.752143 143.827392 
L 154.277011 143.827392 
L 154.581984 144.501276 
L 156.106852 144.501276 
L 156.411826 145.17516 
L 158.241667 145.17516 
L 158.546641 145.849044 
L 160.071509 145.849044 
L 160.376482 146.522929 
L 161.90135 146.522929 
L 162.206324 147.196813 
L 164.036165 147.196813 
L 164.341139 147.870697 
L 165.866007 147.870697 
L 166.17098 148.544582 
L 168.000822 148.544582 
L 168.305796 149.218466 
L 169.830663 149.218466 
L 170.135637 149.89235 
L 171.965479 149.89235 
L 172.270452 150.566235 
L 173.79532 150.566235 
L 174.100294 151.240119 
L 175.930135 151.240119 
L 176.235109 151.914003 
L 178.06495 151.914003 
L 178.369924 152.587887 
L 180.199765 152.587887 
L 180.504739 153.261772 
L 182.029607 153.261772 
L 182.33458 153.935656 
L 184.164422 153.935656 
L 184.469395 154.60954 
L 186.299237 154.60954 
L 186.604211 155.283425 
L 188.434052 155.283425 
L 188.739026 155.957309 
L 190.568867 155.957309 
L 190.873841 156.631193 
L 192.703682 156.631193 
L 193.008656 157.305077 
L 194.838497 157.305077 
L 195.143471 157.978962 
L 196.973312 157.978962 
L 197.278286 158.652846 
L 199.108128 158.652846 
L 199.413101 159.32673 
L 200.937969 159.32673 
L 201.242943 160.000615 
L 201.85289 160.000615 
L 202.157863 160.674499 
L 202.462837 160.674499 
L 202.767811 161.348383 
L 203.072784 161.348383 
L 203.072784 161.348383 
" clip-path="url(#pb03bdf94c5)" style="fill: none; stroke: #5ec962; stroke-width: 1.5; stroke-linecap: square"/>
   </g>
   <g id="line2d_22">
    <path d="M 60.955094 96.655491 
L 61.260068 95.981606 
L 61.565041 95.981606 
L 61.870015 95.307722 
L 62.174988 95.307722 
L 62.479962 94.633838 
L 63.089909 94.633838 
L 63.394883 93.959954 
L 64.00483 93.959954 
L 64.309804 93.286069 
L 64.919751 93.286069 
L 65.224724 92.612185 
L 65.834672 92.612185 
L 66.139645 91.938301 
L 66.749592 91.938301 
L 67.054566 91.264416 
L 67.969487 91.264416 
L 68.27446 90.590532 
L 68.884407 90.590532 
L 69.189381 89.916648 
L 69.799328 89.916648 
L 70.104302 89.242763 
L 71.019222 89.242763 
L 71.324196 88.568879 
L 71.934143 88.568879 
L 72.239117 87.894995 
L 73.154038 87.894995 
L 73.459011 87.221111 
L 74.068958 87.221111 
L 74.373932 86.547226 
L 75.288853 86.547226 
L 75.593826 85.873342 
L 76.203773 85.873342 
L 76.508747 85.199458 
L 77.423668 85.199458 
L 77.728641 84.525573 
L 78.338588 84.525573 
L 78.643562 83.851689 
L 79.558483 83.851689 
L 79.863456 83.177805 
L 80.778377 83.177805 
L 81.083351 82.50392 
L 81.998271 82.50392 
L 82.303245 81.830036 
L 83.218166 81.830036 
L 83.523139 81.156152 
L 84.43806 81.156152 
L 84.743034 80.482268 
L 85.657954 80.482268 
L 85.962928 79.808383 
L 86.877849 79.808383 
L 87.182822 79.134499 
L 88.097743 79.134499 
L 88.402717 78.460615 
L 89.317637 78.460615 
L 89.622611 77.78673 
L 90.537532 77.78673 
L 90.842505 77.112846 
L 91.757426 77.112846 
L 92.0624 76.438962 
L 93.282294 76.438962 
L 93.587268 75.765077 
L 94.502188 75.765077 
L 94.807162 75.091193 
L 95.722083 75.091193 
L 96.027056 74.417309 
L 97.246951 74.417309 
L 97.551924 73.743425 
L 98.466845 73.743425 
L 98.771819 73.06954 
L 99.991713 73.06954 
L 100.296686 72.395656 
L 101.211607 72.395656 
L 101.516581 71.721772 
L 102.736475 71.721772 
L 103.041449 71.047887 
L 104.261343 71.047887 
L 104.566317 70.374003 
L 105.481237 70.374003 
L 105.786211 69.700119 
L 107.006105 69.700119 
L 107.311079 69.026235 
L 108.530973 69.026235 
L 108.835947 68.35235 
L 110.055841 68.35235 
L 110.360815 67.678466 
L 111.580709 67.678466 
L 111.885683 67.004582 
L 113.105577 67.004582 
L 113.410551 66.330697 
L 114.630445 66.330697 
L 114.935418 65.656813 
L 116.155313 65.656813 
L 116.460286 64.982929 
L 117.680181 64.982929 
L 117.985154 64.309044 
L 119.205049 64.309044 
L 119.510022 63.63516 
L 121.03489 63.63516 
L 121.339864 62.961276 
L 122.559758 62.961276 
L 122.864732 62.287392 
L 124.084626 62.287392 
L 124.3896 61.613507 
L 125.914467 61.613507 
L 126.219441 60.939623 
L 127.439335 60.939623 
L 127.744309 60.265739 
L 129.269177 60.265739 
L 129.57415 59.591854 
L 130.794045 59.591854 
L 131.099018 58.91797 
L 132.623886 58.91797 
L 132.92886 58.244086 
L 134.453728 58.244086 
L 134.758701 57.570201 
L 135.978596 57.570201 
L 136.283569 56.896317 
L 137.808437 56.896317 
L 138.113411 56.222433 
L 139.638279 56.222433 
L 139.943252 55.548549 
L 141.46812 55.548549 
L 141.773094 54.874664 
L 143.297962 54.874664 
L 143.602935 54.20078 
L 145.127803 54.20078 
L 145.432777 53.526896 
L 146.957645 53.526896 
L 147.262618 52.853011 
L 148.787486 52.853011 
L 149.09246 52.179127 
L 150.617328 52.179127 
L 150.922301 51.505243 
L 152.447169 51.505243 
L 152.752143 50.831358 
L 154.277011 50.831358 
L 154.581984 50.157474 
L 156.106852 50.157474 
L 156.411826 49.48359 
L 158.241667 49.48359 
L 158.546641 48.809706 
L 160.071509 48.809706 
L 160.376482 48.135821 
L 161.90135 48.135821 
L 162.206324 47.461937 
L 164.036165 47.461937 
L 164.341139 46.788053 
L 165.866007 46.788053 
L 166.17098 46.114168 
L 168.000822 46.114168 
L 168.305796 45.440284 
L 169.830663 45.440284 
L 170.135637 44.7664 
L 171.965479 44.7664 
L 172.270452 44.092515 
L 173.79532 44.092515 
L 174.100294 43.418631 
L 175.930135 43.418631 
L 176.235109 42.744747 
L 178.06495 42.744747 
L 178.369924 42.070863 
L 180.199765 42.070863 
L 180.504739 41.396978 
L 182.029607 41.396978 
L 182.33458 40.723094 
L 184.164422 40.723094 
L 184.469395 40.04921 
L 186.299237 40.04921 
L 186.604211 39.375325 
L 188.434052 39.375325 
L 188.739026 38.701441 
L 190.568867 38.701441 
L 190.873841 38.027557 
L 192.703682 38.027557 
L 193.008656 37.353673 
L 194.838497 37.353673 
L 195.143471 36.679788 
L 196.973312 36.679788 
L 197.278286 36.005904 
L 199.108128 36.005904 
L 199.413101 35.33202 
L 200.937969 35.33202 
L 201.242943 34.658135 
L 201.85289 34.658135 
L 202.157863 33.984251 
L 202.462837 33.984251 
L 202.767811 33.310367 
L 203.072784 33.310367 
L 203.072784 33.310367 
" clip-path="url(#pb03bdf94c5)" style="fill: none; stroke: #5ec962; stroke-width: 1.5; stroke-linecap: square"/>
   </g>
   <g id="line2d_23">
    <path d="M 50.890966 74.417309 
L 51.195939 74.417309 
L 51.500913 73.743425 
L 51.805887 73.743425 
L 52.11086 73.06954 
L 52.415834 73.06954 
L 52.720807 72.395656 
L 53.330755 72.395656 
L 53.635728 71.721772 
L 54.245675 71.721772 
L 54.550649 71.047887 
L 55.160596 71.047887 
L 55.46557 70.374003 
L 56.075517 70.374003 
L 56.38049 69.700119 
L 57.295411 69.700119 
L 57.600385 69.026235 
L 58.820279 69.026235 
L 59.125253 68.35235 
L 60.345147 68.35235 
L 60.650121 67.678466 
L 61.870015 67.678466 
L 62.174988 67.004582 
L 63.699856 67.004582 
L 64.00483 66.330697 
L 65.834672 66.330697 
L 66.139645 65.656813 
L 67.664513 65.656813 
L 67.969487 64.982929 
L 69.494355 64.982929 
L 69.799328 64.309044 
L 71.62917 64.309044 
L 71.934143 63.63516 
L 73.459011 63.63516 
L 73.763985 62.961276 
L 75.593826 62.961276 
L 75.8988 62.287392 
L 77.423668 62.287392 
L 77.728641 61.613507 
L 79.558483 61.613507 
L 79.863456 60.939623 
L 81.388324 60.939623 
L 81.693298 60.265739 
L 83.523139 60.265739 
L 83.828113 59.591854 
L 85.657954 59.591854 
L 85.962928 58.91797 
L 87.487796 58.91797 
L 87.79277 58.244086 
L 89.622611 58.244086 
L 89.927585 57.570201 
L 91.757426 57.570201 
L 92.0624 56.896317 
L 93.587268 56.896317 
L 93.892241 56.222433 
L 95.722083 56.222433 
L 96.027056 55.548549 
L 97.856898 55.548549 
L 98.161871 54.874664 
L 99.686739 54.874664 
L 99.991713 54.20078 
L 101.821554 54.20078 
L 102.126528 53.526896 
L 103.956369 53.526896 
L 104.261343 52.853011 
L 106.091185 52.853011 
L 106.396158 52.179127 
L 108.226 52.179127 
L 108.530973 51.505243 
L 110.055841 51.505243 
L 110.360815 50.831358 
L 112.190656 50.831358 
L 112.49563 50.157474 
L 114.325471 50.157474 
L 114.630445 49.48359 
L 116.460286 49.48359 
L 116.76526 48.809706 
L 118.595101 48.809706 
L 118.900075 48.135821 
L 120.424943 48.135821 
L 120.729917 47.461937 
L 122.559758 47.461937 
L 122.864732 46.788053 
L 124.694573 46.788053 
L 124.999547 46.114168 
L 126.829388 46.114168 
L 127.134362 45.440284 
L 128.964203 45.440284 
L 129.269177 44.7664 
L 131.099018 44.7664 
L 131.403992 44.092515 
L 133.233833 44.092515 
L 133.538807 43.418631 
L 135.368649 43.418631 
L 135.673622 42.744747 
L 137.503464 42.744747 
L 137.808437 42.070863 
L 139.638279 42.070863 
L 139.943252 41.396978 
L 141.773094 41.396978 
L 142.078067 40.723094 
L 143.907909 40.723094 
L 144.212882 40.04921 
L 146.042724 40.04921 
L 146.347698 39.375325 
L 148.177539 39.375325 
L 148.482513 38.701441 
L 150.312354 38.701441 
L 150.617328 38.027557 
L 152.447169 38.027557 
L 152.752143 37.353673 
L 154.581984 37.353673 
L 154.886958 36.679788 
L 157.021773 36.679788 
L 157.326747 36.005904 
L 159.156588 36.005904 
L 159.461562 35.33202 
L 161.291403 35.33202 
L 161.596377 34.658135 
L 163.426218 34.658135 
L 163.731192 33.984251 
L 165.561033 33.984251 
L 165.866007 33.310367 
L 167.695848 33.310367 
L 168.000822 32.636482 
L 170.135637 32.636482 
L 170.440611 31.962598 
L 172.270452 31.962598 
L 172.575426 31.288714 
L 174.405267 31.288714 
L 174.710241 30.61483 
L 176.540082 30.61483 
L 176.845056 29.940945 
L 178.979871 29.940945 
L 179.284845 29.267061 
L 181.114686 29.267061 
L 181.41966 28.593177 
L 183.249501 28.593177 
L 183.554475 27.919292 
L 185.68929 27.919292 
L 185.994263 27.245408 
L 187.824105 27.245408 
L 188.129078 26.571524 
L 189.95892 26.571524 
L 190.263894 25.897639 
L 192.093735 25.897639 
L 192.398709 25.223755 
L 194.533524 25.223755 
L 194.838497 24.549871 
L 196.668339 24.549871 
L 196.973312 23.875987 
L 199.108128 23.875987 
L 199.413101 23.202102 
L 202.462837 23.202102 
L 202.767811 23.875987 
L 203.072784 23.875987 
L 203.072784 23.875987 
" clip-path="url(#pb03bdf94c5)" style="fill: none; stroke-dasharray: 5.55,2.4; stroke-dashoffset: 0; stroke: #fde725; stroke-width: 1.5"/>
   </g>
   <g id="line2d_24">
    <path d="M 50.890966 120.241441 
L 51.195939 120.241441 
L 51.500913 120.915325 
L 51.805887 120.915325 
L 52.11086 121.58921 
L 52.415834 121.58921 
L 52.720807 122.263094 
L 53.330755 122.263094 
L 53.635728 122.936978 
L 54.245675 122.936978 
L 54.550649 123.610863 
L 55.160596 123.610863 
L 55.46557 124.284747 
L 56.075517 124.284747 
L 56.38049 124.958631 
L 57.295411 124.958631 
L 57.600385 125.632515 
L 58.820279 125.632515 
L 59.125253 126.3064 
L 60.345147 126.3064 
L 60.650121 126.980284 
L 61.870015 126.980284 
L 62.174988 127.654168 
L 63.699856 127.654168 
L 64.00483 128.328053 
L 65.834672 128.328053 
L 66.139645 129.001937 
L 67.664513 129.001937 
L 67.969487 129.675821 
L 69.494355 129.675821 
L 69.799328 130.349706 
L 71.62917 130.349706 
L 71.934143 131.02359 
L 73.459011 131.02359 
L 73.763985 131.697474 
L 75.593826 131.697474 
L 75.8988 132.371358 
L 77.423668 132.371358 
L 77.728641 133.045243 
L 79.558483 133.045243 
L 79.863456 133.719127 
L 81.388324 133.719127 
L 81.693298 134.393011 
L 83.523139 134.393011 
L 83.828113 135.066896 
L 85.657954 135.066896 
L 85.962928 135.74078 
L 87.487796 135.74078 
L 87.79277 136.414664 
L 89.622611 136.414664 
L 89.927585 137.088549 
L 91.757426 137.088549 
L 92.0624 137.762433 
L 93.587268 137.762433 
L 93.892241 138.436317 
L 95.722083 138.436317 
L 96.027056 139.110201 
L 97.856898 139.110201 
L 98.161871 139.784086 
L 99.686739 139.784086 
L 99.991713 140.45797 
L 101.821554 140.45797 
L 102.126528 141.131854 
L 103.956369 141.131854 
L 104.261343 141.805739 
L 106.091185 141.805739 
L 106.396158 142.479623 
L 108.226 142.479623 
L 108.530973 143.153507 
L 110.055841 143.153507 
L 110.360815 143.827392 
L 112.190656 143.827392 
L 112.49563 144.501276 
L 114.325471 144.501276 
L 114.630445 145.17516 
L 116.460286 145.17516 
L 116.76526 145.849044 
L 118.595101 145.849044 
L 118.900075 146.522929 
L 120.424943 146.522929 
L 120.729917 147.196813 
L 122.559758 147.196813 
L 122.864732 147.870697 
L 124.694573 147.870697 
L 124.999547 148.544582 
L 126.829388 148.544582 
L 127.134362 149.218466 
L 128.964203 149.218466 
L 129.269177 149.89235 
L 131.099018 149.89235 
L 131.403992 150.566235 
L 133.233833 150.566235 
L 133.538807 151.240119 
L 135.368649 151.240119 
L 135.673622 151.914003 
L 137.503464 151.914003 
L 137.808437 152.587887 
L 139.638279 152.587887 
L 139.943252 153.261772 
L 141.773094 153.261772 
L 142.078067 153.935656 
L 143.907909 153.935656 
L 144.212882 154.60954 
L 146.042724 154.60954 
L 146.347698 155.283425 
L 148.177539 155.283425 
L 148.482513 155.957309 
L 150.312354 155.957309 
L 150.617328 156.631193 
L 152.447169 156.631193 
L 152.752143 157.305077 
L 154.581984 157.305077 
L 154.886958 157.978962 
L 157.021773 157.978962 
L 157.326747 158.652846 
L 159.156588 158.652846 
L 159.461562 159.32673 
L 161.291403 159.32673 
L 161.596377 160.000615 
L 163.426218 160.000615 
L 163.731192 160.674499 
L 165.561033 160.674499 
L 165.866007 161.348383 
L 167.695848 161.348383 
L 168.000822 162.022268 
L 170.135637 162.022268 
L 170.440611 162.696152 
L 172.270452 162.696152 
L 172.575426 163.370036 
L 174.405267 163.370036 
L 174.710241 164.04392 
L 176.540082 164.04392 
L 176.845056 164.717805 
L 178.979871 164.717805 
L 179.284845 165.391689 
L 181.114686 165.391689 
L 181.41966 166.065573 
L 183.249501 166.065573 
L 183.554475 166.739458 
L 185.68929 166.739458 
L 185.994263 167.413342 
L 187.824105 167.413342 
L 188.129078 168.087226 
L 189.95892 168.087226 
L 190.263894 168.761111 
L 192.093735 168.761111 
L 192.398709 169.434995 
L 194.533524 169.434995 
L 194.838497 170.108879 
L 196.668339 170.108879 
L 196.973312 170.782763 
L 199.108128 170.782763 
L 199.413101 171.456648 
L 202.462837 171.456648 
L 202.767811 170.782763 
L 203.072784 170.782763 
L 203.072784 170.782763 
" clip-path="url(#pb03bdf94c5)" style="fill: none; stroke-dasharray: 5.55,2.4; stroke-dashoffset: 0; stroke: #fde725; stroke-width: 1.5"/>
   </g>
   <g id="line2d_25">
    <path d="M 61.565041 98.003259 
L 61.870015 98.677144 
L 62.174988 98.677144 
L 62.479962 99.351028 
L 62.784936 99.351028 
L 63.089909 100.024912 
L 63.394883 100.024912 
L 63.699856 100.698796 
L 64.309804 100.698796 
L 64.614777 101.372681 
L 65.224724 101.372681 
L 65.529698 102.046565 
L 66.139645 102.046565 
L 66.444619 102.720449 
L 67.054566 102.720449 
L 67.359539 103.394334 
L 67.969487 103.394334 
L 68.27446 104.068218 
L 68.884407 104.068218 
L 69.189381 104.742102 
L 69.799328 104.742102 
L 70.104302 105.415987 
L 70.714249 105.415987 
L 71.019222 106.089871 
L 71.62917 106.089871 
L 71.934143 106.763755 
L 72.54409 106.763755 
L 72.849064 107.437639 
L 73.459011 107.437639 
L 73.763985 108.111524 
L 74.373932 108.111524 
L 74.678905 108.785408 
L 75.593826 108.785408 
L 75.8988 109.459292 
L 76.508747 109.459292 
L 76.813721 110.133177 
L 77.423668 110.133177 
L 77.728641 110.807061 
L 78.643562 110.807061 
L 78.948536 111.480945 
L 79.558483 111.480945 
L 79.863456 112.15483 
L 80.473404 112.15483 
L 80.778377 112.828714 
L 81.693298 112.828714 
L 81.998271 113.502598 
L 82.608219 113.502598 
L 82.913192 114.176482 
L 83.828113 114.176482 
L 84.133087 114.850367 
L 85.048007 114.850367 
L 85.352981 115.524251 
L 85.962928 115.524251 
L 86.267902 116.198135 
L 87.182822 116.198135 
L 87.487796 116.87202 
L 88.402717 116.87202 
L 88.70769 117.545904 
L 89.622611 117.545904 
L 89.927585 118.219788 
L 90.537532 118.219788 
L 90.842505 118.893673 
L 91.757426 118.893673 
L 92.0624 119.567557 
L 92.97732 119.567557 
L 93.282294 120.241441 
L 94.197215 120.241441 
L 94.502188 120.915325 
L 95.417109 120.915325 
L 95.722083 121.58921 
L 96.941977 121.58921 
L 97.246951 122.263094 
L 98.161871 122.263094 
L 98.466845 122.936978 
L 99.381766 122.936978 
L 99.686739 123.610863 
L 100.60166 123.610863 
L 100.906634 124.284747 
L 101.821554 124.284747 
L 102.126528 124.958631 
L 103.346422 124.958631 
L 103.651396 125.632515 
L 104.566317 125.632515 
L 104.87129 126.3064 
L 106.091185 126.3064 
L 106.396158 126.980284 
L 107.311079 126.980284 
L 107.616052 127.654168 
L 108.835947 127.654168 
L 109.14092 128.328053 
L 110.055841 128.328053 
L 110.360815 129.001937 
L 111.580709 129.001937 
L 111.885683 129.675821 
L 112.800603 129.675821 
L 113.105577 130.349706 
L 114.325471 130.349706 
L 114.630445 131.02359 
L 115.850339 131.02359 
L 116.155313 131.697474 
L 117.375207 131.697474 
L 117.680181 132.371358 
L 118.900075 132.371358 
L 119.205049 133.045243 
L 120.424943 133.045243 
L 120.729917 133.719127 
L 121.949811 133.719127 
L 122.254784 134.393011 
L 123.474679 134.393011 
L 123.779652 135.066896 
L 124.999547 135.066896 
L 125.30452 135.74078 
L 126.524415 135.74078 
L 126.829388 136.414664 
L 128.049283 136.414664 
L 128.354256 137.088549 
L 129.57415 137.088549 
L 129.879124 137.762433 
L 131.099018 137.762433 
L 131.403992 138.436317 
L 132.623886 138.436317 
L 132.92886 139.110201 
L 134.453728 139.110201 
L 134.758701 139.784086 
L 135.978596 139.784086 
L 136.283569 140.45797 
L 137.503464 140.45797 
L 137.808437 141.131854 
L 139.333305 141.131854 
L 139.638279 141.805739 
L 140.858173 141.805739 
L 141.163147 142.479623 
L 142.688015 142.479623 
L 142.992988 143.153507 
L 144.212882 143.153507 
L 144.517856 143.827392 
L 146.042724 143.827392 
L 146.347698 144.501276 
L 147.872565 144.501276 
L 148.177539 145.17516 
L 149.397433 145.17516 
L 149.702407 145.849044 
L 151.227275 145.849044 
L 151.532248 146.522929 
L 153.057116 146.522929 
L 153.36209 147.196813 
L 154.581984 147.196813 
L 154.886958 147.870697 
L 156.411826 147.870697 
L 156.716799 148.544582 
L 158.241667 148.544582 
L 158.546641 149.218466 
L 160.071509 149.218466 
L 160.376482 149.89235 
L 161.90135 149.89235 
L 162.206324 150.566235 
L 163.731192 150.566235 
L 164.036165 151.240119 
L 165.561033 151.240119 
L 165.866007 151.914003 
L 167.390875 151.914003 
L 167.695848 152.587887 
L 169.220716 152.587887 
L 169.52569 153.261772 
L 171.050558 153.261772 
L 171.355531 153.935656 
L 172.880399 153.935656 
L 173.185373 154.60954 
L 174.710241 154.60954 
L 175.015214 155.283425 
L 176.540082 155.283425 
L 176.845056 155.957309 
L 178.369924 155.957309 
L 178.674897 156.631193 
L 180.504739 156.631193 
L 180.809712 157.305077 
L 182.33458 157.305077 
L 182.639554 157.978962 
L 184.164422 157.978962 
L 184.469395 158.652846 
L 185.994263 158.652846 
L 186.299237 159.32673 
L 188.129078 159.32673 
L 188.434052 160.000615 
L 189.95892 160.000615 
L 190.263894 160.674499 
L 191.788762 160.674499 
L 192.093735 161.348383 
L 193.923577 161.348383 
L 194.22855 162.022268 
L 195.753418 162.022268 
L 196.058392 162.696152 
L 197.888233 162.696152 
L 198.193207 163.370036 
L 199.718075 163.370036 
L 200.023048 164.04392 
L 201.242943 164.04392 
L 201.547916 164.717805 
L 202.157863 164.717805 
L 202.767811 166.065573 
L 203.072784 166.065573 
L 203.072784 166.065573 
" clip-path="url(#pb03bdf94c5)" style="fill: none; stroke: #fde725; stroke-width: 1.5; stroke-linecap: square"/>
   </g>
   <g id="line2d_26">
    <path d="M 61.565041 96.655491 
L 61.870015 95.981606 
L 62.174988 95.981606 
L 62.479962 95.307722 
L 62.784936 95.307722 
L 63.089909 94.633838 
L 63.394883 94.633838 
L 63.699856 93.959954 
L 64.309804 93.959954 
L 64.614777 93.286069 
L 65.224724 93.286069 
L 65.529698 92.612185 
L 66.139645 92.612185 
L 66.444619 91.938301 
L 67.054566 91.938301 
L 67.359539 91.264416 
L 67.969487 91.264416 
L 68.27446 90.590532 
L 68.884407 90.590532 
L 69.189381 89.916648 
L 69.799328 89.916648 
L 70.104302 89.242763 
L 70.714249 89.242763 
L 71.019222 88.568879 
L 71.62917 88.568879 
L 71.934143 87.894995 
L 72.54409 87.894995 
L 72.849064 87.221111 
L 73.459011 87.221111 
L 73.763985 86.547226 
L 74.373932 86.547226 
L 74.678905 85.873342 
L 75.593826 85.873342 
L 75.8988 85.199458 
L 76.508747 85.199458 
L 76.813721 84.525573 
L 77.423668 84.525573 
L 77.728641 83.851689 
L 78.643562 83.851689 
L 78.948536 83.177805 
L 79.558483 83.177805 
L 79.863456 82.50392 
L 80.473404 82.50392 
L 80.778377 81.830036 
L 81.693298 81.830036 
L 81.998271 81.156152 
L 82.608219 81.156152 
L 82.913192 80.482268 
L 83.828113 80.482268 
L 84.133087 79.808383 
L 85.048007 79.808383 
L 85.352981 79.134499 
L 85.962928 79.134499 
L 86.267902 78.460615 
L 87.182822 78.460615 
L 87.487796 77.78673 
L 88.402717 77.78673 
L 88.70769 77.112846 
L 89.622611 77.112846 
L 89.927585 76.438962 
L 90.537532 76.438962 
L 90.842505 75.765077 
L 91.757426 75.765077 
L 92.0624 75.091193 
L 92.97732 75.091193 
L 93.282294 74.417309 
L 94.197215 74.417309 
L 94.502188 73.743425 
L 95.417109 73.743425 
L 95.722083 73.06954 
L 96.941977 73.06954 
L 97.246951 72.395656 
L 98.161871 72.395656 
L 98.466845 71.721772 
L 99.381766 71.721772 
L 99.686739 71.047887 
L 100.60166 71.047887 
L 100.906634 70.374003 
L 101.821554 70.374003 
L 102.126528 69.700119 
L 103.346422 69.700119 
L 103.651396 69.026235 
L 104.566317 69.026235 
L 104.87129 68.35235 
L 106.091185 68.35235 
L 106.396158 67.678466 
L 107.311079 67.678466 
L 107.616052 67.004582 
L 108.835947 67.004582 
L 109.14092 66.330697 
L 110.055841 66.330697 
L 110.360815 65.656813 
L 111.580709 65.656813 
L 111.885683 64.982929 
L 112.800603 64.982929 
L 113.105577 64.309044 
L 114.325471 64.309044 
L 114.630445 63.63516 
L 115.850339 63.63516 
L 116.155313 62.961276 
L 117.375207 62.961276 
L 117.680181 62.287392 
L 118.900075 62.287392 
L 119.205049 61.613507 
L 120.424943 61.613507 
L 120.729917 60.939623 
L 121.949811 60.939623 
L 122.254784 60.265739 
L 123.474679 60.265739 
L 123.779652 59.591854 
L 124.999547 59.591854 
L 125.30452 58.91797 
L 126.524415 58.91797 
L 126.829388 58.244086 
L 128.049283 58.244086 
L 128.354256 57.570201 
L 129.57415 57.570201 
L 129.879124 56.896317 
L 131.099018 56.896317 
L 131.403992 56.222433 
L 132.623886 56.222433 
L 132.92886 55.548549 
L 134.453728 55.548549 
L 134.758701 54.874664 
L 135.978596 54.874664 
L 136.283569 54.20078 
L 137.503464 54.20078 
L 137.808437 53.526896 
L 139.333305 53.526896 
L 139.638279 52.853011 
L 140.858173 52.853011 
L 141.163147 52.179127 
L 142.688015 52.179127 
L 142.992988 51.505243 
L 144.212882 51.505243 
L 144.517856 50.831358 
L 146.042724 50.831358 
L 146.347698 50.157474 
L 147.872565 50.157474 
L 148.177539 49.48359 
L 149.397433 49.48359 
L 149.702407 48.809706 
L 151.227275 48.809706 
L 151.532248 48.135821 
L 153.057116 48.135821 
L 153.36209 47.461937 
L 154.581984 47.461937 
L 154.886958 46.788053 
L 156.411826 46.788053 
L 156.716799 46.114168 
L 158.241667 46.114168 
L 158.546641 45.440284 
L 160.071509 45.440284 
L 160.376482 44.7664 
L 161.90135 44.7664 
L 162.206324 44.092515 
L 163.731192 44.092515 
L 164.036165 43.418631 
L 165.561033 43.418631 
L 165.866007 42.744747 
L 167.390875 42.744747 
L 167.695848 42.070863 
L 169.220716 42.070863 
L 169.52569 41.396978 
L 171.050558 41.396978 
L 171.355531 40.723094 
L 172.880399 40.723094 
L 173.185373 40.04921 
L 174.710241 40.04921 
L 175.015214 39.375325 
L 176.540082 39.375325 
L 176.845056 38.701441 
L 178.369924 38.701441 
L 178.674897 38.027557 
L 180.504739 38.027557 
L 180.809712 37.353673 
L 182.33458 37.353673 
L 182.639554 36.679788 
L 184.164422 36.679788 
L 184.469395 36.005904 
L 185.994263 36.005904 
L 186.299237 35.33202 
L 188.129078 35.33202 
L 188.434052 34.658135 
L 189.95892 34.658135 
L 190.263894 33.984251 
L 191.788762 33.984251 
L 192.093735 33.310367 
L 193.923577 33.310367 
L 194.22855 32.636482 
L 195.753418 32.636482 
L 196.058392 31.962598 
L 197.888233 31.962598 
L 198.193207 31.288714 
L 199.718075 31.288714 
L 200.023048 30.61483 
L 201.242943 30.61483 
L 201.547916 29.940945 
L 202.157863 29.940945 
L 202.767811 28.593177 
L 203.072784 28.593177 
L 203.072784 28.593177 
" clip-path="url(#pb03bdf94c5)" style="fill: none; stroke: #fde725; stroke-width: 1.5; stroke-linecap: square"/>
   </g>
   <g id="patch_3">
    <path d="M 43.281875 178.869375 
L 43.281875 15.789375 
" style="fill: none; stroke: #000000; stroke-width: 0.8; stroke-linejoin: miter; stroke-linecap: square"/>
   </g>
   <g id="patch_4">
    <path d="M 43.281875 178.869375 
L 210.681875 178.869375 
" style="fill: none; stroke: #000000; stroke-width: 0.8; stroke-linejoin: miter; stroke-linecap: square"/>
   </g>
   <g id="text_9">
    <!-- E -->
    <g transform="translate(18.171875 15.789375)scale(0.12 -0.12)">
     <defs>
      <path id="Arial-BoldMT-45" d="M 466 0 
L 466 4581 
L 3863 4581 
L 3863 3806 
L 1391 3806 
L 1391 2791 
L 3691 2791 
L 3691 2019 
L 1391 2019 
L 1391 772 
L 3950 772 
L 3950 0 
L 466 0 
z
" transform="scale(0.015625)"/>
     </defs>
     <use xlink:href="#Arial-BoldMT-45"/>
    </g>
   </g>
   <g id="legend_1">
    <g id="text_10">
     <!-- $\Delta k$ -->
     <g transform="translate(240.999688 35.17875)scale(0.12 -0.12)">
      <defs>
       <path id="DejaVuSans-394" d="M 2188 4044 
L 906 525 
L 3472 525 
L 2188 4044 
z
M 50 0 
L 1831 4666 
L 2547 4666 
L 4325 0 
L 50 0 
z
" transform="scale(0.015625)"/>
       <path id="DejaVuSans-Oblique-6b" d="M 1172 4863 
L 1747 4863 
L 1197 2028 
L 3169 3500 
L 3916 3500 
L 1716 1825 
L 3322 0 
L 2625 0 
L 1131 1709 
L 800 0 
L 225 0 
L 1172 4863 
z
" transform="scale(0.015625)"/>
      </defs>
      <use xlink:href="#DejaVuSans-394" transform="translate(0 0.015625)"/>
      <use xlink:href="#DejaVuSans-Oblique-6b" transform="translate(68.408203 0.015625)"/>
     </g>
    </g>
    <g id="patch_5">
     <path d="M 221.481875 52.153125 
L 245.481875 52.153125 
L 245.481875 43.753125 
L 221.481875 43.753125 
z
" style="fill: #440154"/>
    </g>
    <g id="text_11">
     <!-- -4.0 -->
     <g transform="translate(255.081875 52.153125)scale(0.12 -0.12)">
      <defs>
       <path id="ArialMT-2d" d="M 203 1375 
L 203 1941 
L 1931 1941 
L 1931 1375 
L 203 1375 
z
" transform="scale(0.015625)"/>
       <path id="ArialMT-34" d="M 2069 0 
L 2069 1097 
L 81 1097 
L 81 1613 
L 2172 4581 
L 2631 4581 
L 2631 1613 
L 3250 1613 
L 3250 1097 
L 2631 1097 
L 2631 0 
L 2069 0 
z
M 2069 1613 
L 2069 3678 
L 634 1613 
L 2069 1613 
z
" transform="scale(0.015625)"/>
       <path id="ArialMT-2e" d="M 581 0 
L 581 641 
L 1222 641 
L 1222 0 
L 581 0 
z
" transform="scale(0.015625)"/>
      </defs>
      <use xlink:href="#ArialMT-2d"/>
      <use xlink:href="#ArialMT-34" x="33.300781"/>
      <use xlink:href="#ArialMT-2e" x="88.916016"/>
      <use xlink:href="#ArialMT-30" x="116.699219"/>
     </g>
    </g>
    <g id="patch_6">
     <path d="M 221.481875 69.1275 
L 245.481875 69.1275 
L 245.481875 60.7275 
L 221.481875 60.7275 
z
" style="fill: #3b528b"/>
    </g>
    <g id="text_12">
     <!-- -2.0 -->
     <g transform="translate(255.081875 69.1275)scale(0.12 -0.12)">
      <use xlink:href="#ArialMT-2d"/>
      <use xlink:href="#ArialMT-32" x="33.300781"/>
      <use xlink:href="#ArialMT-2e" x="88.916016"/>
      <use xlink:href="#ArialMT-30" x="116.699219"/>
     </g>
    </g>
    <g id="patch_7">
     <path d="M 221.481875 86.101875 
L 245.481875 86.101875 
L 245.481875 77.701875 
L 221.481875 77.701875 
z
" style="fill: #21918c"/>
    </g>
    <g id="text_13">
     <!-- 0.0 -->
     <g transform="translate(255.081875 86.101875)scale(0.12 -0.12)">
      <use xlink:href="#ArialMT-30"/>
      <use xlink:href="#ArialMT-2e" x="55.615234"/>
      <use xlink:href="#ArialMT-30" x="83.398438"/>
     </g>
    </g>
    <g id="patch_8">
     <path d="M 221.481875 103.07625 
L 245.481875 103.07625 
L 245.481875 94.67625 
L 221.481875 94.67625 
z
" style="fill: #5ec962"/>
    </g>
    <g id="text_14">
     <!-- 2.0 -->
     <g transform="translate(255.081875 103.07625)scale(0.12 -0.12)">
      <use xlink:href="#ArialMT-32"/>
      <use xlink:href="#ArialMT-2e" x="55.615234"/>
      <use xlink:href="#ArialMT-30" x="83.398438"/>
     </g>
    </g>
    <g id="patch_9">
     <path d="M 221.481875 120.050625 
L 245.481875 120.050625 
L 245.481875 111.650625 
L 221.481875 111.650625 
z
" style="fill: #fde725"/>
    </g>
    <g id="text_15">
     <!-- 4.0 -->
     <g transform="translate(255.081875 120.050625)scale(0.12 -0.12)">
      <use xlink:href="#ArialMT-34"/>
      <use xlink:href="#ArialMT-2e" x="55.615234"/>
      <use xlink:href="#ArialMT-30" x="83.398438"/>
     </g>
    </g>
   </g>
  </g>
 </g>
 <defs>
  <clipPath id="pb03bdf94c5">
   <rect x="43.281875" y="15.789375" width="167.4" height="163.08"/>
  </clipPath>
 </defs>
</svg>
