<?xml version="1.0" encoding="utf-8" standalone="no"?>
<!DOCTYPE svg PUBLIC "-//W3C//DTD SVG 1.1//EN"
  "http://www.w3.org/Graphics/SVG/1.1/DTD/svg11.dtd">
<svg xmlns:xlink="http://www.w3.org/1999/xlink" width="294.430625pt" height="219.44375pt" viewBox="0 0 294.430625 219.44375" xmlns="http://www.w3.org/2000/svg" version="1.1">
 <metadata>
  <rdf:RDF xmlns:dc="http://purl.org/dc/elements/1.1/" xmlns:cc="http://creativecommons.org/ns#" xmlns:rdf="http://www.w3.org/1999/02/22-rdf-syntax-ns#">
   <cc:Work>
    <dc:type rdf:resource="http://purl.org/dc/dcmitype/StillImage"/>
    <dc:date>2023-02-15T17:54:44.627414</dc:date>
    <dc:format>image/svg+xml</dc:format>
    <dc:creator>
     <cc:Agent>
      <dc:title>Matplotlib v3.5.1, https://matplotlib.org/</dc:title>
     </cc:Agent>
    </dc:creator>
   </cc:Work>
  </rdf:RDF>
 </metadata>
 <defs>
  <style type="text/css">*{stroke-linejoin: round; stroke-linecap: butt}</style>
 </defs>
 <g id="figure_1">
  <g id="patch_1">
   <path d="M 0 219.44375 
L 294.430625 219.44375 
L 294.430625 0 
L 0 0 
L 0 219.44375 
z
" style="fill: none"/>
  </g>
  <g id="axes_1">
   <g id="patch_2">
    <path d="M 43.281875 178.869375 
L 210.681875 178.869375 
L 210.681875 15.789375 
L 43.281875 15.789375 
z
" style="fill: #ffffff"/>
   </g>
   <g id="matplotlib.axis_1">
    <g id="xtick_1">
     <g id="line2d_1">
      <defs>
       <path id="m03e3ace2ee" d="M 0 0 
L 0 3.5 
" style="stroke: #000000; stroke-width: 0.8"/>
      </defs>
      <g>
       <use xlink:href="#m03e3ace2ee" x="50.585992" y="178.869375" style="stroke: #000000; stroke-width: 0.8"/>
      </g>
     </g>
     <g id="text_1">
      <!-- 0 -->
      <g transform="translate(47.24943 194.45875)scale(0.12 -0.12)">
       <defs>
        <path id="ArialMT-30" d="M 266 2259 
Q 266 3072 433 3567 
Q 600 4063 929 4331 
Q 1259 4600 1759 4600 
Q 2128 4600 2406 4451 
Q 2684 4303 2865 4023 
Q 3047 3744 3150 3342 
Q 3253 2941 3253 2259 
Q 3253 1453 3087 958 
Q 2922 463 2592 192 
Q 2263 -78 1759 -78 
Q 1097 -78 719 397 
Q 266 969 266 2259 
z
M 844 2259 
Q 844 1131 1108 757 
Q 1372 384 1759 384 
Q 2147 384 2411 759 
Q 2675 1134 2675 2259 
Q 2675 3391 2411 3762 
Q 2147 4134 1753 4134 
Q 1366 4134 1134 3806 
Q 844 3388 844 2259 
z
" transform="scale(0.015625)"/>
       </defs>
       <use xlink:href="#ArialMT-30"/>
      </g>
     </g>
    </g>
    <g id="xtick_2">
     <g id="line2d_2">
      <g>
       <use xlink:href="#m03e3ace2ee" x="126.829388" y="178.869375" style="stroke: #000000; stroke-width: 0.8"/>
      </g>
     </g>
     <g id="text_2">
      <!-- 5 -->
      <g transform="translate(123.492826 194.45875)scale(0.12 -0.12)">
       <defs>
        <path id="ArialMT-35" d="M 266 1200 
L 856 1250 
Q 922 819 1161 601 
Q 1400 384 1738 384 
Q 2144 384 2425 690 
Q 2706 997 2706 1503 
Q 2706 1984 2436 2262 
Q 2166 2541 1728 2541 
Q 1456 2541 1237 2417 
Q 1019 2294 894 2097 
L 366 2166 
L 809 4519 
L 3088 4519 
L 3088 3981 
L 1259 3981 
L 1013 2750 
Q 1425 3038 1878 3038 
Q 2478 3038 2890 2622 
Q 3303 2206 3303 1553 
Q 3303 931 2941 478 
Q 2500 -78 1738 -78 
Q 1113 -78 717 272 
Q 322 622 266 1200 
z
" transform="scale(0.015625)"/>
       </defs>
       <use xlink:href="#ArialMT-35"/>
      </g>
     </g>
    </g>
    <g id="xtick_3">
     <g id="line2d_3">
      <g>
       <use xlink:href="#m03e3ace2ee" x="203.072784" y="178.869375" style="stroke: #000000; stroke-width: 0.8"/>
      </g>
     </g>
     <g id="text_3">
      <!-- 10 -->
      <g transform="translate(196.399659 194.45875)scale(0.12 -0.12)">
       <defs>
        <path id="ArialMT-31" d="M 2384 0 
L 1822 0 
L 1822 3584 
Q 1619 3391 1289 3197 
Q 959 3003 697 2906 
L 697 3450 
Q 1169 3672 1522 3987 
Q 1875 4303 2022 4600 
L 2384 4600 
L 2384 0 
z
" transform="scale(0.015625)"/>
       </defs>
       <use xlink:href="#ArialMT-31"/>
       <use xlink:href="#ArialMT-30" x="55.615234"/>
      </g>
     </g>
    </g>
    <g id="text_4">
     <!-- Time($t$) -->
     <g transform="translate(107.241875 209.60375)scale(0.12 -0.12)">
      <defs>
       <path id="ArialMT-54" d="M 1659 0 
L 1659 4041 
L 150 4041 
L 150 4581 
L 3781 4581 
L 3781 4041 
L 2266 4041 
L 2266 0 
L 1659 0 
z
" transform="scale(0.015625)"/>
       <path id="ArialMT-69" d="M 425 3934 
L 425 4581 
L 988 4581 
L 988 3934 
L 425 3934 
z
M 425 0 
L 425 3319 
L 988 3319 
L 988 0 
L 425 0 
z
" transform="scale(0.015625)"/>
       <path id="ArialMT-6d" d="M 422 0 
L 422 3319 
L 925 3319 
L 925 2853 
Q 1081 3097 1340 3245 
Q 1600 3394 1931 3394 
Q 2300 3394 2536 3241 
Q 2772 3088 2869 2813 
Q 3263 3394 3894 3394 
Q 4388 3394 4653 3120 
Q 4919 2847 4919 2278 
L 4919 0 
L 4359 0 
L 4359 2091 
Q 4359 2428 4304 2576 
Q 4250 2725 4106 2815 
Q 3963 2906 3769 2906 
Q 3419 2906 3187 2673 
Q 2956 2441 2956 1928 
L 2956 0 
L 2394 0 
L 2394 2156 
Q 2394 2531 2256 2718 
Q 2119 2906 1806 2906 
Q 1569 2906 1367 2781 
Q 1166 2656 1075 2415 
Q 984 2175 984 1722 
L 984 0 
L 422 0 
z
" transform="scale(0.015625)"/>
       <path id="ArialMT-65" d="M 2694 1069 
L 3275 997 
Q 3138 488 2766 206 
Q 2394 -75 1816 -75 
Q 1088 -75 661 373 
Q 234 822 234 1631 
Q 234 2469 665 2931 
Q 1097 3394 1784 3394 
Q 2450 3394 2872 2941 
Q 3294 2488 3294 1666 
Q 3294 1616 3291 1516 
L 816 1516 
Q 847 969 1125 678 
Q 1403 388 1819 388 
Q 2128 388 2347 550 
Q 2566 713 2694 1069 
z
M 847 1978 
L 2700 1978 
Q 2663 2397 2488 2606 
Q 2219 2931 1791 2931 
Q 1403 2931 1139 2672 
Q 875 2413 847 1978 
z
" transform="scale(0.015625)"/>
       <path id="ArialMT-28" d="M 1497 -1347 
Q 1031 -759 709 28 
Q 388 816 388 1659 
Q 388 2403 628 3084 
Q 909 3875 1497 4659 
L 1900 4659 
Q 1522 4009 1400 3731 
Q 1209 3300 1100 2831 
Q 966 2247 966 1656 
Q 966 153 1900 -1347 
L 1497 -1347 
z
" transform="scale(0.015625)"/>
       <path id="DejaVuSans-Oblique-74" d="M 2706 3500 
L 2619 3053 
L 1472 3053 
L 1100 1153 
Q 1081 1047 1072 975 
Q 1063 903 1063 863 
Q 1063 663 1183 572 
Q 1303 481 1569 481 
L 2150 481 
L 2053 0 
L 1503 0 
Q 991 0 739 200 
Q 488 400 488 806 
Q 488 878 497 964 
Q 506 1050 525 1153 
L 897 3053 
L 409 3053 
L 500 3500 
L 978 3500 
L 1172 4494 
L 1747 4494 
L 1556 3500 
L 2706 3500 
z
" transform="scale(0.015625)"/>
       <path id="ArialMT-29" d="M 791 -1347 
L 388 -1347 
Q 1322 153 1322 1656 
Q 1322 2244 1188 2822 
Q 1081 3291 891 3722 
Q 769 4003 388 4659 
L 791 4659 
Q 1378 3875 1659 3084 
Q 1900 2403 1900 1659 
Q 1900 816 1576 28 
Q 1253 -759 791 -1347 
z
" transform="scale(0.015625)"/>
      </defs>
      <use xlink:href="#ArialMT-54" transform="translate(0 0.203125)"/>
      <use xlink:href="#ArialMT-69" transform="translate(61.083984 0.203125)"/>
      <use xlink:href="#ArialMT-6d" transform="translate(83.300781 0.203125)"/>
      <use xlink:href="#ArialMT-65" transform="translate(166.601562 0.203125)"/>
      <use xlink:href="#ArialMT-28" transform="translate(222.216797 0.203125)"/>
      <use xlink:href="#DejaVuSans-Oblique-74" transform="translate(255.517578 0.203125)"/>
      <use xlink:href="#ArialMT-29" transform="translate(294.726562 0.203125)"/>
     </g>
    </g>
   </g>
   <g id="matplotlib.axis_2">
    <g id="ytick_1">
     <g id="line2d_4">
      <defs>
       <path id="mf9ec85667d" d="M 0 0 
L -3.5 0 
" style="stroke: #000000; stroke-width: 0.8"/>
      </defs>
      <g>
       <use xlink:href="#mf9ec85667d" x="43.281875" y="142.256948" style="stroke: #000000; stroke-width: 0.8"/>
      </g>
     </g>
     <g id="text_5">
      <!-- −2 -->
      <g transform="translate(22.6 146.551636)scale(0.12 -0.12)">
       <defs>
        <path id="ArialMT-2212" d="M 3381 1997 
L 356 1997 
L 356 2522 
L 3381 2522 
L 3381 1997 
z
" transform="scale(0.015625)"/>
        <path id="ArialMT-32" d="M 3222 541 
L 3222 0 
L 194 0 
Q 188 203 259 391 
Q 375 700 629 1000 
Q 884 1300 1366 1694 
Q 2113 2306 2375 2664 
Q 2638 3022 2638 3341 
Q 2638 3675 2398 3904 
Q 2159 4134 1775 4134 
Q 1369 4134 1125 3890 
Q 881 3647 878 3216 
L 300 3275 
Q 359 3922 746 4261 
Q 1134 4600 1788 4600 
Q 2447 4600 2831 4234 
Q 3216 3869 3216 3328 
Q 3216 3053 3103 2787 
Q 2991 2522 2730 2228 
Q 2469 1934 1863 1422 
Q 1356 997 1212 845 
Q 1069 694 975 541 
L 3222 541 
z
" transform="scale(0.015625)"/>
       </defs>
       <use xlink:href="#ArialMT-2212"/>
       <use xlink:href="#ArialMT-32" x="58.398438"/>
      </g>
     </g>
    </g>
    <g id="ytick_2">
     <g id="line2d_5">
      <g>
       <use xlink:href="#mf9ec85667d" x="43.281875" y="97.007083" style="stroke: #000000; stroke-width: 0.8"/>
      </g>
     </g>
     <g id="text_6">
      <!-- 0 -->
      <g transform="translate(29.60875 101.30177)scale(0.12 -0.12)">
       <use xlink:href="#ArialMT-30"/>
      </g>
     </g>
    </g>
    <g id="ytick_3">
     <g id="line2d_6">
      <g>
       <use xlink:href="#mf9ec85667d" x="43.281875" y="51.757217" style="stroke: #000000; stroke-width: 0.8"/>
      </g>
     </g>
     <g id="text_7">
      <!-- 2 -->
      <g transform="translate(29.60875 56.051904)scale(0.12 -0.12)">
       <use xlink:href="#ArialMT-32"/>
      </g>
     </g>
    </g>
    <g id="text_8">
     <!-- Evidence($x$) -->
     <g transform="translate(15.96 129.609375)rotate(-90)scale(0.12 -0.12)">
      <defs>
       <path id="ArialMT-45" d="M 506 0 
L 506 4581 
L 3819 4581 
L 3819 4041 
L 1113 4041 
L 1113 2638 
L 3647 2638 
L 3647 2100 
L 1113 2100 
L 1113 541 
L 3925 541 
L 3925 0 
L 506 0 
z
" transform="scale(0.015625)"/>
       <path id="ArialMT-76" d="M 1344 0 
L 81 3319 
L 675 3319 
L 1388 1331 
Q 1503 1009 1600 663 
Q 1675 925 1809 1294 
L 2547 3319 
L 3125 3319 
L 1869 0 
L 1344 0 
z
" transform="scale(0.015625)"/>
       <path id="ArialMT-64" d="M 2575 0 
L 2575 419 
Q 2259 -75 1647 -75 
Q 1250 -75 917 144 
Q 584 363 401 755 
Q 219 1147 219 1656 
Q 219 2153 384 2558 
Q 550 2963 881 3178 
Q 1213 3394 1622 3394 
Q 1922 3394 2156 3267 
Q 2391 3141 2538 2938 
L 2538 4581 
L 3097 4581 
L 3097 0 
L 2575 0 
z
M 797 1656 
Q 797 1019 1065 703 
Q 1334 388 1700 388 
Q 2069 388 2326 689 
Q 2584 991 2584 1609 
Q 2584 2291 2321 2609 
Q 2059 2928 1675 2928 
Q 1300 2928 1048 2622 
Q 797 2316 797 1656 
z
" transform="scale(0.015625)"/>
       <path id="ArialMT-6e" d="M 422 0 
L 422 3319 
L 928 3319 
L 928 2847 
Q 1294 3394 1984 3394 
Q 2284 3394 2536 3286 
Q 2788 3178 2913 3003 
Q 3038 2828 3088 2588 
Q 3119 2431 3119 2041 
L 3119 0 
L 2556 0 
L 2556 2019 
Q 2556 2363 2490 2533 
Q 2425 2703 2258 2804 
Q 2091 2906 1866 2906 
Q 1506 2906 1245 2678 
Q 984 2450 984 1813 
L 984 0 
L 422 0 
z
" transform="scale(0.015625)"/>
       <path id="ArialMT-63" d="M 2588 1216 
L 3141 1144 
Q 3050 572 2676 248 
Q 2303 -75 1759 -75 
Q 1078 -75 664 370 
Q 250 816 250 1647 
Q 250 2184 428 2587 
Q 606 2991 970 3192 
Q 1334 3394 1763 3394 
Q 2303 3394 2647 3120 
Q 2991 2847 3088 2344 
L 2541 2259 
Q 2463 2594 2264 2762 
Q 2066 2931 1784 2931 
Q 1359 2931 1093 2626 
Q 828 2322 828 1663 
Q 828 994 1084 691 
Q 1341 388 1753 388 
Q 2084 388 2306 591 
Q 2528 794 2588 1216 
z
" transform="scale(0.015625)"/>
       <path id="DejaVuSans-Oblique-78" d="M 3841 3500 
L 2234 1784 
L 3219 0 
L 2559 0 
L 1819 1388 
L 531 0 
L -166 0 
L 1556 1844 
L 641 3500 
L 1300 3500 
L 1972 2234 
L 3144 3500 
L 3841 3500 
z
" transform="scale(0.015625)"/>
      </defs>
      <use xlink:href="#ArialMT-45" transform="translate(0 0.203125)"/>
      <use xlink:href="#ArialMT-76" transform="translate(66.699219 0.203125)"/>
      <use xlink:href="#ArialMT-69" transform="translate(116.699219 0.203125)"/>
      <use xlink:href="#ArialMT-64" transform="translate(138.916016 0.203125)"/>
      <use xlink:href="#ArialMT-65" transform="translate(194.53125 0.203125)"/>
      <use xlink:href="#ArialMT-6e" transform="translate(250.146484 0.203125)"/>
      <use xlink:href="#ArialMT-63" transform="translate(305.761719 0.203125)"/>
      <use xlink:href="#ArialMT-65" transform="translate(355.761719 0.203125)"/>
      <use xlink:href="#ArialMT-28" transform="translate(411.376953 0.203125)"/>
      <use xlink:href="#DejaVuSans-Oblique-78" transform="translate(444.677734 0.203125)"/>
      <use xlink:href="#ArialMT-29" transform="translate(503.857422 0.203125)"/>
     </g>
    </g>
   </g>
   <g id="line2d_7">
    <path d="M 50.890966 72.190561 
L 51.195939 71.545976 
L 51.805887 71.545976 
L 52.11086 70.901391 
L 52.720807 70.901391 
L 53.025781 70.256806 
L 53.635728 70.256806 
L 53.940702 69.612221 
L 54.550649 69.612221 
L 54.855622 68.967636 
L 55.770543 68.967636 
L 56.075517 68.323051 
L 56.685464 68.323051 
L 56.990438 67.678466 
L 57.905358 67.678466 
L 58.210332 67.033881 
L 59.430226 67.033881 
L 59.7352 66.389296 
L 60.955094 66.389296 
L 61.260068 65.744711 
L 62.479962 65.744711 
L 62.784936 65.100126 
L 64.00483 65.100126 
L 64.309804 64.455541 
L 65.834672 64.455541 
L 66.139645 63.810956 
L 67.664513 63.810956 
L 67.969487 63.166371 
L 69.799328 63.166371 
L 70.104302 62.521786 
L 71.62917 62.521786 
L 71.934143 61.877201 
L 73.763985 61.877201 
L 74.068958 61.232616 
L 75.593826 61.232616 
L 75.8988 60.588031 
L 77.728641 60.588031 
L 78.033615 59.943446 
L 79.558483 59.943446 
L 79.863456 59.298861 
L 81.693298 59.298861 
L 81.998271 58.654276 
L 83.523139 58.654276 
L 83.828113 58.009691 
L 85.657954 58.009691 
L 85.962928 57.365106 
L 87.79277 57.365106 
L 88.097743 56.720521 
L 89.622611 56.720521 
L 89.927585 56.075936 
L 91.757426 56.075936 
L 92.0624 55.431351 
L 93.587268 55.431351 
L 93.892241 54.786766 
L 95.722083 54.786766 
L 96.027056 54.142181 
L 97.856898 54.142181 
L 98.161871 53.497596 
L 99.686739 53.497596 
L 99.991713 52.853011 
L 101.821554 52.853011 
L 102.126528 52.208426 
L 103.956369 52.208426 
L 104.261343 51.563841 
L 105.786211 51.563841 
L 106.091185 50.919256 
L 107.921026 50.919256 
L 108.226 50.274671 
L 110.055841 50.274671 
L 110.360815 49.630086 
L 111.885683 49.630086 
L 112.190656 48.985501 
L 114.020498 48.985501 
L 114.325471 48.340917 
L 116.155313 48.340917 
L 116.460286 47.696332 
L 117.985154 47.696332 
L 118.290128 47.051747 
L 120.119969 47.051747 
L 120.424943 46.407162 
L 122.254784 46.407162 
L 122.559758 45.762577 
L 124.3896 45.762577 
L 124.694573 45.117992 
L 126.524415 45.117992 
L 126.829388 44.473407 
L 128.354256 44.473407 
L 128.65923 43.828822 
L 130.489071 43.828822 
L 130.794045 43.184237 
L 132.623886 43.184237 
L 132.92886 42.539652 
L 134.758701 42.539652 
L 135.063675 41.895067 
L 136.893516 41.895067 
L 137.19849 41.250482 
L 139.028332 41.250482 
L 139.333305 40.605897 
L 141.163147 40.605897 
L 141.46812 39.961312 
L 143.297962 39.961312 
L 143.602935 39.316727 
L 145.432777 39.316727 
L 145.73775 38.672142 
L 147.567592 38.672142 
L 147.872565 38.027557 
L 149.702407 38.027557 
L 150.007381 37.382972 
L 151.837222 37.382972 
L 152.142196 36.738387 
L 153.972037 36.738387 
L 154.277011 36.093802 
L 156.411826 36.093802 
L 156.716799 35.449217 
L 158.546641 35.449217 
L 158.851614 34.804632 
L 160.681456 34.804632 
L 160.98643 34.160047 
L 162.816271 34.160047 
L 163.121245 33.515462 
L 164.951086 33.515462 
L 165.25606 32.870877 
L 167.390875 32.870877 
L 167.695848 32.226292 
L 169.52569 32.226292 
L 169.830663 31.581707 
L 171.660505 31.581707 
L 171.965479 30.937122 
L 174.100294 30.937122 
L 174.405267 30.292537 
L 176.235109 30.292537 
L 176.540082 29.647952 
L 178.369924 29.647952 
L 178.674897 29.003367 
L 180.809712 29.003367 
L 181.114686 28.358782 
L 182.944528 28.358782 
L 183.249501 27.714197 
L 185.384316 27.714197 
L 185.68929 27.069612 
L 187.519131 27.069612 
L 187.824105 26.425027 
L 189.95892 26.425027 
L 190.263894 25.780442 
L 192.093735 25.780442 
L 192.398709 25.135857 
L 194.533524 25.135857 
L 194.838497 24.491272 
L 196.668339 24.491272 
L 196.973312 23.846687 
L 199.108128 23.846687 
L 199.413101 23.202102 
L 202.462837 23.202102 
L 202.767811 23.846687 
L 203.072784 23.846687 
L 203.072784 23.846687 
" clip-path="url(#p3f307851b8)" style="fill: none; stroke-dasharray: 5.55,2.4; stroke-dashoffset: 0; stroke: #440154; stroke-width: 1.5"/>
   </g>
   <g id="line2d_8">
    <path d="M 50.890966 122.468189 
L 51.195939 123.112774 
L 51.805887 123.112774 
L 52.11086 123.757359 
L 52.720807 123.757359 
L 53.025781 124.401944 
L 53.635728 124.401944 
L 53.940702 125.046529 
L 54.550649 125.046529 
L 54.855622 125.691114 
L 55.770543 125.691114 
L 56.075517 126.335699 
L 56.685464 126.335699 
L 56.990438 126.980284 
L 57.905358 126.980284 
L 58.210332 127.624869 
L 59.430226 127.624869 
L 59.7352 128.269454 
L 60.955094 128.269454 
L 61.260068 128.914039 
L 62.479962 128.914039 
L 62.784936 129.558624 
L 64.00483 129.558624 
L 64.309804 130.203209 
L 65.834672 130.203209 
L 66.139645 130.847794 
L 67.664513 130.847794 
L 67.969487 131.492379 
L 69.799328 131.492379 
L 70.104302 132.136964 
L 71.62917 132.136964 
L 71.934143 132.781549 
L 73.763985 132.781549 
L 74.068958 133.426134 
L 75.593826 133.426134 
L 75.8988 134.070719 
L 77.728641 134.070719 
L 78.033615 134.715304 
L 79.558483 134.715304 
L 79.863456 135.359889 
L 81.693298 135.359889 
L 81.998271 136.004474 
L 83.523139 136.004474 
L 83.828113 136.649059 
L 85.657954 136.649059 
L 85.962928 137.293644 
L 87.79277 137.293644 
L 88.097743 137.938229 
L 89.622611 137.938229 
L 89.927585 138.582814 
L 91.757426 138.582814 
L 92.0624 139.227399 
L 93.587268 139.227399 
L 93.892241 139.871984 
L 95.722083 139.871984 
L 96.027056 140.516569 
L 97.856898 140.516569 
L 98.161871 141.161154 
L 99.686739 141.161154 
L 99.991713 141.805739 
L 101.821554 141.805739 
L 102.126528 142.450324 
L 103.956369 142.450324 
L 104.261343 143.094909 
L 105.786211 143.094909 
L 106.091185 143.739494 
L 107.921026 143.739494 
L 108.226 144.384079 
L 110.055841 144.384079 
L 110.360815 145.028664 
L 111.885683 145.028664 
L 112.190656 145.673249 
L 114.020498 145.673249 
L 114.325471 146.317833 
L 116.155313 146.317833 
L 116.460286 146.962418 
L 117.985154 146.962418 
L 118.290128 147.607003 
L 120.119969 147.607003 
L 120.424943 148.251588 
L 122.254784 148.251588 
L 122.559758 148.896173 
L 124.3896 148.896173 
L 124.694573 149.540758 
L 126.524415 149.540758 
L 126.829388 150.185343 
L 128.354256 150.185343 
L 128.65923 150.829928 
L 130.489071 150.829928 
L 130.794045 151.474513 
L 132.623886 151.474513 
L 132.92886 152.119098 
L 134.758701 152.119098 
L 135.063675 152.763683 
L 136.893516 152.763683 
L 137.19849 153.408268 
L 139.028332 153.408268 
L 139.333305 154.052853 
L 141.163147 154.052853 
L 141.46812 154.697438 
L 143.297962 154.697438 
L 143.602935 155.342023 
L 145.432777 155.342023 
L 145.73775 155.986608 
L 147.567592 155.986608 
L 147.872565 156.631193 
L 149.702407 156.631193 
L 150.007381 157.275778 
L 151.837222 157.275778 
L 152.142196 157.920363 
L 153.972037 157.920363 
L 154.277011 158.564948 
L 156.411826 158.564948 
L 156.716799 159.209533 
L 158.546641 159.209533 
L 158.851614 159.854118 
L 160.681456 159.854118 
L 160.98643 160.498703 
L 162.816271 160.498703 
L 163.121245 161.143288 
L 164.951086 161.143288 
L 165.25606 161.787873 
L 167.390875 161.787873 
L 167.695848 162.432458 
L 169.52569 162.432458 
L 169.830663 163.077043 
L 171.660505 163.077043 
L 171.965479 163.721628 
L 174.100294 163.721628 
L 174.405267 164.366213 
L 176.235109 164.366213 
L 176.540082 165.010798 
L 178.369924 165.010798 
L 178.674897 165.655383 
L 180.809712 165.655383 
L 181.114686 166.299968 
L 182.944528 166.299968 
L 183.249501 166.944553 
L 185.384316 166.944553 
L 185.68929 167.589138 
L 187.519131 167.589138 
L 187.824105 168.233723 
L 189.95892 168.233723 
L 190.263894 168.878308 
L 192.093735 168.878308 
L 192.398709 169.522893 
L 194.533524 169.522893 
L 194.838497 170.167478 
L 196.668339 170.167478 
L 196.973312 170.812063 
L 199.108128 170.812063 
L 199.413101 171.456648 
L 202.462837 171.456648 
L 202.767811 170.812063 
L 203.072784 170.812063 
L 203.072784 170.812063 
" clip-path="url(#p3f307851b8)" style="fill: none; stroke-dasharray: 5.55,2.4; stroke-dashoffset: 0; stroke: #440154; stroke-width: 1.5"/>
   </g>
   <g id="line2d_9">
    <path d="M 55.160596 97.97396 
L 55.770543 99.26313 
L 56.075517 99.26313 
L 56.38049 99.907715 
L 56.685464 99.907715 
L 56.990438 100.5523 
L 57.295411 100.5523 
L 57.600385 101.196885 
L 58.210332 101.196885 
L 58.515305 101.84147 
L 58.820279 101.84147 
L 59.125253 102.486055 
L 59.430226 102.486055 
L 59.7352 103.13064 
L 60.345147 103.13064 
L 60.650121 103.775225 
L 61.260068 103.775225 
L 61.565041 104.41981 
L 61.870015 104.41981 
L 62.174988 105.064395 
L 62.784936 105.064395 
L 63.089909 105.70898 
L 63.699856 105.70898 
L 64.00483 106.353565 
L 64.614777 106.353565 
L 64.919751 106.99815 
L 65.529698 106.99815 
L 65.834672 107.642735 
L 66.444619 107.642735 
L 66.749592 108.28732 
L 67.359539 108.28732 
L 67.664513 108.931905 
L 68.27446 108.931905 
L 68.579434 109.57649 
L 69.494355 109.57649 
L 69.799328 110.221075 
L 70.409275 110.221075 
L 70.714249 110.86566 
L 71.324196 110.86566 
L 71.62917 111.510245 
L 72.54409 111.510245 
L 72.849064 112.15483 
L 73.459011 112.15483 
L 73.763985 112.799415 
L 74.678905 112.799415 
L 74.983879 113.444 
L 75.593826 113.444 
L 75.8988 114.088584 
L 76.813721 114.088584 
L 77.118694 114.733169 
L 78.033615 114.733169 
L 78.338588 115.377754 
L 78.948536 115.377754 
L 79.253509 116.022339 
L 80.16843 116.022339 
L 80.473404 116.666924 
L 81.388324 116.666924 
L 81.693298 117.311509 
L 82.608219 117.311509 
L 82.913192 117.956094 
L 83.828113 117.956094 
L 84.133087 118.600679 
L 85.048007 118.600679 
L 85.352981 119.245264 
L 86.267902 119.245264 
L 86.572875 119.889849 
L 87.487796 119.889849 
L 87.79277 120.534434 
L 88.70769 120.534434 
L 89.012664 121.179019 
L 89.927585 121.179019 
L 90.232558 121.823604 
L 91.147479 121.823604 
L 91.452453 122.468189 
L 92.367373 122.468189 
L 92.672347 123.112774 
L 93.587268 123.112774 
L 93.892241 123.757359 
L 95.112136 123.757359 
L 95.417109 124.401944 
L 96.33203 124.401944 
L 96.637003 125.046529 
L 97.551924 125.046529 
L 97.856898 125.691114 
L 99.076792 125.691114 
L 99.381766 126.335699 
L 100.296686 126.335699 
L 100.60166 126.980284 
L 101.821554 126.980284 
L 102.126528 127.624869 
L 103.041449 127.624869 
L 103.346422 128.269454 
L 104.566317 128.269454 
L 104.87129 128.914039 
L 105.786211 128.914039 
L 106.091185 129.558624 
L 107.311079 129.558624 
L 107.616052 130.203209 
L 108.835947 130.203209 
L 109.14092 130.847794 
L 110.055841 130.847794 
L 110.360815 131.492379 
L 111.580709 131.492379 
L 111.885683 132.136964 
L 113.105577 132.136964 
L 113.410551 132.781549 
L 114.630445 132.781549 
L 114.935418 133.426134 
L 116.155313 133.426134 
L 116.460286 134.070719 
L 117.680181 134.070719 
L 117.985154 134.715304 
L 119.205049 134.715304 
L 119.510022 135.359889 
L 120.729917 135.359889 
L 121.03489 136.004474 
L 122.254784 136.004474 
L 122.559758 136.649059 
L 123.779652 136.649059 
L 124.084626 137.293644 
L 125.30452 137.293644 
L 125.609494 137.938229 
L 126.829388 137.938229 
L 127.134362 138.582814 
L 128.65923 138.582814 
L 128.964203 139.227399 
L 130.184098 139.227399 
L 130.489071 139.871984 
L 131.708966 139.871984 
L 132.013939 140.516569 
L 133.233833 140.516569 
L 133.538807 141.161154 
L 135.063675 141.161154 
L 135.368649 141.805739 
L 136.588543 141.805739 
L 136.893516 142.450324 
L 138.418384 142.450324 
L 138.723358 143.094909 
L 139.943252 143.094909 
L 140.248226 143.739494 
L 141.773094 143.739494 
L 142.078067 144.384079 
L 143.297962 144.384079 
L 143.602935 145.028664 
L 145.127803 145.028664 
L 145.432777 145.673249 
L 146.957645 145.673249 
L 147.262618 146.317833 
L 148.482513 146.317833 
L 148.787486 146.962418 
L 150.312354 146.962418 
L 150.617328 147.607003 
L 152.142196 147.607003 
L 152.447169 148.251588 
L 153.972037 148.251588 
L 154.277011 148.896173 
L 155.801879 148.896173 
L 156.106852 149.540758 
L 157.326747 149.540758 
L 157.63172 150.185343 
L 159.156588 150.185343 
L 159.461562 150.829928 
L 160.98643 150.829928 
L 161.291403 151.474513 
L 162.816271 151.474513 
L 163.121245 152.119098 
L 164.646113 152.119098 
L 164.951086 152.763683 
L 166.780928 152.763683 
L 167.085901 153.408268 
L 168.610769 153.408268 
L 168.915743 154.052853 
L 170.440611 154.052853 
L 170.745584 154.697438 
L 172.270452 154.697438 
L 172.575426 155.342023 
L 174.100294 155.342023 
L 174.405267 155.986608 
L 176.235109 155.986608 
L 176.540082 156.631193 
L 178.06495 156.631193 
L 178.369924 157.275778 
L 179.894792 157.275778 
L 180.199765 157.920363 
L 182.029607 157.920363 
L 182.33458 158.564948 
L 183.859448 158.564948 
L 184.164422 159.209533 
L 185.68929 159.209533 
L 185.994263 159.854118 
L 187.824105 159.854118 
L 188.129078 160.498703 
L 189.653946 160.498703 
L 189.95892 161.143288 
L 191.788762 161.143288 
L 192.093735 161.787873 
L 193.923577 161.787873 
L 194.22855 162.432458 
L 195.753418 162.432458 
L 196.058392 163.077043 
L 197.888233 163.077043 
L 198.193207 163.721628 
L 199.718075 163.721628 
L 200.023048 164.366213 
L 201.547916 164.366213 
L 201.85289 165.010798 
L 202.157863 165.010798 
L 202.767811 166.299968 
L 203.072784 166.299968 
L 203.072784 166.299968 
" clip-path="url(#p3f307851b8)" style="fill: none; stroke: #440154; stroke-width: 1.5; stroke-linecap: square"/>
   </g>
   <g id="line2d_10">
    <path d="M 55.160596 96.68479 
L 55.770543 95.39562 
L 56.075517 95.39562 
L 56.38049 94.751035 
L 56.685464 94.751035 
L 56.990438 94.10645 
L 57.295411 94.10645 
L 57.600385 93.461865 
L 58.210332 93.461865 
L 58.515305 92.81728 
L 58.820279 92.81728 
L 59.125253 92.172695 
L 59.430226 92.172695 
L 59.7352 91.52811 
L 60.345147 91.52811 
L 60.650121 90.883525 
L 61.260068 90.883525 
L 61.565041 90.23894 
L 61.870015 90.23894 
L 62.174988 89.594355 
L 62.784936 89.594355 
L 63.089909 88.94977 
L 63.699856 88.94977 
L 64.00483 88.305185 
L 64.614777 88.305185 
L 64.919751 87.6606 
L 65.529698 87.6606 
L 65.834672 87.016015 
L 66.444619 87.016015 
L 66.749592 86.37143 
L 67.359539 86.37143 
L 67.664513 85.726845 
L 68.27446 85.726845 
L 68.579434 85.08226 
L 69.494355 85.08226 
L 69.799328 84.437675 
L 70.409275 84.437675 
L 70.714249 83.79309 
L 71.324196 83.79309 
L 71.62917 83.148505 
L 72.54409 83.148505 
L 72.849064 82.50392 
L 73.459011 82.50392 
L 73.763985 81.859335 
L 74.678905 81.859335 
L 74.983879 81.21475 
L 75.593826 81.21475 
L 75.8988 80.570166 
L 76.813721 80.570166 
L 77.118694 79.925581 
L 78.033615 79.925581 
L 78.338588 79.280996 
L 78.948536 79.280996 
L 79.253509 78.636411 
L 80.16843 78.636411 
L 80.473404 77.991826 
L 81.388324 77.991826 
L 81.693298 77.347241 
L 82.608219 77.347241 
L 82.913192 76.702656 
L 83.828113 76.702656 
L 84.133087 76.058071 
L 85.048007 76.058071 
L 85.352981 75.413486 
L 86.267902 75.413486 
L 86.572875 74.768901 
L 87.487796 74.768901 
L 87.79277 74.124316 
L 88.70769 74.124316 
L 89.012664 73.479731 
L 89.927585 73.479731 
L 90.232558 72.835146 
L 91.147479 72.835146 
L 91.452453 72.190561 
L 92.367373 72.190561 
L 92.672347 71.545976 
L 93.587268 71.545976 
L 93.892241 70.901391 
L 95.112136 70.901391 
L 95.417109 70.256806 
L 96.33203 70.256806 
L 96.637003 69.612221 
L 97.551924 69.612221 
L 97.856898 68.967636 
L 99.076792 68.967636 
L 99.381766 68.323051 
L 100.296686 68.323051 
L 100.60166 67.678466 
L 101.821554 67.678466 
L 102.126528 67.033881 
L 103.041449 67.033881 
L 103.346422 66.389296 
L 104.566317 66.389296 
L 104.87129 65.744711 
L 105.786211 65.744711 
L 106.091185 65.100126 
L 107.311079 65.100126 
L 107.616052 64.455541 
L 108.835947 64.455541 
L 109.14092 63.810956 
L 110.055841 63.810956 
L 110.360815 63.166371 
L 111.580709 63.166371 
L 111.885683 62.521786 
L 113.105577 62.521786 
L 113.410551 61.877201 
L 114.630445 61.877201 
L 114.935418 61.232616 
L 116.155313 61.232616 
L 116.460286 60.588031 
L 117.680181 60.588031 
L 117.985154 59.943446 
L 119.205049 59.943446 
L 119.510022 59.298861 
L 120.729917 59.298861 
L 121.03489 58.654276 
L 122.254784 58.654276 
L 122.559758 58.009691 
L 123.779652 58.009691 
L 124.084626 57.365106 
L 125.30452 57.365106 
L 125.609494 56.720521 
L 126.829388 56.720521 
L 127.134362 56.075936 
L 128.65923 56.075936 
L 128.964203 55.431351 
L 130.184098 55.431351 
L 130.489071 54.786766 
L 131.708966 54.786766 
L 132.013939 54.142181 
L 133.233833 54.142181 
L 133.538807 53.497596 
L 135.063675 53.497596 
L 135.368649 52.853011 
L 136.588543 52.853011 
L 136.893516 52.208426 
L 138.418384 52.208426 
L 138.723358 51.563841 
L 139.943252 51.563841 
L 140.248226 50.919256 
L 141.773094 50.919256 
L 142.078067 50.274671 
L 143.297962 50.274671 
L 143.602935 49.630086 
L 145.127803 49.630086 
L 145.432777 48.985501 
L 146.957645 48.985501 
L 147.262618 48.340917 
L 148.482513 48.340917 
L 148.787486 47.696332 
L 150.312354 47.696332 
L 150.617328 47.051747 
L 152.142196 47.051747 
L 152.447169 46.407162 
L 153.972037 46.407162 
L 154.277011 45.762577 
L 155.801879 45.762577 
L 156.106852 45.117992 
L 157.326747 45.117992 
L 157.63172 44.473407 
L 159.156588 44.473407 
L 159.461562 43.828822 
L 160.98643 43.828822 
L 161.291403 43.184237 
L 162.816271 43.184237 
L 163.121245 42.539652 
L 164.646113 42.539652 
L 164.951086 41.895067 
L 166.780928 41.895067 
L 167.085901 41.250482 
L 168.610769 41.250482 
L 168.915743 40.605897 
L 170.440611 40.605897 
L 170.745584 39.961312 
L 172.270452 39.961312 
L 172.575426 39.316727 
L 174.100294 39.316727 
L 174.405267 38.672142 
L 176.235109 38.672142 
L 176.540082 38.027557 
L 178.06495 38.027557 
L 178.369924 37.382972 
L 179.894792 37.382972 
L 180.199765 36.738387 
L 182.029607 36.738387 
L 182.33458 36.093802 
L 183.859448 36.093802 
L 184.164422 35.449217 
L 185.68929 35.449217 
L 185.994263 34.804632 
L 187.824105 34.804632 
L 188.129078 34.160047 
L 189.653946 34.160047 
L 189.95892 33.515462 
L 191.788762 33.515462 
L 192.093735 32.870877 
L 193.923577 32.870877 
L 194.22855 32.226292 
L 195.753418 32.226292 
L 196.058392 31.581707 
L 197.888233 31.581707 
L 198.193207 30.937122 
L 199.718075 30.937122 
L 200.023048 30.292537 
L 201.547916 30.292537 
L 201.85289 29.647952 
L 202.157863 29.647952 
L 202.767811 28.358782 
L 203.072784 28.358782 
L 203.072784 28.358782 
" clip-path="url(#p3f307851b8)" style="fill: none; stroke: #440154; stroke-width: 1.5; stroke-linecap: square"/>
   </g>
   <g id="line2d_11">
    <path d="M 50.890966 72.835146 
L 51.195939 72.190561 
L 51.805887 72.190561 
L 52.11086 71.545976 
L 52.720807 71.545976 
L 53.025781 70.901391 
L 53.940702 70.901391 
L 54.245675 70.256806 
L 54.855622 70.256806 
L 55.160596 69.612221 
L 56.075517 69.612221 
L 56.38049 68.967636 
L 57.600385 68.967636 
L 57.905358 68.323051 
L 59.125253 68.323051 
L 59.430226 67.678466 
L 60.650121 67.678466 
L 60.955094 67.033881 
L 62.479962 67.033881 
L 62.784936 66.389296 
L 64.614777 66.389296 
L 64.919751 65.744711 
L 66.749592 65.744711 
L 67.054566 65.100126 
L 68.884407 65.100126 
L 69.189381 64.455541 
L 71.019222 64.455541 
L 71.324196 63.810956 
L 73.459011 63.810956 
L 73.763985 63.166371 
L 75.593826 63.166371 
L 75.8988 62.521786 
L 78.033615 62.521786 
L 78.338588 61.877201 
L 80.16843 61.877201 
L 80.473404 61.232616 
L 82.608219 61.232616 
L 82.913192 60.588031 
L 85.048007 60.588031 
L 85.352981 59.943446 
L 87.182822 59.943446 
L 87.487796 59.298861 
L 89.622611 59.298861 
L 89.927585 58.654276 
L 91.757426 58.654276 
L 92.0624 58.009691 
L 94.197215 58.009691 
L 94.502188 57.365106 
L 96.33203 57.365106 
L 96.637003 56.720521 
L 98.771819 56.720521 
L 99.076792 56.075936 
L 100.906634 56.075936 
L 101.211607 55.431351 
L 103.346422 55.431351 
L 103.651396 54.786766 
L 105.481237 54.786766 
L 105.786211 54.142181 
L 107.921026 54.142181 
L 108.226 53.497596 
L 110.055841 53.497596 
L 110.360815 52.853011 
L 112.49563 52.853011 
L 112.800603 52.208426 
L 114.630445 52.208426 
L 114.935418 51.563841 
L 117.070234 51.563841 
L 117.375207 50.919256 
L 119.205049 50.919256 
L 119.510022 50.274671 
L 121.644837 50.274671 
L 121.949811 49.630086 
L 123.779652 49.630086 
L 124.084626 48.985501 
L 126.219441 48.985501 
L 126.524415 48.340917 
L 128.65923 48.340917 
L 128.964203 47.696332 
L 130.794045 47.696332 
L 131.099018 47.051747 
L 133.233833 47.051747 
L 133.538807 46.407162 
L 135.673622 46.407162 
L 135.978596 45.762577 
L 137.808437 45.762577 
L 138.113411 45.117992 
L 140.248226 45.117992 
L 140.553199 44.473407 
L 142.688015 44.473407 
L 142.992988 43.828822 
L 144.82283 43.828822 
L 145.127803 43.184237 
L 147.262618 43.184237 
L 147.567592 42.539652 
L 149.702407 42.539652 
L 150.007381 41.895067 
L 152.142196 41.895067 
L 152.447169 41.250482 
L 154.581984 41.250482 
L 154.886958 40.605897 
L 157.021773 40.605897 
L 157.326747 39.961312 
L 159.461562 39.961312 
L 159.766535 39.316727 
L 161.90135 39.316727 
L 162.206324 38.672142 
L 164.341139 38.672142 
L 164.646113 38.027557 
L 166.780928 38.027557 
L 167.085901 37.382972 
L 169.220716 37.382972 
L 169.52569 36.738387 
L 171.660505 36.738387 
L 171.965479 36.093802 
L 174.100294 36.093802 
L 174.405267 35.449217 
L 176.540082 35.449217 
L 176.845056 34.804632 
L 178.979871 34.804632 
L 179.284845 34.160047 
L 181.41966 34.160047 
L 181.724633 33.515462 
L 183.859448 33.515462 
L 184.164422 32.870877 
L 186.604211 32.870877 
L 186.909184 32.226292 
L 189.043999 32.226292 
L 189.348973 31.581707 
L 191.483788 31.581707 
L 191.788762 30.937122 
L 193.923577 30.937122 
L 194.22855 30.292537 
L 196.668339 30.292537 
L 196.973312 29.647952 
L 199.108128 29.647952 
L 199.413101 29.003367 
L 202.462837 29.003367 
L 202.767811 29.647952 
L 203.072784 29.647952 
L 203.072784 29.647952 
" clip-path="url(#p3f307851b8)" style="fill: none; stroke-dasharray: 5.55,2.4; stroke-dashoffset: 0; stroke: #3b528b; stroke-width: 1.5"/>
   </g>
   <g id="line2d_12">
    <path d="M 50.890966 121.823604 
L 51.195939 122.468189 
L 51.805887 122.468189 
L 52.11086 123.112774 
L 52.720807 123.112774 
L 53.025781 123.757359 
L 53.940702 123.757359 
L 54.245675 124.401944 
L 54.855622 124.401944 
L 55.160596 125.046529 
L 56.075517 125.046529 
L 56.38049 125.691114 
L 57.600385 125.691114 
L 57.905358 126.335699 
L 59.125253 126.335699 
L 59.430226 126.980284 
L 60.650121 126.980284 
L 60.955094 127.624869 
L 62.479962 127.624869 
L 62.784936 128.269454 
L 64.614777 128.269454 
L 64.919751 128.914039 
L 66.749592 128.914039 
L 67.054566 129.558624 
L 68.884407 129.558624 
L 69.189381 130.203209 
L 71.019222 130.203209 
L 71.324196 130.847794 
L 73.459011 130.847794 
L 73.763985 131.492379 
L 75.593826 131.492379 
L 75.8988 132.136964 
L 78.033615 132.136964 
L 78.338588 132.781549 
L 80.16843 132.781549 
L 80.473404 133.426134 
L 82.608219 133.426134 
L 82.913192 134.070719 
L 85.048007 134.070719 
L 85.352981 134.715304 
L 87.182822 134.715304 
L 87.487796 135.359889 
L 89.622611 135.359889 
L 89.927585 136.004474 
L 91.757426 136.004474 
L 92.0624 136.649059 
L 94.197215 136.649059 
L 94.502188 137.293644 
L 96.33203 137.293644 
L 96.637003 137.938229 
L 98.771819 137.938229 
L 99.076792 138.582814 
L 100.906634 138.582814 
L 101.211607 139.227399 
L 103.346422 139.227399 
L 103.651396 139.871984 
L 105.481237 139.871984 
L 105.786211 140.516569 
L 107.921026 140.516569 
L 108.226 141.161154 
L 110.055841 141.161154 
L 110.360815 141.805739 
L 112.49563 141.805739 
L 112.800603 142.450324 
L 114.630445 142.450324 
L 114.935418 143.094909 
L 117.070234 143.094909 
L 117.375207 143.739494 
L 119.205049 143.739494 
L 119.510022 144.384079 
L 121.644837 144.384079 
L 121.949811 145.028664 
L 123.779652 145.028664 
L 124.084626 145.673249 
L 126.219441 145.673249 
L 126.524415 146.317833 
L 128.65923 146.317833 
L 128.964203 146.962418 
L 130.794045 146.962418 
L 131.099018 147.607003 
L 133.233833 147.607003 
L 133.538807 148.251588 
L 135.673622 148.251588 
L 135.978596 148.896173 
L 137.808437 148.896173 
L 138.113411 149.540758 
L 140.248226 149.540758 
L 140.553199 150.185343 
L 142.688015 150.185343 
L 142.992988 150.829928 
L 144.82283 150.829928 
L 145.127803 151.474513 
L 147.262618 151.474513 
L 147.567592 152.119098 
L 149.702407 152.119098 
L 150.007381 152.763683 
L 152.142196 152.763683 
L 152.447169 153.408268 
L 154.581984 153.408268 
L 154.886958 154.052853 
L 157.021773 154.052853 
L 157.326747 154.697438 
L 159.461562 154.697438 
L 159.766535 155.342023 
L 161.90135 155.342023 
L 162.206324 155.986608 
L 164.341139 155.986608 
L 164.646113 156.631193 
L 166.780928 156.631193 
L 167.085901 157.275778 
L 169.220716 157.275778 
L 169.52569 157.920363 
L 171.660505 157.920363 
L 171.965479 158.564948 
L 174.100294 158.564948 
L 174.405267 159.209533 
L 176.540082 159.209533 
L 176.845056 159.854118 
L 178.979871 159.854118 
L 179.284845 160.498703 
L 181.41966 160.498703 
L 181.724633 161.143288 
L 183.859448 161.143288 
L 184.164422 161.787873 
L 186.604211 161.787873 
L 186.909184 162.432458 
L 189.043999 162.432458 
L 189.348973 163.077043 
L 191.483788 163.077043 
L 191.788762 163.721628 
L 193.923577 163.721628 
L 194.22855 164.366213 
L 196.668339 164.366213 
L 196.973312 165.010798 
L 199.108128 165.010798 
L 199.413101 165.655383 
L 202.462837 165.655383 
L 202.767811 165.010798 
L 203.072784 165.010798 
L 203.072784 165.010798 
" clip-path="url(#p3f307851b8)" style="fill: none; stroke-dasharray: 5.55,2.4; stroke-dashoffset: 0; stroke: #3b528b; stroke-width: 1.5"/>
   </g>
   <g id="line2d_13">
    <path d="M 57.295411 97.97396 
L 57.600385 98.618545 
L 57.905358 98.618545 
L 58.210332 99.26313 
L 58.515305 99.26313 
L 58.820279 99.907715 
L 59.125253 99.907715 
L 59.430226 100.5523 
L 60.040173 100.5523 
L 60.345147 101.196885 
L 60.650121 101.196885 
L 60.955094 101.84147 
L 61.565041 101.84147 
L 61.870015 102.486055 
L 62.479962 102.486055 
L 62.784936 103.13064 
L 63.394883 103.13064 
L 63.699856 103.775225 
L 64.614777 103.775225 
L 64.919751 104.41981 
L 65.529698 104.41981 
L 65.834672 105.064395 
L 66.444619 105.064395 
L 66.749592 105.70898 
L 67.359539 105.70898 
L 67.664513 106.353565 
L 68.579434 106.353565 
L 68.884407 106.99815 
L 69.494355 106.99815 
L 69.799328 107.642735 
L 70.714249 107.642735 
L 71.019222 108.28732 
L 71.934143 108.28732 
L 72.239117 108.931905 
L 72.849064 108.931905 
L 73.154038 109.57649 
L 74.068958 109.57649 
L 74.373932 110.221075 
L 75.288853 110.221075 
L 75.593826 110.86566 
L 76.508747 110.86566 
L 76.813721 111.510245 
L 77.423668 111.510245 
L 77.728641 112.15483 
L 78.643562 112.15483 
L 78.948536 112.799415 
L 79.863456 112.799415 
L 80.16843 113.444 
L 81.083351 113.444 
L 81.388324 114.088584 
L 82.303245 114.088584 
L 82.608219 114.733169 
L 83.828113 114.733169 
L 84.133087 115.377754 
L 85.048007 115.377754 
L 85.352981 116.022339 
L 86.267902 116.022339 
L 86.572875 116.666924 
L 87.487796 116.666924 
L 87.79277 117.311509 
L 89.012664 117.311509 
L 89.317637 117.956094 
L 90.232558 117.956094 
L 90.537532 118.600679 
L 91.452453 118.600679 
L 91.757426 119.245264 
L 92.97732 119.245264 
L 93.282294 119.889849 
L 94.197215 119.889849 
L 94.502188 120.534434 
L 95.722083 120.534434 
L 96.027056 121.179019 
L 97.246951 121.179019 
L 97.551924 121.823604 
L 98.466845 121.823604 
L 98.771819 122.468189 
L 99.991713 122.468189 
L 100.296686 123.112774 
L 101.516581 123.112774 
L 101.821554 123.757359 
L 103.041449 123.757359 
L 103.346422 124.401944 
L 104.261343 124.401944 
L 104.566317 125.046529 
L 105.786211 125.046529 
L 106.091185 125.691114 
L 107.311079 125.691114 
L 107.616052 126.335699 
L 108.835947 126.335699 
L 109.14092 126.980284 
L 110.360815 126.980284 
L 110.665788 127.624869 
L 111.885683 127.624869 
L 112.190656 128.269454 
L 113.715524 128.269454 
L 114.020498 128.914039 
L 115.240392 128.914039 
L 115.545366 129.558624 
L 116.76526 129.558624 
L 117.070234 130.203209 
L 118.290128 130.203209 
L 118.595101 130.847794 
L 120.119969 130.847794 
L 120.424943 131.492379 
L 121.644837 131.492379 
L 121.949811 132.136964 
L 123.169705 132.136964 
L 123.474679 132.781549 
L 124.999547 132.781549 
L 125.30452 133.426134 
L 126.524415 133.426134 
L 126.829388 134.070719 
L 128.354256 134.070719 
L 128.65923 134.715304 
L 130.184098 134.715304 
L 130.489071 135.359889 
L 131.708966 135.359889 
L 132.013939 136.004474 
L 133.538807 136.004474 
L 133.843781 136.649059 
L 135.368649 136.649059 
L 135.673622 137.293644 
L 137.19849 137.293644 
L 137.503464 137.938229 
L 139.028332 137.938229 
L 139.333305 138.582814 
L 140.553199 138.582814 
L 140.858173 139.227399 
L 142.383041 139.227399 
L 142.688015 139.871984 
L 144.212882 139.871984 
L 144.517856 140.516569 
L 146.347698 140.516569 
L 146.652671 141.161154 
L 148.177539 141.161154 
L 148.482513 141.805739 
L 150.007381 141.805739 
L 150.312354 142.450324 
L 151.837222 142.450324 
L 152.142196 143.094909 
L 153.667064 143.094909 
L 153.972037 143.739494 
L 155.496905 143.739494 
L 155.801879 144.384079 
L 157.63172 144.384079 
L 157.936694 145.028664 
L 159.461562 145.028664 
L 159.766535 145.673249 
L 161.596377 145.673249 
L 161.90135 146.317833 
L 163.426218 146.317833 
L 163.731192 146.962418 
L 165.561033 146.962418 
L 165.866007 147.607003 
L 167.390875 147.607003 
L 167.695848 148.251588 
L 169.52569 148.251588 
L 169.830663 148.896173 
L 171.355531 148.896173 
L 171.660505 149.540758 
L 173.490346 149.540758 
L 173.79532 150.185343 
L 175.625162 150.185343 
L 175.930135 150.829928 
L 177.759977 150.829928 
L 178.06495 151.474513 
L 179.589818 151.474513 
L 179.894792 152.119098 
L 181.724633 152.119098 
L 182.029607 152.763683 
L 183.859448 152.763683 
L 184.164422 153.408268 
L 185.994263 153.408268 
L 186.299237 154.052853 
L 188.129078 154.052853 
L 188.434052 154.697438 
L 190.263894 154.697438 
L 190.568867 155.342023 
L 192.398709 155.342023 
L 192.703682 155.986608 
L 194.533524 155.986608 
L 194.838497 156.631193 
L 196.668339 156.631193 
L 196.973312 157.275778 
L 198.803154 157.275778 
L 199.108128 157.920363 
L 200.937969 157.920363 
L 201.242943 158.564948 
L 201.85289 158.564948 
L 202.157863 159.209533 
L 202.462837 159.209533 
L 202.767811 159.854118 
L 203.072784 159.854118 
L 203.072784 159.854118 
" clip-path="url(#p3f307851b8)" style="fill: none; stroke: #3b528b; stroke-width: 1.5; stroke-linecap: square"/>
   </g>
   <g id="line2d_14">
    <path d="M 57.295411 96.68479 
L 57.600385 96.040205 
L 57.905358 96.040205 
L 58.210332 95.39562 
L 58.515305 95.39562 
L 58.820279 94.751035 
L 59.125253 94.751035 
L 59.430226 94.10645 
L 60.040173 94.10645 
L 60.345147 93.461865 
L 60.650121 93.461865 
L 60.955094 92.81728 
L 61.565041 92.81728 
L 61.870015 92.172695 
L 62.479962 92.172695 
L 62.784936 91.52811 
L 63.394883 91.52811 
L 63.699856 90.883525 
L 64.614777 90.883525 
L 64.919751 90.23894 
L 65.529698 90.23894 
L 65.834672 89.594355 
L 66.444619 89.594355 
L 66.749592 88.94977 
L 67.359539 88.94977 
L 67.664513 88.305185 
L 68.579434 88.305185 
L 68.884407 87.6606 
L 69.494355 87.6606 
L 69.799328 87.016015 
L 70.714249 87.016015 
L 71.019222 86.37143 
L 71.934143 86.37143 
L 72.239117 85.726845 
L 72.849064 85.726845 
L 73.154038 85.08226 
L 74.068958 85.08226 
L 74.373932 84.437675 
L 75.288853 84.437675 
L 75.593826 83.79309 
L 76.508747 83.79309 
L 76.813721 83.148505 
L 77.423668 83.148505 
L 77.728641 82.50392 
L 78.643562 82.50392 
L 78.948536 81.859335 
L 79.863456 81.859335 
L 80.16843 81.21475 
L 81.083351 81.21475 
L 81.388324 80.570166 
L 82.303245 80.570166 
L 82.608219 79.925581 
L 83.828113 79.925581 
L 84.133087 79.280996 
L 85.048007 79.280996 
L 85.352981 78.636411 
L 86.267902 78.636411 
L 86.572875 77.991826 
L 87.487796 77.991826 
L 87.79277 77.347241 
L 89.012664 77.347241 
L 89.317637 76.702656 
L 90.232558 76.702656 
L 90.537532 76.058071 
L 91.452453 76.058071 
L 91.757426 75.413486 
L 92.97732 75.413486 
L 93.282294 74.768901 
L 94.197215 74.768901 
L 94.502188 74.124316 
L 95.722083 74.124316 
L 96.027056 73.479731 
L 97.246951 73.479731 
L 97.551924 72.835146 
L 98.466845 72.835146 
L 98.771819 72.190561 
L 99.991713 72.190561 
L 100.296686 71.545976 
L 101.516581 71.545976 
L 101.821554 70.901391 
L 103.041449 70.901391 
L 103.346422 70.256806 
L 104.261343 70.256806 
L 104.566317 69.612221 
L 105.786211 69.612221 
L 106.091185 68.967636 
L 107.311079 68.967636 
L 107.616052 68.323051 
L 108.835947 68.323051 
L 109.14092 67.678466 
L 110.360815 67.678466 
L 110.665788 67.033881 
L 111.885683 67.033881 
L 112.190656 66.389296 
L 113.715524 66.389296 
L 114.020498 65.744711 
L 115.240392 65.744711 
L 115.545366 65.100126 
L 116.76526 65.100126 
L 117.070234 64.455541 
L 118.290128 64.455541 
L 118.595101 63.810956 
L 120.119969 63.810956 
L 120.424943 63.166371 
L 121.644837 63.166371 
L 121.949811 62.521786 
L 123.169705 62.521786 
L 123.474679 61.877201 
L 124.999547 61.877201 
L 125.30452 61.232616 
L 126.524415 61.232616 
L 126.829388 60.588031 
L 128.354256 60.588031 
L 128.65923 59.943446 
L 130.184098 59.943446 
L 130.489071 59.298861 
L 131.708966 59.298861 
L 132.013939 58.654276 
L 133.538807 58.654276 
L 133.843781 58.009691 
L 135.368649 58.009691 
L 135.673622 57.365106 
L 137.19849 57.365106 
L 137.503464 56.720521 
L 139.028332 56.720521 
L 139.333305 56.075936 
L 140.553199 56.075936 
L 140.858173 55.431351 
L 142.383041 55.431351 
L 142.688015 54.786766 
L 144.212882 54.786766 
L 144.517856 54.142181 
L 146.347698 54.142181 
L 146.652671 53.497596 
L 148.177539 53.497596 
L 148.482513 52.853011 
L 150.007381 52.853011 
L 150.312354 52.208426 
L 151.837222 52.208426 
L 152.142196 51.563841 
L 153.667064 51.563841 
L 153.972037 50.919256 
L 155.496905 50.919256 
L 155.801879 50.274671 
L 157.63172 50.274671 
L 157.936694 49.630086 
L 159.461562 49.630086 
L 159.766535 48.985501 
L 161.596377 48.985501 
L 161.90135 48.340917 
L 163.426218 48.340917 
L 163.731192 47.696332 
L 165.561033 47.696332 
L 165.866007 47.051747 
L 167.390875 47.051747 
L 167.695848 46.407162 
L 169.52569 46.407162 
L 169.830663 45.762577 
L 171.355531 45.762577 
L 171.660505 45.117992 
L 173.490346 45.117992 
L 173.79532 44.473407 
L 175.625162 44.473407 
L 175.930135 43.828822 
L 177.759977 43.828822 
L 178.06495 43.184237 
L 179.589818 43.184237 
L 179.894792 42.539652 
L 181.724633 42.539652 
L 182.029607 41.895067 
L 183.859448 41.895067 
L 184.164422 41.250482 
L 185.994263 41.250482 
L 186.299237 40.605897 
L 188.129078 40.605897 
L 188.434052 39.961312 
L 190.263894 39.961312 
L 190.568867 39.316727 
L 192.398709 39.316727 
L 192.703682 38.672142 
L 194.533524 38.672142 
L 194.838497 38.027557 
L 196.668339 38.027557 
L 196.973312 37.382972 
L 198.803154 37.382972 
L 199.108128 36.738387 
L 200.937969 36.738387 
L 201.242943 36.093802 
L 201.85289 36.093802 
L 202.157863 35.449217 
L 202.462837 35.449217 
L 202.767811 34.804632 
L 203.072784 34.804632 
L 203.072784 34.804632 
" clip-path="url(#p3f307851b8)" style="fill: none; stroke: #3b528b; stroke-width: 1.5; stroke-linecap: square"/>
   </g>
   <g id="line2d_15">
    <path d="M 50.890966 72.835146 
L 51.805887 72.835146 
L 52.11086 72.190561 
L 52.720807 72.190561 
L 53.025781 71.545976 
L 54.245675 71.545976 
L 54.550649 70.901391 
L 55.46557 70.901391 
L 55.770543 70.256806 
L 56.990438 70.256806 
L 57.295411 69.612221 
L 58.515305 69.612221 
L 58.820279 68.967636 
L 60.650121 68.967636 
L 60.955094 68.323051 
L 62.784936 68.323051 
L 63.089909 67.678466 
L 64.919751 67.678466 
L 65.224724 67.033881 
L 67.664513 67.033881 
L 67.969487 66.389296 
L 70.104302 66.389296 
L 70.409275 65.744711 
L 72.849064 65.744711 
L 73.154038 65.100126 
L 75.593826 65.100126 
L 75.8988 64.455541 
L 78.338588 64.455541 
L 78.643562 63.810956 
L 80.778377 63.810956 
L 81.083351 63.166371 
L 83.523139 63.166371 
L 83.828113 62.521786 
L 86.267902 62.521786 
L 86.572875 61.877201 
L 89.012664 61.877201 
L 89.317637 61.232616 
L 91.452453 61.232616 
L 91.757426 60.588031 
L 94.197215 60.588031 
L 94.502188 59.943446 
L 96.637003 59.943446 
L 96.941977 59.298861 
L 99.381766 59.298861 
L 99.686739 58.654276 
L 102.126528 58.654276 
L 102.431502 58.009691 
L 104.566317 58.009691 
L 104.87129 57.365106 
L 107.311079 57.365106 
L 107.616052 56.720521 
L 109.750868 56.720521 
L 110.055841 56.075936 
L 112.49563 56.075936 
L 112.800603 55.431351 
L 114.935418 55.431351 
L 115.240392 54.786766 
L 117.680181 54.786766 
L 117.985154 54.142181 
L 120.119969 54.142181 
L 120.424943 53.497596 
L 122.864732 53.497596 
L 123.169705 52.853011 
L 125.609494 52.853011 
L 125.914467 52.208426 
L 128.049283 52.208426 
L 128.354256 51.563841 
L 130.794045 51.563841 
L 131.099018 50.919256 
L 133.233833 50.919256 
L 133.538807 50.274671 
L 135.978596 50.274671 
L 136.283569 49.630086 
L 138.723358 49.630086 
L 139.028332 48.985501 
L 141.163147 48.985501 
L 141.46812 48.340917 
L 143.907909 48.340917 
L 144.212882 47.696332 
L 146.652671 47.696332 
L 146.957645 47.051747 
L 149.09246 47.051747 
L 149.397433 46.407162 
L 151.837222 46.407162 
L 152.142196 45.762577 
L 154.581984 45.762577 
L 154.886958 45.117992 
L 157.326747 45.117992 
L 157.63172 44.473407 
L 160.071509 44.473407 
L 160.376482 43.828822 
L 162.511297 43.828822 
L 162.816271 43.184237 
L 165.25606 43.184237 
L 165.561033 42.539652 
L 168.000822 42.539652 
L 168.305796 41.895067 
L 170.745584 41.895067 
L 171.050558 41.250482 
L 173.490346 41.250482 
L 173.79532 40.605897 
L 176.235109 40.605897 
L 176.540082 39.961312 
L 178.979871 39.961312 
L 179.284845 39.316727 
L 181.724633 39.316727 
L 182.029607 38.672142 
L 184.469395 38.672142 
L 184.774369 38.027557 
L 187.214158 38.027557 
L 187.519131 37.382972 
L 189.95892 37.382972 
L 190.263894 36.738387 
L 192.703682 36.738387 
L 193.008656 36.093802 
L 195.753418 36.093802 
L 196.058392 35.449217 
L 198.49818 35.449217 
L 198.803154 34.804632 
L 202.462837 34.804632 
L 202.767811 35.449217 
L 203.072784 35.449217 
L 203.072784 35.449217 
" clip-path="url(#p3f307851b8)" style="fill: none; stroke-dasharray: 5.55,2.4; stroke-dashoffset: 0; stroke: #21918c; stroke-width: 1.5"/>
   </g>
   <g id="line2d_16">
    <path d="M 50.890966 121.823604 
L 51.805887 121.823604 
L 52.11086 122.468189 
L 52.720807 122.468189 
L 53.025781 123.112774 
L 54.245675 123.112774 
L 54.550649 123.757359 
L 55.46557 123.757359 
L 55.770543 124.401944 
L 56.990438 124.401944 
L 57.295411 125.046529 
L 58.515305 125.046529 
L 58.820279 125.691114 
L 60.650121 125.691114 
L 60.955094 126.335699 
L 62.784936 126.335699 
L 63.089909 126.980284 
L 64.919751 126.980284 
L 65.224724 127.624869 
L 67.664513 127.624869 
L 67.969487 128.269454 
L 70.104302 128.269454 
L 70.409275 128.914039 
L 72.849064 128.914039 
L 73.154038 129.558624 
L 75.593826 129.558624 
L 75.8988 130.203209 
L 78.338588 130.203209 
L 78.643562 130.847794 
L 80.778377 130.847794 
L 81.083351 131.492379 
L 83.523139 131.492379 
L 83.828113 132.136964 
L 86.267902 132.136964 
L 86.572875 132.781549 
L 89.012664 132.781549 
L 89.317637 133.426134 
L 91.452453 133.426134 
L 91.757426 134.070719 
L 94.197215 134.070719 
L 94.502188 134.715304 
L 96.637003 134.715304 
L 96.941977 135.359889 
L 99.381766 135.359889 
L 99.686739 136.004474 
L 102.126528 136.004474 
L 102.431502 136.649059 
L 104.566317 136.649059 
L 104.87129 137.293644 
L 107.311079 137.293644 
L 107.616052 137.938229 
L 109.750868 137.938229 
L 110.055841 138.582814 
L 112.49563 138.582814 
L 112.800603 139.227399 
L 114.935418 139.227399 
L 115.240392 139.871984 
L 117.680181 139.871984 
L 117.985154 140.516569 
L 120.119969 140.516569 
L 120.424943 141.161154 
L 122.864732 141.161154 
L 123.169705 141.805739 
L 125.609494 141.805739 
L 125.914467 142.450324 
L 128.049283 142.450324 
L 128.354256 143.094909 
L 130.794045 143.094909 
L 131.099018 143.739494 
L 133.233833 143.739494 
L 133.538807 144.384079 
L 135.978596 144.384079 
L 136.283569 145.028664 
L 138.723358 145.028664 
L 139.028332 145.673249 
L 141.163147 145.673249 
L 141.46812 146.317833 
L 143.907909 146.317833 
L 144.212882 146.962418 
L 146.652671 146.962418 
L 146.957645 147.607003 
L 149.09246 147.607003 
L 149.397433 148.251588 
L 151.837222 148.251588 
L 152.142196 148.896173 
L 154.581984 148.896173 
L 154.886958 149.540758 
L 157.326747 149.540758 
L 157.63172 150.185343 
L 160.071509 150.185343 
L 160.376482 150.829928 
L 162.511297 150.829928 
L 162.816271 151.474513 
L 165.25606 151.474513 
L 165.561033 152.119098 
L 168.000822 152.119098 
L 168.305796 152.763683 
L 170.745584 152.763683 
L 171.050558 153.408268 
L 173.490346 153.408268 
L 173.79532 154.052853 
L 176.235109 154.052853 
L 176.540082 154.697438 
L 178.979871 154.697438 
L 179.284845 155.342023 
L 181.724633 155.342023 
L 182.029607 155.986608 
L 184.469395 155.986608 
L 184.774369 156.631193 
L 187.214158 156.631193 
L 187.519131 157.275778 
L 189.95892 157.275778 
L 190.263894 157.920363 
L 192.703682 157.920363 
L 193.008656 158.564948 
L 195.753418 158.564948 
L 196.058392 159.209533 
L 198.49818 159.209533 
L 198.803154 159.854118 
L 202.462837 159.854118 
L 202.767811 159.209533 
L 203.072784 159.209533 
L 203.072784 159.209533 
" clip-path="url(#p3f307851b8)" style="fill: none; stroke-dasharray: 5.55,2.4; stroke-dashoffset: 0; stroke: #21918c; stroke-width: 1.5"/>
   </g>
   <g id="line2d_17">
    <path d="M 59.7352 97.329375 
L 60.345147 98.618545 
L 60.650121 98.618545 
L 60.955094 99.26313 
L 61.260068 99.26313 
L 61.565041 99.907715 
L 62.174988 99.907715 
L 62.479962 100.5523 
L 63.089909 100.5523 
L 63.394883 101.196885 
L 64.00483 101.196885 
L 64.309804 101.84147 
L 65.224724 101.84147 
L 65.529698 102.486055 
L 66.139645 102.486055 
L 66.444619 103.13064 
L 67.359539 103.13064 
L 67.664513 103.775225 
L 68.579434 103.775225 
L 68.884407 104.41981 
L 69.494355 104.41981 
L 69.799328 105.064395 
L 70.714249 105.064395 
L 71.019222 105.70898 
L 71.934143 105.70898 
L 72.239117 106.353565 
L 73.154038 106.353565 
L 73.459011 106.99815 
L 74.373932 106.99815 
L 74.678905 107.642735 
L 75.593826 107.642735 
L 75.8988 108.28732 
L 76.813721 108.28732 
L 77.118694 108.931905 
L 78.033615 108.931905 
L 78.338588 109.57649 
L 79.253509 109.57649 
L 79.558483 110.221075 
L 80.778377 110.221075 
L 81.083351 110.86566 
L 81.998271 110.86566 
L 82.303245 111.510245 
L 83.218166 111.510245 
L 83.523139 112.15483 
L 84.743034 112.15483 
L 85.048007 112.799415 
L 85.962928 112.799415 
L 86.267902 113.444 
L 87.487796 113.444 
L 87.79277 114.088584 
L 88.70769 114.088584 
L 89.012664 114.733169 
L 90.232558 114.733169 
L 90.537532 115.377754 
L 91.757426 115.377754 
L 92.0624 116.022339 
L 92.97732 116.022339 
L 93.282294 116.666924 
L 94.502188 116.666924 
L 94.807162 117.311509 
L 96.027056 117.311509 
L 96.33203 117.956094 
L 97.551924 117.956094 
L 97.856898 118.600679 
L 99.076792 118.600679 
L 99.381766 119.245264 
L 100.60166 119.245264 
L 100.906634 119.889849 
L 102.126528 119.889849 
L 102.431502 120.534434 
L 103.651396 120.534434 
L 103.956369 121.179019 
L 105.481237 121.179019 
L 105.786211 121.823604 
L 107.006105 121.823604 
L 107.311079 122.468189 
L 108.530973 122.468189 
L 108.835947 123.112774 
L 110.360815 123.112774 
L 110.665788 123.757359 
L 111.885683 123.757359 
L 112.190656 124.401944 
L 113.715524 124.401944 
L 114.020498 125.046529 
L 115.240392 125.046529 
L 115.545366 125.691114 
L 117.070234 125.691114 
L 117.375207 126.335699 
L 118.595101 126.335699 
L 118.900075 126.980284 
L 120.424943 126.980284 
L 120.729917 127.624869 
L 122.254784 127.624869 
L 122.559758 128.269454 
L 124.084626 128.269454 
L 124.3896 128.914039 
L 125.914467 128.914039 
L 126.219441 129.558624 
L 127.744309 129.558624 
L 128.049283 130.203209 
L 129.57415 130.203209 
L 129.879124 130.847794 
L 131.403992 130.847794 
L 131.708966 131.492379 
L 133.233833 131.492379 
L 133.538807 132.136964 
L 135.063675 132.136964 
L 135.368649 132.781549 
L 136.893516 132.781549 
L 137.19849 133.426134 
L 139.028332 133.426134 
L 139.333305 134.070719 
L 140.858173 134.070719 
L 141.163147 134.715304 
L 142.992988 134.715304 
L 143.297962 135.359889 
L 144.82283 135.359889 
L 145.127803 136.004474 
L 146.957645 136.004474 
L 147.262618 136.649059 
L 148.787486 136.649059 
L 149.09246 137.293644 
L 150.922301 137.293644 
L 151.227275 137.938229 
L 153.057116 137.938229 
L 153.36209 138.582814 
L 154.886958 138.582814 
L 155.191931 139.227399 
L 157.021773 139.227399 
L 157.326747 139.871984 
L 159.156588 139.871984 
L 159.461562 140.516569 
L 161.291403 140.516569 
L 161.596377 141.161154 
L 163.426218 141.161154 
L 163.731192 141.805739 
L 165.561033 141.805739 
L 165.866007 142.450324 
L 167.695848 142.450324 
L 168.000822 143.094909 
L 169.830663 143.094909 
L 170.135637 143.739494 
L 171.965479 143.739494 
L 172.270452 144.384079 
L 174.100294 144.384079 
L 174.405267 145.028664 
L 176.540082 145.028664 
L 176.845056 145.673249 
L 178.674897 145.673249 
L 178.979871 146.317833 
L 180.809712 146.317833 
L 181.114686 146.962418 
L 183.249501 146.962418 
L 183.554475 147.607003 
L 185.384316 147.607003 
L 185.68929 148.251588 
L 187.824105 148.251588 
L 188.129078 148.896173 
L 189.95892 148.896173 
L 190.263894 149.540758 
L 192.398709 149.540758 
L 192.703682 150.185343 
L 194.838497 150.185343 
L 195.143471 150.829928 
L 196.973312 150.829928 
L 197.278286 151.474513 
L 199.413101 151.474513 
L 199.718075 152.119098 
L 201.242943 152.119098 
L 201.547916 152.763683 
L 202.157863 152.763683 
L 202.767811 154.052853 
L 203.072784 154.052853 
L 203.072784 154.052853 
" clip-path="url(#p3f307851b8)" style="fill: none; stroke: #21918c; stroke-width: 1.5; stroke-linecap: square"/>
   </g>
   <g id="line2d_18">
    <path d="M 59.7352 97.329375 
L 60.345147 96.040205 
L 60.650121 96.040205 
L 60.955094 95.39562 
L 61.260068 95.39562 
L 61.565041 94.751035 
L 62.174988 94.751035 
L 62.479962 94.10645 
L 63.089909 94.10645 
L 63.394883 93.461865 
L 64.00483 93.461865 
L 64.309804 92.81728 
L 65.224724 92.81728 
L 65.529698 92.172695 
L 66.139645 92.172695 
L 66.444619 91.52811 
L 67.359539 91.52811 
L 67.664513 90.883525 
L 68.579434 90.883525 
L 68.884407 90.23894 
L 69.494355 90.23894 
L 69.799328 89.594355 
L 70.714249 89.594355 
L 71.019222 88.94977 
L 71.934143 88.94977 
L 72.239117 88.305185 
L 73.154038 88.305185 
L 73.459011 87.6606 
L 74.373932 87.6606 
L 74.678905 87.016015 
L 75.593826 87.016015 
L 75.8988 86.37143 
L 76.813721 86.37143 
L 77.118694 85.726845 
L 78.033615 85.726845 
L 78.338588 85.08226 
L 79.253509 85.08226 
L 79.558483 84.437675 
L 80.778377 84.437675 
L 81.083351 83.79309 
L 81.998271 83.79309 
L 82.303245 83.148505 
L 83.218166 83.148505 
L 83.523139 82.50392 
L 84.743034 82.50392 
L 85.048007 81.859335 
L 85.962928 81.859335 
L 86.267902 81.21475 
L 87.487796 81.21475 
L 87.79277 80.570166 
L 88.70769 80.570166 
L 89.012664 79.925581 
L 90.232558 79.925581 
L 90.537532 79.280996 
L 91.757426 79.280996 
L 92.0624 78.636411 
L 92.97732 78.636411 
L 93.282294 77.991826 
L 94.502188 77.991826 
L 94.807162 77.347241 
L 96.027056 77.347241 
L 96.33203 76.702656 
L 97.551924 76.702656 
L 97.856898 76.058071 
L 99.076792 76.058071 
L 99.381766 75.413486 
L 100.60166 75.413486 
L 100.906634 74.768901 
L 102.126528 74.768901 
L 102.431502 74.124316 
L 103.651396 74.124316 
L 103.956369 73.479731 
L 105.481237 73.479731 
L 105.786211 72.835146 
L 107.006105 72.835146 
L 107.311079 72.190561 
L 108.530973 72.190561 
L 108.835947 71.545976 
L 110.360815 71.545976 
L 110.665788 70.901391 
L 111.885683 70.901391 
L 112.190656 70.256806 
L 113.715524 70.256806 
L 114.020498 69.612221 
L 115.240392 69.612221 
L 115.545366 68.967636 
L 117.070234 68.967636 
L 117.375207 68.323051 
L 118.595101 68.323051 
L 118.900075 67.678466 
L 120.424943 67.678466 
L 120.729917 67.033881 
L 122.254784 67.033881 
L 122.559758 66.389296 
L 124.084626 66.389296 
L 124.3896 65.744711 
L 125.914467 65.744711 
L 126.219441 65.100126 
L 127.744309 65.100126 
L 128.049283 64.455541 
L 129.57415 64.455541 
L 129.879124 63.810956 
L 131.403992 63.810956 
L 131.708966 63.166371 
L 133.233833 63.166371 
L 133.538807 62.521786 
L 135.063675 62.521786 
L 135.368649 61.877201 
L 136.893516 61.877201 
L 137.19849 61.232616 
L 139.028332 61.232616 
L 139.333305 60.588031 
L 140.858173 60.588031 
L 141.163147 59.943446 
L 142.992988 59.943446 
L 143.297962 59.298861 
L 144.82283 59.298861 
L 145.127803 58.654276 
L 146.957645 58.654276 
L 147.262618 58.009691 
L 148.787486 58.009691 
L 149.09246 57.365106 
L 150.922301 57.365106 
L 151.227275 56.720521 
L 153.057116 56.720521 
L 153.36209 56.075936 
L 154.886958 56.075936 
L 155.191931 55.431351 
L 157.021773 55.431351 
L 157.326747 54.786766 
L 159.156588 54.786766 
L 159.461562 54.142181 
L 161.291403 54.142181 
L 161.596377 53.497596 
L 163.426218 53.497596 
L 163.731192 52.853011 
L 165.561033 52.853011 
L 165.866007 52.208426 
L 167.695848 52.208426 
L 168.000822 51.563841 
L 169.830663 51.563841 
L 170.135637 50.919256 
L 171.965479 50.919256 
L 172.270452 50.274671 
L 174.100294 50.274671 
L 174.405267 49.630086 
L 176.540082 49.630086 
L 176.845056 48.985501 
L 178.674897 48.985501 
L 178.979871 48.340917 
L 180.809712 48.340917 
L 181.114686 47.696332 
L 183.249501 47.696332 
L 183.554475 47.051747 
L 185.384316 47.051747 
L 185.68929 46.407162 
L 187.824105 46.407162 
L 188.129078 45.762577 
L 189.95892 45.762577 
L 190.263894 45.117992 
L 192.398709 45.117992 
L 192.703682 44.473407 
L 194.838497 44.473407 
L 195.143471 43.828822 
L 196.973312 43.828822 
L 197.278286 43.184237 
L 199.413101 43.184237 
L 199.718075 42.539652 
L 201.242943 42.539652 
L 201.547916 41.895067 
L 202.157863 41.895067 
L 202.767811 40.605897 
L 203.072784 40.605897 
L 203.072784 40.605897 
" clip-path="url(#p3f307851b8)" style="fill: none; stroke: #21918c; stroke-width: 1.5; stroke-linecap: square"/>
   </g>
   <g id="line2d_19">
    <path d="M 50.890966 73.479731 
L 51.500913 73.479731 
L 51.805887 72.835146 
L 52.720807 72.835146 
L 53.025781 72.190561 
L 54.245675 72.190561 
L 54.550649 71.545976 
L 56.075517 71.545976 
L 56.38049 70.901391 
L 57.905358 70.901391 
L 58.210332 70.256806 
L 60.040173 70.256806 
L 60.345147 69.612221 
L 62.479962 69.612221 
L 62.784936 68.967636 
L 65.529698 68.967636 
L 65.834672 68.323051 
L 68.579434 68.323051 
L 68.884407 67.678466 
L 71.62917 67.678466 
L 71.934143 67.033881 
L 74.983879 67.033881 
L 75.288853 66.389296 
L 78.338588 66.389296 
L 78.643562 65.744711 
L 81.388324 65.744711 
L 81.693298 65.100126 
L 84.743034 65.100126 
L 85.048007 64.455541 
L 87.79277 64.455541 
L 88.097743 63.810956 
L 90.842505 63.810956 
L 91.147479 63.166371 
L 93.892241 63.166371 
L 94.197215 62.521786 
L 96.941977 62.521786 
L 97.246951 61.877201 
L 99.991713 61.877201 
L 100.296686 61.232616 
L 103.041449 61.232616 
L 103.346422 60.588031 
L 106.091185 60.588031 
L 106.396158 59.943446 
L 109.14092 59.943446 
L 109.445894 59.298861 
L 112.190656 59.298861 
L 112.49563 58.654276 
L 115.240392 58.654276 
L 115.545366 58.009691 
L 118.290128 58.009691 
L 118.595101 57.365106 
L 121.03489 57.365106 
L 121.339864 56.720521 
L 124.084626 56.720521 
L 124.3896 56.075936 
L 127.134362 56.075936 
L 127.439335 55.431351 
L 130.184098 55.431351 
L 130.489071 54.786766 
L 132.92886 54.786766 
L 133.233833 54.142181 
L 135.978596 54.142181 
L 136.283569 53.497596 
L 139.028332 53.497596 
L 139.333305 52.853011 
L 142.078067 52.853011 
L 142.383041 52.208426 
L 145.127803 52.208426 
L 145.432777 51.563841 
L 148.177539 51.563841 
L 148.482513 50.919256 
L 150.922301 50.919256 
L 151.227275 50.274671 
L 153.972037 50.274671 
L 154.277011 49.630086 
L 157.021773 49.630086 
L 157.326747 48.985501 
L 160.071509 48.985501 
L 160.376482 48.340917 
L 163.121245 48.340917 
L 163.426218 47.696332 
L 166.17098 47.696332 
L 166.475954 47.051747 
L 169.220716 47.051747 
L 169.52569 46.407162 
L 172.270452 46.407162 
L 172.575426 45.762577 
L 175.320188 45.762577 
L 175.625162 45.117992 
L 178.369924 45.117992 
L 178.674897 44.473407 
L 181.41966 44.473407 
L 181.724633 43.828822 
L 184.469395 43.828822 
L 184.774369 43.184237 
L 187.824105 43.184237 
L 188.129078 42.539652 
L 190.873841 42.539652 
L 191.178814 41.895067 
L 193.923577 41.895067 
L 194.22855 41.250482 
L 196.973312 41.250482 
L 197.278286 40.605897 
L 200.632995 40.605897 
L 200.937969 39.961312 
L 201.547916 39.961312 
L 201.85289 40.605897 
L 202.462837 40.605897 
L 202.767811 41.250482 
L 203.072784 41.250482 
L 203.072784 41.250482 
" clip-path="url(#p3f307851b8)" style="fill: none; stroke-dasharray: 5.55,2.4; stroke-dashoffset: 0; stroke: #5ec962; stroke-width: 1.5"/>
   </g>
   <g id="line2d_20">
    <path d="M 50.890966 121.179019 
L 51.500913 121.179019 
L 51.805887 121.823604 
L 52.720807 121.823604 
L 53.025781 122.468189 
L 54.245675 122.468189 
L 54.550649 123.112774 
L 56.075517 123.112774 
L 56.38049 123.757359 
L 57.905358 123.757359 
L 58.210332 124.401944 
L 60.040173 124.401944 
L 60.345147 125.046529 
L 62.479962 125.046529 
L 62.784936 125.691114 
L 65.529698 125.691114 
L 65.834672 126.335699 
L 68.579434 126.335699 
L 68.884407 126.980284 
L 71.62917 126.980284 
L 71.934143 127.624869 
L 74.983879 127.624869 
L 75.288853 128.269454 
L 78.338588 128.269454 
L 78.643562 128.914039 
L 81.388324 128.914039 
L 81.693298 129.558624 
L 84.743034 129.558624 
L 85.048007 130.203209 
L 87.79277 130.203209 
L 88.097743 130.847794 
L 90.842505 130.847794 
L 91.147479 131.492379 
L 93.892241 131.492379 
L 94.197215 132.136964 
L 96.941977 132.136964 
L 97.246951 132.781549 
L 99.991713 132.781549 
L 100.296686 133.426134 
L 103.041449 133.426134 
L 103.346422 134.070719 
L 106.091185 134.070719 
L 106.396158 134.715304 
L 109.14092 134.715304 
L 109.445894 135.359889 
L 112.190656 135.359889 
L 112.49563 136.004474 
L 115.240392 136.004474 
L 115.545366 136.649059 
L 118.290128 136.649059 
L 118.595101 137.293644 
L 121.03489 137.293644 
L 121.339864 137.938229 
L 124.084626 137.938229 
L 124.3896 138.582814 
L 127.134362 138.582814 
L 127.439335 139.227399 
L 130.184098 139.227399 
L 130.489071 139.871984 
L 132.92886 139.871984 
L 133.233833 140.516569 
L 135.978596 140.516569 
L 136.283569 141.161154 
L 139.028332 141.161154 
L 139.333305 141.805739 
L 142.078067 141.805739 
L 142.383041 142.450324 
L 145.127803 142.450324 
L 145.432777 143.094909 
L 148.177539 143.094909 
L 148.482513 143.739494 
L 150.922301 143.739494 
L 151.227275 144.384079 
L 153.972037 144.384079 
L 154.277011 145.028664 
L 157.021773 145.028664 
L 157.326747 145.673249 
L 160.071509 145.673249 
L 160.376482 146.317833 
L 163.121245 146.317833 
L 163.426218 146.962418 
L 166.17098 146.962418 
L 166.475954 147.607003 
L 169.220716 147.607003 
L 169.52569 148.251588 
L 172.270452 148.251588 
L 172.575426 148.896173 
L 175.320188 148.896173 
L 175.625162 149.540758 
L 178.369924 149.540758 
L 178.674897 150.185343 
L 181.41966 150.185343 
L 181.724633 150.829928 
L 184.469395 150.829928 
L 184.774369 151.474513 
L 187.824105 151.474513 
L 188.129078 152.119098 
L 190.873841 152.119098 
L 191.178814 152.763683 
L 193.923577 152.763683 
L 194.22855 153.408268 
L 196.973312 153.408268 
L 197.278286 154.052853 
L 200.632995 154.052853 
L 200.937969 154.697438 
L 201.547916 154.697438 
L 201.85289 154.052853 
L 202.462837 154.052853 
L 202.767811 153.408268 
L 203.072784 153.408268 
L 203.072784 153.408268 
" clip-path="url(#p3f307851b8)" style="fill: none; stroke-dasharray: 5.55,2.4; stroke-dashoffset: 0; stroke: #5ec962; stroke-width: 1.5"/>
   </g>
   <g id="line2d_21">
    <path d="M 63.089909 97.97396 
L 63.394883 98.618545 
L 63.699856 98.618545 
L 64.00483 99.26313 
L 64.614777 99.26313 
L 64.919751 99.907715 
L 65.834672 99.907715 
L 66.139645 100.5523 
L 66.749592 100.5523 
L 67.054566 101.196885 
L 67.969487 101.196885 
L 68.27446 101.84147 
L 69.189381 101.84147 
L 69.494355 102.486055 
L 70.409275 102.486055 
L 70.714249 103.13064 
L 71.62917 103.13064 
L 71.934143 103.775225 
L 73.154038 103.775225 
L 73.459011 104.41981 
L 74.373932 104.41981 
L 74.678905 105.064395 
L 75.593826 105.064395 
L 75.8988 105.70898 
L 76.813721 105.70898 
L 77.118694 106.353565 
L 78.338588 106.353565 
L 78.643562 106.99815 
L 79.558483 106.99815 
L 79.863456 107.642735 
L 81.083351 107.642735 
L 81.388324 108.28732 
L 82.608219 108.28732 
L 82.913192 108.931905 
L 83.828113 108.931905 
L 84.133087 109.57649 
L 85.352981 109.57649 
L 85.657954 110.221075 
L 86.877849 110.221075 
L 87.182822 110.86566 
L 88.402717 110.86566 
L 88.70769 111.510245 
L 89.927585 111.510245 
L 90.232558 112.15483 
L 91.452453 112.15483 
L 91.757426 112.799415 
L 92.97732 112.799415 
L 93.282294 113.444 
L 94.502188 113.444 
L 94.807162 114.088584 
L 96.027056 114.088584 
L 96.33203 114.733169 
L 97.551924 114.733169 
L 97.856898 115.377754 
L 99.381766 115.377754 
L 99.686739 116.022339 
L 100.906634 116.022339 
L 101.211607 116.666924 
L 102.736475 116.666924 
L 103.041449 117.311509 
L 104.261343 117.311509 
L 104.566317 117.956094 
L 106.091185 117.956094 
L 106.396158 118.600679 
L 107.921026 118.600679 
L 108.226 119.245264 
L 109.445894 119.245264 
L 109.750868 119.889849 
L 111.275735 119.889849 
L 111.580709 120.534434 
L 113.105577 120.534434 
L 113.410551 121.179019 
L 114.935418 121.179019 
L 115.240392 121.823604 
L 116.76526 121.823604 
L 117.070234 122.468189 
L 118.595101 122.468189 
L 118.900075 123.112774 
L 120.729917 123.112774 
L 121.03489 123.757359 
L 122.559758 123.757359 
L 122.864732 124.401944 
L 124.3896 124.401944 
L 124.694573 125.046529 
L 126.524415 125.046529 
L 126.829388 125.691114 
L 128.354256 125.691114 
L 128.65923 126.335699 
L 130.489071 126.335699 
L 130.794045 126.980284 
L 132.318913 126.980284 
L 132.623886 127.624869 
L 134.453728 127.624869 
L 134.758701 128.269454 
L 136.588543 128.269454 
L 136.893516 128.914039 
L 138.418384 128.914039 
L 138.723358 129.558624 
L 140.553199 129.558624 
L 140.858173 130.203209 
L 142.688015 130.203209 
L 142.992988 130.847794 
L 144.82283 130.847794 
L 145.127803 131.492379 
L 146.957645 131.492379 
L 147.262618 132.136964 
L 149.09246 132.136964 
L 149.397433 132.781549 
L 151.532248 132.781549 
L 151.837222 133.426134 
L 153.667064 133.426134 
L 153.972037 134.070719 
L 155.801879 134.070719 
L 156.106852 134.715304 
L 158.241667 134.715304 
L 158.546641 135.359889 
L 160.376482 135.359889 
L 160.681456 136.004474 
L 162.816271 136.004474 
L 163.121245 136.649059 
L 164.951086 136.649059 
L 165.25606 137.293644 
L 167.390875 137.293644 
L 167.695848 137.938229 
L 169.830663 137.938229 
L 170.135637 138.582814 
L 171.965479 138.582814 
L 172.270452 139.227399 
L 174.405267 139.227399 
L 174.710241 139.871984 
L 176.845056 139.871984 
L 177.150029 140.516569 
L 179.284845 140.516569 
L 179.589818 141.161154 
L 181.724633 141.161154 
L 182.029607 141.805739 
L 184.164422 141.805739 
L 184.469395 142.450324 
L 186.604211 142.450324 
L 186.909184 143.094909 
L 189.348973 143.094909 
L 189.653946 143.739494 
L 191.788762 143.739494 
L 192.093735 144.384079 
L 194.22855 144.384079 
L 194.533524 145.028664 
L 196.668339 145.028664 
L 196.973312 145.673249 
L 199.413101 145.673249 
L 199.718075 146.317833 
L 201.242943 146.317833 
L 201.547916 146.962418 
L 202.157863 146.962418 
L 202.767811 148.251588 
L 203.072784 148.251588 
L 203.072784 148.251588 
" clip-path="url(#p3f307851b8)" style="fill: none; stroke: #5ec962; stroke-width: 1.5; stroke-linecap: square"/>
   </g>
   <g id="line2d_22">
    <path d="M 63.089909 96.68479 
L 63.394883 96.040205 
L 63.699856 96.040205 
L 64.00483 95.39562 
L 64.614777 95.39562 
L 64.919751 94.751035 
L 65.834672 94.751035 
L 66.139645 94.10645 
L 66.749592 94.10645 
L 67.054566 93.461865 
L 67.969487 93.461865 
L 68.27446 92.81728 
L 69.189381 92.81728 
L 69.494355 92.172695 
L 70.409275 92.172695 
L 70.714249 91.52811 
L 71.62917 91.52811 
L 71.934143 90.883525 
L 73.154038 90.883525 
L 73.459011 90.23894 
L 74.373932 90.23894 
L 74.678905 89.594355 
L 75.593826 89.594355 
L 75.8988 88.94977 
L 76.813721 88.94977 
L 77.118694 88.305185 
L 78.338588 88.305185 
L 78.643562 87.6606 
L 79.558483 87.6606 
L 79.863456 87.016015 
L 81.083351 87.016015 
L 81.388324 86.37143 
L 82.608219 86.37143 
L 82.913192 85.726845 
L 83.828113 85.726845 
L 84.133087 85.08226 
L 85.352981 85.08226 
L 85.657954 84.437675 
L 86.877849 84.437675 
L 87.182822 83.79309 
L 88.402717 83.79309 
L 88.70769 83.148505 
L 89.927585 83.148505 
L 90.232558 82.50392 
L 91.452453 82.50392 
L 91.757426 81.859335 
L 92.97732 81.859335 
L 93.282294 81.21475 
L 94.502188 81.21475 
L 94.807162 80.570166 
L 96.027056 80.570166 
L 96.33203 79.925581 
L 97.551924 79.925581 
L 97.856898 79.280996 
L 99.381766 79.280996 
L 99.686739 78.636411 
L 100.906634 78.636411 
L 101.211607 77.991826 
L 102.736475 77.991826 
L 103.041449 77.347241 
L 104.261343 77.347241 
L 104.566317 76.702656 
L 106.091185 76.702656 
L 106.396158 76.058071 
L 107.921026 76.058071 
L 108.226 75.413486 
L 109.445894 75.413486 
L 109.750868 74.768901 
L 111.275735 74.768901 
L 111.580709 74.124316 
L 113.105577 74.124316 
L 113.410551 73.479731 
L 114.935418 73.479731 
L 115.240392 72.835146 
L 116.76526 72.835146 
L 117.070234 72.190561 
L 118.595101 72.190561 
L 118.900075 71.545976 
L 120.729917 71.545976 
L 121.03489 70.901391 
L 122.559758 70.901391 
L 122.864732 70.256806 
L 124.3896 70.256806 
L 124.694573 69.612221 
L 126.524415 69.612221 
L 126.829388 68.967636 
L 128.354256 68.967636 
L 128.65923 68.323051 
L 130.489071 68.323051 
L 130.794045 67.678466 
L 132.318913 67.678466 
L 132.623886 67.033881 
L 134.453728 67.033881 
L 134.758701 66.389296 
L 136.588543 66.389296 
L 136.893516 65.744711 
L 138.418384 65.744711 
L 138.723358 65.100126 
L 140.553199 65.100126 
L 140.858173 64.455541 
L 142.688015 64.455541 
L 142.992988 63.810956 
L 144.82283 63.810956 
L 145.127803 63.166371 
L 146.957645 63.166371 
L 147.262618 62.521786 
L 149.09246 62.521786 
L 149.397433 61.877201 
L 151.532248 61.877201 
L 151.837222 61.232616 
L 153.667064 61.232616 
L 153.972037 60.588031 
L 155.801879 60.588031 
L 156.106852 59.943446 
L 158.241667 59.943446 
L 158.546641 59.298861 
L 160.376482 59.298861 
L 160.681456 58.654276 
L 162.816271 58.654276 
L 163.121245 58.009691 
L 164.951086 58.009691 
L 165.25606 57.365106 
L 167.390875 57.365106 
L 167.695848 56.720521 
L 169.830663 56.720521 
L 170.135637 56.075936 
L 171.965479 56.075936 
L 172.270452 55.431351 
L 174.405267 55.431351 
L 174.710241 54.786766 
L 176.845056 54.786766 
L 177.150029 54.142181 
L 179.284845 54.142181 
L 179.589818 53.497596 
L 181.724633 53.497596 
L 182.029607 52.853011 
L 184.164422 52.853011 
L 184.469395 52.208426 
L 186.604211 52.208426 
L 186.909184 51.563841 
L 189.348973 51.563841 
L 189.653946 50.919256 
L 191.788762 50.919256 
L 192.093735 50.274671 
L 194.22855 50.274671 
L 194.533524 49.630086 
L 196.668339 49.630086 
L 196.973312 48.985501 
L 199.413101 48.985501 
L 199.718075 48.340917 
L 201.242943 48.340917 
L 201.547916 47.696332 
L 202.157863 47.696332 
L 202.767811 46.407162 
L 203.072784 46.407162 
L 203.072784 46.407162 
" clip-path="url(#p3f307851b8)" style="fill: none; stroke: #5ec962; stroke-width: 1.5; stroke-linecap: square"/>
   </g>
   <g id="line2d_23">
    <path d="M 50.890966 74.124316 
L 51.195939 73.479731 
L 52.415834 73.479731 
L 52.720807 72.835146 
L 53.940702 72.835146 
L 54.245675 72.190561 
L 56.38049 72.190561 
L 56.685464 71.545976 
L 59.125253 71.545976 
L 59.430226 70.901391 
L 62.479962 70.901391 
L 62.784936 70.256806 
L 66.139645 70.256806 
L 66.444619 69.612221 
L 70.104302 69.612221 
L 70.409275 68.967636 
L 74.068958 68.967636 
L 74.373932 68.323051 
L 78.033615 68.323051 
L 78.338588 67.678466 
L 81.998271 67.678466 
L 82.303245 67.033881 
L 85.962928 67.033881 
L 86.267902 66.389296 
L 89.622611 66.389296 
L 89.927585 65.744711 
L 93.587268 65.744711 
L 93.892241 65.100126 
L 97.246951 65.100126 
L 97.551924 64.455541 
L 100.906634 64.455541 
L 101.211607 63.810956 
L 104.261343 63.810956 
L 104.566317 63.166371 
L 107.921026 63.166371 
L 108.226 62.521786 
L 111.580709 62.521786 
L 111.885683 61.877201 
L 114.935418 61.877201 
L 115.240392 61.232616 
L 118.595101 61.232616 
L 118.900075 60.588031 
L 121.949811 60.588031 
L 122.254784 59.943446 
L 125.30452 59.943446 
L 125.609494 59.298861 
L 128.964203 59.298861 
L 129.269177 58.654276 
L 132.318913 58.654276 
L 132.623886 58.009691 
L 135.673622 58.009691 
L 135.978596 57.365106 
L 139.333305 57.365106 
L 139.638279 56.720521 
L 142.688015 56.720521 
L 142.992988 56.075936 
L 146.042724 56.075936 
L 146.347698 55.431351 
L 149.397433 55.431351 
L 149.702407 54.786766 
L 153.057116 54.786766 
L 153.36209 54.142181 
L 156.411826 54.142181 
L 156.716799 53.497596 
L 159.766535 53.497596 
L 160.071509 52.853011 
L 163.426218 52.853011 
L 163.731192 52.208426 
L 166.780928 52.208426 
L 167.085901 51.563841 
L 170.440611 51.563841 
L 170.745584 50.919256 
L 173.79532 50.919256 
L 174.100294 50.274671 
L 177.150029 50.274671 
L 177.455003 49.630086 
L 180.809712 49.630086 
L 181.114686 48.985501 
L 184.164422 48.985501 
L 184.469395 48.340917 
L 187.824105 48.340917 
L 188.129078 47.696332 
L 191.178814 47.696332 
L 191.483788 47.051747 
L 194.838497 47.051747 
L 195.143471 46.407162 
L 198.193207 46.407162 
L 198.49818 45.762577 
L 202.157863 45.762577 
L 202.767811 47.051747 
L 203.072784 47.051747 
L 203.072784 47.051747 
" clip-path="url(#p3f307851b8)" style="fill: none; stroke-dasharray: 5.55,2.4; stroke-dashoffset: 0; stroke: #fde725; stroke-width: 1.5"/>
   </g>
   <g id="line2d_24">
    <path d="M 50.890966 120.534434 
L 51.195939 121.179019 
L 52.415834 121.179019 
L 52.720807 121.823604 
L 53.940702 121.823604 
L 54.245675 122.468189 
L 56.38049 122.468189 
L 56.685464 123.112774 
L 59.125253 123.112774 
L 59.430226 123.757359 
L 62.479962 123.757359 
L 62.784936 124.401944 
L 66.139645 124.401944 
L 66.444619 125.046529 
L 70.104302 125.046529 
L 70.409275 125.691114 
L 74.068958 125.691114 
L 74.373932 126.335699 
L 78.033615 126.335699 
L 78.338588 126.980284 
L 81.998271 126.980284 
L 82.303245 127.624869 
L 85.962928 127.624869 
L 86.267902 128.269454 
L 89.622611 128.269454 
L 89.927585 128.914039 
L 93.587268 128.914039 
L 93.892241 129.558624 
L 97.246951 129.558624 
L 97.551924 130.203209 
L 100.906634 130.203209 
L 101.211607 130.847794 
L 104.261343 130.847794 
L 104.566317 131.492379 
L 107.921026 131.492379 
L 108.226 132.136964 
L 111.580709 132.136964 
L 111.885683 132.781549 
L 114.935418 132.781549 
L 115.240392 133.426134 
L 118.595101 133.426134 
L 118.900075 134.070719 
L 121.949811 134.070719 
L 122.254784 134.715304 
L 125.30452 134.715304 
L 125.609494 135.359889 
L 128.964203 135.359889 
L 129.269177 136.004474 
L 132.318913 136.004474 
L 132.623886 136.649059 
L 135.673622 136.649059 
L 135.978596 137.293644 
L 139.333305 137.293644 
L 139.638279 137.938229 
L 142.688015 137.938229 
L 142.992988 138.582814 
L 146.042724 138.582814 
L 146.347698 139.227399 
L 149.397433 139.227399 
L 149.702407 139.871984 
L 153.057116 139.871984 
L 153.36209 140.516569 
L 156.411826 140.516569 
L 156.716799 141.161154 
L 159.766535 141.161154 
L 160.071509 141.805739 
L 163.426218 141.805739 
L 163.731192 142.450324 
L 166.780928 142.450324 
L 167.085901 143.094909 
L 170.440611 143.094909 
L 170.745584 143.739494 
L 173.79532 143.739494 
L 174.100294 144.384079 
L 177.150029 144.384079 
L 177.455003 145.028664 
L 180.809712 145.028664 
L 181.114686 145.673249 
L 184.164422 145.673249 
L 184.469395 146.317833 
L 187.824105 146.317833 
L 188.129078 146.962418 
L 191.178814 146.962418 
L 191.483788 147.607003 
L 194.838497 147.607003 
L 195.143471 148.251588 
L 198.193207 148.251588 
L 198.49818 148.896173 
L 202.157863 148.896173 
L 202.767811 147.607003 
L 203.072784 147.607003 
L 203.072784 147.607003 
" clip-path="url(#p3f307851b8)" style="fill: none; stroke-dasharray: 5.55,2.4; stroke-dashoffset: 0; stroke: #fde725; stroke-width: 1.5"/>
   </g>
   <g id="line2d_25">
    <path d="M 66.749592 97.329375 
L 67.359539 98.618545 
L 67.969487 98.618545 
L 68.27446 99.26313 
L 68.884407 99.26313 
L 69.189381 99.907715 
L 70.104302 99.907715 
L 70.409275 100.5523 
L 71.324196 100.5523 
L 71.62917 101.196885 
L 72.54409 101.196885 
L 72.849064 101.84147 
L 74.068958 101.84147 
L 74.373932 102.486055 
L 75.288853 102.486055 
L 75.593826 103.13064 
L 76.813721 103.13064 
L 77.118694 103.775225 
L 78.338588 103.775225 
L 78.643562 104.41981 
L 79.863456 104.41981 
L 80.16843 105.064395 
L 81.388324 105.064395 
L 81.693298 105.70898 
L 82.913192 105.70898 
L 83.218166 106.353565 
L 84.43806 106.353565 
L 84.743034 106.99815 
L 85.962928 106.99815 
L 86.267902 107.642735 
L 87.487796 107.642735 
L 87.79277 108.28732 
L 89.012664 108.28732 
L 89.317637 108.931905 
L 90.842505 108.931905 
L 91.147479 109.57649 
L 92.367373 109.57649 
L 92.672347 110.221075 
L 94.197215 110.221075 
L 94.502188 110.86566 
L 95.722083 110.86566 
L 96.027056 111.510245 
L 97.551924 111.510245 
L 97.856898 112.15483 
L 99.381766 112.15483 
L 99.686739 112.799415 
L 100.906634 112.799415 
L 101.211607 113.444 
L 102.736475 113.444 
L 103.041449 114.088584 
L 104.566317 114.088584 
L 104.87129 114.733169 
L 106.396158 114.733169 
L 106.701132 115.377754 
L 108.530973 115.377754 
L 108.835947 116.022339 
L 110.360815 116.022339 
L 110.665788 116.666924 
L 112.190656 116.666924 
L 112.49563 117.311509 
L 114.325471 117.311509 
L 114.630445 117.956094 
L 116.155313 117.956094 
L 116.460286 118.600679 
L 118.290128 118.600679 
L 118.595101 119.245264 
L 120.424943 119.245264 
L 120.729917 119.889849 
L 122.254784 119.889849 
L 122.559758 120.534434 
L 124.3896 120.534434 
L 124.694573 121.179019 
L 126.524415 121.179019 
L 126.829388 121.823604 
L 128.65923 121.823604 
L 128.964203 122.468189 
L 130.794045 122.468189 
L 131.099018 123.112774 
L 132.92886 123.112774 
L 133.233833 123.757359 
L 135.368649 123.757359 
L 135.673622 124.401944 
L 137.503464 124.401944 
L 137.808437 125.046529 
L 139.943252 125.046529 
L 140.248226 125.691114 
L 142.078067 125.691114 
L 142.383041 126.335699 
L 144.517856 126.335699 
L 144.82283 126.980284 
L 146.652671 126.980284 
L 146.957645 127.624869 
L 149.09246 127.624869 
L 149.397433 128.269454 
L 151.532248 128.269454 
L 151.837222 128.914039 
L 153.972037 128.914039 
L 154.277011 129.558624 
L 156.411826 129.558624 
L 156.716799 130.203209 
L 158.851614 130.203209 
L 159.156588 130.847794 
L 161.291403 130.847794 
L 161.596377 131.492379 
L 164.036165 131.492379 
L 164.341139 132.136964 
L 166.475954 132.136964 
L 166.780928 132.781549 
L 168.915743 132.781549 
L 169.220716 133.426134 
L 171.660505 133.426134 
L 171.965479 134.070719 
L 174.100294 134.070719 
L 174.405267 134.715304 
L 176.845056 134.715304 
L 177.150029 135.359889 
L 179.589818 135.359889 
L 179.894792 136.004474 
L 182.33458 136.004474 
L 182.639554 136.649059 
L 184.774369 136.649059 
L 185.079343 137.293644 
L 187.519131 137.293644 
L 187.824105 137.938229 
L 190.263894 137.938229 
L 190.568867 138.582814 
L 193.008656 138.582814 
L 193.313629 139.227399 
L 196.058392 139.227399 
L 196.363365 139.871984 
L 198.803154 139.871984 
L 199.108128 140.516569 
L 200.937969 140.516569 
L 201.242943 141.161154 
L 201.85289 141.161154 
L 202.157863 141.805739 
L 202.462837 141.805739 
L 202.767811 142.450324 
L 203.072784 142.450324 
L 203.072784 142.450324 
" clip-path="url(#p3f307851b8)" style="fill: none; stroke: #fde725; stroke-width: 1.5; stroke-linecap: square"/>
   </g>
   <g id="line2d_26">
    <path d="M 66.749592 97.329375 
L 67.359539 96.040205 
L 67.969487 96.040205 
L 68.27446 95.39562 
L 68.884407 95.39562 
L 69.189381 94.751035 
L 70.104302 94.751035 
L 70.409275 94.10645 
L 71.324196 94.10645 
L 71.62917 93.461865 
L 72.54409 93.461865 
L 72.849064 92.81728 
L 74.068958 92.81728 
L 74.373932 92.172695 
L 75.288853 92.172695 
L 75.593826 91.52811 
L 76.813721 91.52811 
L 77.118694 90.883525 
L 78.338588 90.883525 
L 78.643562 90.23894 
L 79.863456 90.23894 
L 80.16843 89.594355 
L 81.388324 89.594355 
L 81.693298 88.94977 
L 82.913192 88.94977 
L 83.218166 88.305185 
L 84.43806 88.305185 
L 84.743034 87.6606 
L 85.962928 87.6606 
L 86.267902 87.016015 
L 87.487796 87.016015 
L 87.79277 86.37143 
L 89.012664 86.37143 
L 89.317637 85.726845 
L 90.842505 85.726845 
L 91.147479 85.08226 
L 92.367373 85.08226 
L 92.672347 84.437675 
L 94.197215 84.437675 
L 94.502188 83.79309 
L 95.722083 83.79309 
L 96.027056 83.148505 
L 97.551924 83.148505 
L 97.856898 82.50392 
L 99.381766 82.50392 
L 99.686739 81.859335 
L 100.906634 81.859335 
L 101.211607 81.21475 
L 102.736475 81.21475 
L 103.041449 80.570166 
L 104.566317 80.570166 
L 104.87129 79.925581 
L 106.396158 79.925581 
L 106.701132 79.280996 
L 108.530973 79.280996 
L 108.835947 78.636411 
L 110.360815 78.636411 
L 110.665788 77.991826 
L 112.190656 77.991826 
L 112.49563 77.347241 
L 114.325471 77.347241 
L 114.630445 76.702656 
L 116.155313 76.702656 
L 116.460286 76.058071 
L 118.290128 76.058071 
L 118.595101 75.413486 
L 120.424943 75.413486 
L 120.729917 74.768901 
L 122.254784 74.768901 
L 122.559758 74.124316 
L 124.3896 74.124316 
L 124.694573 73.479731 
L 126.524415 73.479731 
L 126.829388 72.835146 
L 128.65923 72.835146 
L 128.964203 72.190561 
L 130.794045 72.190561 
L 131.099018 71.545976 
L 132.92886 71.545976 
L 133.233833 70.901391 
L 135.368649 70.901391 
L 135.673622 70.256806 
L 137.503464 70.256806 
L 137.808437 69.612221 
L 139.943252 69.612221 
L 140.248226 68.967636 
L 142.078067 68.967636 
L 142.383041 68.323051 
L 144.517856 68.323051 
L 144.82283 67.678466 
L 146.652671 67.678466 
L 146.957645 67.033881 
L 149.09246 67.033881 
L 149.397433 66.389296 
L 151.532248 66.389296 
L 151.837222 65.744711 
L 153.972037 65.744711 
L 154.277011 65.100126 
L 156.411826 65.100126 
L 156.716799 64.455541 
L 158.851614 64.455541 
L 159.156588 63.810956 
L 161.291403 63.810956 
L 161.596377 63.166371 
L 164.036165 63.166371 
L 164.341139 62.521786 
L 166.475954 62.521786 
L 166.780928 61.877201 
L 168.915743 61.877201 
L 169.220716 61.232616 
L 171.660505 61.232616 
L 171.965479 60.588031 
L 174.100294 60.588031 
L 174.405267 59.943446 
L 176.845056 59.943446 
L 177.150029 59.298861 
L 179.589818 59.298861 
L 179.894792 58.654276 
L 182.33458 58.654276 
L 182.639554 58.009691 
L 184.774369 58.009691 
L 185.079343 57.365106 
L 187.519131 57.365106 
L 187.824105 56.720521 
L 190.263894 56.720521 
L 190.568867 56.075936 
L 193.008656 56.075936 
L 193.313629 55.431351 
L 196.058392 55.431351 
L 196.363365 54.786766 
L 198.803154 54.786766 
L 199.108128 54.142181 
L 200.937969 54.142181 
L 201.242943 53.497596 
L 201.85289 53.497596 
L 202.157863 52.853011 
L 202.462837 52.853011 
L 202.767811 52.208426 
L 203.072784 52.208426 
L 203.072784 52.208426 
" clip-path="url(#p3f307851b8)" style="fill: none; stroke: #fde725; stroke-width: 1.5; stroke-linecap: square"/>
   </g>
   <g id="patch_3">
    <path d="M 43.281875 178.869375 
L 43.281875 15.789375 
" style="fill: none; stroke: #000000; stroke-width: 0.8; stroke-linejoin: miter; stroke-linecap: square"/>
   </g>
   <g id="patch_4">
    <path d="M 43.281875 178.869375 
L 210.681875 178.869375 
" style="fill: none; stroke: #000000; stroke-width: 0.8; stroke-linejoin: miter; stroke-linecap: square"/>
   </g>
   <g id="text_9">
    <!-- B -->
    <g transform="translate(18.171875 15.789375)scale(0.12 -0.12)">
     <defs>
      <path id="Arial-BoldMT-42" d="M 469 4581 
L 2300 4581 
Q 2844 4581 3111 4536 
Q 3378 4491 3589 4347 
Q 3800 4203 3940 3964 
Q 4081 3725 4081 3428 
Q 4081 3106 3907 2837 
Q 3734 2569 3438 2434 
Q 3856 2313 4081 2019 
Q 4306 1725 4306 1328 
Q 4306 1016 4161 720 
Q 4016 425 3764 248 
Q 3513 72 3144 31 
Q 2913 6 2028 0 
L 469 0 
L 469 4581 
z
M 1394 3819 
L 1394 2759 
L 2000 2759 
Q 2541 2759 2672 2775 
Q 2909 2803 3045 2939 
Q 3181 3075 3181 3297 
Q 3181 3509 3064 3642 
Q 2947 3775 2716 3803 
Q 2578 3819 1925 3819 
L 1394 3819 
z
M 1394 1997 
L 1394 772 
L 2250 772 
Q 2750 772 2884 800 
Q 3091 838 3220 983 
Q 3350 1128 3350 1372 
Q 3350 1578 3250 1722 
Q 3150 1866 2961 1931 
Q 2772 1997 2141 1997 
L 1394 1997 
z
" transform="scale(0.015625)"/>
     </defs>
     <use xlink:href="#Arial-BoldMT-42"/>
    </g>
   </g>
   <g id="legend_1">
    <g id="text_10">
     <!-- $\Delta f$ -->
     <g transform="translate(245.71625 35.17875)scale(0.12 -0.12)">
      <defs>
       <path id="DejaVuSans-394" d="M 2188 4044 
L 906 525 
L 3472 525 
L 2188 4044 
z
M 50 0 
L 1831 4666 
L 2547 4666 
L 4325 0 
L 50 0 
z
" transform="scale(0.015625)"/>
       <path id="DejaVuSans-Oblique-66" d="M 3059 4863 
L 2969 4384 
L 2419 4384 
Q 2106 4384 1964 4261 
Q 1822 4138 1753 3809 
L 1691 3500 
L 2638 3500 
L 2553 3053 
L 1606 3053 
L 1013 0 
L 434 0 
L 1031 3053 
L 481 3053 
L 563 3500 
L 1113 3500 
L 1159 3744 
Q 1278 4363 1576 4613 
Q 1875 4863 2516 4863 
L 3059 4863 
z
" transform="scale(0.015625)"/>
      </defs>
      <use xlink:href="#DejaVuSans-394" transform="translate(0 0.015625)"/>
      <use xlink:href="#DejaVuSans-Oblique-66" transform="translate(68.408203 0.015625)"/>
     </g>
    </g>
    <g id="patch_5">
     <path d="M 221.481875 52.153125 
L 245.481875 52.153125 
L 245.481875 43.753125 
L 221.481875 43.753125 
z
" style="fill: #440154"/>
    </g>
    <g id="text_11">
     <!-- -0.5 -->
     <g transform="translate(255.081875 52.153125)scale(0.12 -0.12)">
      <defs>
       <path id="ArialMT-2d" d="M 203 1375 
L 203 1941 
L 1931 1941 
L 1931 1375 
L 203 1375 
z
" transform="scale(0.015625)"/>
       <path id="ArialMT-2e" d="M 581 0 
L 581 641 
L 1222 641 
L 1222 0 
L 581 0 
z
" transform="scale(0.015625)"/>
      </defs>
      <use xlink:href="#ArialMT-2d"/>
      <use xlink:href="#ArialMT-30" x="33.300781"/>
      <use xlink:href="#ArialMT-2e" x="88.916016"/>
      <use xlink:href="#ArialMT-35" x="116.699219"/>
     </g>
    </g>
    <g id="patch_6">
     <path d="M 221.481875 69.1275 
L 245.481875 69.1275 
L 245.481875 60.7275 
L 221.481875 60.7275 
z
" style="fill: #3b528b"/>
    </g>
    <g id="text_12">
     <!-- -0.25 -->
     <g transform="translate(255.081875 69.1275)scale(0.12 -0.12)">
      <use xlink:href="#ArialMT-2d"/>
      <use xlink:href="#ArialMT-30" x="33.300781"/>
      <use xlink:href="#ArialMT-2e" x="88.916016"/>
      <use xlink:href="#ArialMT-32" x="116.699219"/>
      <use xlink:href="#ArialMT-35" x="172.314453"/>
     </g>
    </g>
    <g id="patch_7">
     <path d="M 221.481875 86.101875 
L 245.481875 86.101875 
L 245.481875 77.701875 
L 221.481875 77.701875 
z
" style="fill: #21918c"/>
    </g>
    <g id="text_13">
     <!-- 0.0 -->
     <g transform="translate(255.081875 86.101875)scale(0.12 -0.12)">
      <use xlink:href="#ArialMT-30"/>
      <use xlink:href="#ArialMT-2e" x="55.615234"/>
      <use xlink:href="#ArialMT-30" x="83.398438"/>
     </g>
    </g>
    <g id="patch_8">
     <path d="M 221.481875 103.07625 
L 245.481875 103.07625 
L 245.481875 94.67625 
L 221.481875 94.67625 
z
" style="fill: #5ec962"/>
    </g>
    <g id="text_14">
     <!-- 0.25 -->
     <g transform="translate(255.081875 103.07625)scale(0.12 -0.12)">
      <use xlink:href="#ArialMT-30"/>
      <use xlink:href="#ArialMT-2e" x="55.615234"/>
      <use xlink:href="#ArialMT-32" x="83.398438"/>
      <use xlink:href="#ArialMT-35" x="139.013672"/>
     </g>
    </g>
    <g id="patch_9">
     <path d="M 221.481875 120.050625 
L 245.481875 120.050625 
L 245.481875 111.650625 
L 221.481875 111.650625 
z
" style="fill: #fde725"/>
    </g>
    <g id="text_15">
     <!-- 0.5 -->
     <g transform="translate(255.081875 120.050625)scale(0.12 -0.12)">
      <use xlink:href="#ArialMT-30"/>
      <use xlink:href="#ArialMT-2e" x="55.615234"/>
      <use xlink:href="#ArialMT-35" x="83.398438"/>
     </g>
    </g>
   </g>
  </g>
 </g>
 <defs>
  <clipPath id="p3f307851b8">
   <rect x="43.281875" y="15.789375" width="167.4" height="163.08"/>
  </clipPath>
 </defs>
</svg>
